<svg width="362" height="362" viewBox="0 0 362 362" fill="none" xmlns="http://www.w3.org/2000/svg">
<mask id="path-1-inside-1_176_204" fill="white">
<path d="M323.614 281.786C326.486 283.815 330.47 283.138 332.398 280.196C356.193 243.88 366.18 200.145 360.398 156.973C354.334 111.692 331.37 70.3799 296.116 41.3243C260.862 12.2687 215.924 -2.38058 170.319 0.315452C124.713 3.01148 81.8145 22.8534 50.229 55.8603C18.6434 88.8673 0.707771 132.597 0.0204836 178.277C-0.666804 223.957 15.9451 268.207 46.5234 302.149C77.1016 336.091 119.384 357.215 164.888 361.281C208.273 365.159 251.526 353.257 286.76 327.887C289.614 325.832 290.116 321.822 287.962 319.042V319.042C285.808 316.262 281.814 315.766 278.954 317.813C246.266 341.218 206.205 352.188 166.021 348.596C123.719 344.816 84.4121 325.178 55.9854 293.625C27.5587 262.071 12.1157 220.934 12.7546 178.469C13.3935 136.003 30.0672 95.3499 59.4303 64.6654C88.7934 33.9809 128.674 15.5351 171.07 13.0288C213.466 10.5225 255.242 24.141 288.016 51.1522C320.79 78.1633 342.137 116.569 347.775 158.663C353.131 198.65 343.934 239.155 321.99 272.841C320.07 275.788 320.742 279.756 323.614 281.786V281.786Z"/>
</mask>
<path d="M323.614 281.786C326.486 283.815 330.47 283.138 332.398 280.196C356.193 243.88 366.18 200.145 360.398 156.973C354.334 111.692 331.37 70.3799 296.116 41.3243C260.862 12.2687 215.924 -2.38058 170.319 0.315452C124.713 3.01148 81.8145 22.8534 50.229 55.8603C18.6434 88.8673 0.707771 132.597 0.0204836 178.277C-0.666804 223.957 15.9451 268.207 46.5234 302.149C77.1016 336.091 119.384 357.215 164.888 361.281C208.273 365.159 251.526 353.257 286.76 327.887C289.614 325.832 290.116 321.822 287.962 319.042V319.042C285.808 316.262 281.814 315.766 278.954 317.813C246.266 341.218 206.205 352.188 166.021 348.596C123.719 344.816 84.4121 325.178 55.9854 293.625C27.5587 262.071 12.1157 220.934 12.7546 178.469C13.3935 136.003 30.0672 95.3499 59.4303 64.6654C88.7934 33.9809 128.674 15.5351 171.07 13.0288C213.466 10.5225 255.242 24.141 288.016 51.1522C320.79 78.1633 342.137 116.569 347.775 158.663C353.131 198.65 343.934 239.155 321.99 272.841C320.07 275.788 320.742 279.756 323.614 281.786V281.786Z" fill="#192BC2" stroke="#0E0E52" stroke-width="8" mask="url(#path-1-inside-1_176_204)"/>
<mask id="path-2-inside-2_176_204" fill="white">
<path d="M292.764 315.184C295.015 317.886 299.038 318.26 301.66 315.916C308.716 309.605 315.266 302.751 321.25 295.415C323.473 292.69 322.917 288.688 320.115 286.562V286.562C317.314 284.436 313.329 284.992 311.098 287.712C305.707 294.285 299.825 300.44 293.503 306.124C290.888 308.475 290.513 312.481 292.764 315.184V315.184Z"/>
</mask>
<path d="M292.764 315.184C295.015 317.886 299.038 318.26 301.66 315.916C308.716 309.605 315.266 302.751 321.25 295.415C323.473 292.69 322.917 288.688 320.115 286.562V286.562C317.314 284.436 313.329 284.992 311.098 287.712C305.707 294.285 299.825 300.44 293.503 306.124C290.888 308.475 290.513 312.481 292.764 315.184V315.184Z" fill="#192BC2" stroke="#0E0E52" stroke-width="8" mask="url(#path-2-inside-2_176_204)"/>
</svg>
