<svg width="901" height="742" viewBox="0 0 901 742" fill="none" xmlns="http://www.w3.org/2000/svg">
<mask id="mask0_21_5871" style="mask-type:alpha" maskUnits="userSpaceOnUse" x="197" y="0" width="671" height="469">
<path d="M523.502 467.448H523.5H224.58C202.761 416.529 193.909 360.993 198.818 305.811C203.738 250.52 222.319 197.318 252.893 150.987C283.467 104.656 325.074 66.649 373.975 40.3815C422.877 14.114 477.539 0.409658 533.048 0.500448C588.557 0.591238 643.174 14.4743 691.989 40.9016C740.804 67.329 782.287 105.472 812.709 151.903C843.131 198.334 861.539 251.596 866.277 306.903C871.006 362.101 861.973 417.608 839.987 468.454L523.502 467.448Z" fill="url(#paint0_linear_21_5871)" stroke="white"/>
</mask>
<g mask="url(#mask0_21_5871)">
<path d="M505.594 327.759L505.594 327.759L505.563 327.391L507.834 327.371L510.335 327.349L512.393 331.384C519.69 345.689 525.704 355.877 533.368 366.914C548.79 389.122 566.914 409.749 587.192 428.175C591.965 432.512 595.568 435.826 597.176 437.354C593.976 435.783 583.364 429.55 577.472 425.762C554.291 410.859 531.78 388.57 519.389 368.268C517.335 364.903 516.729 363.816 514.871 360.169C510.563 351.707 508.165 344.93 506.753 337.246C506.208 334.28 506.009 332.66 505.594 327.759Z" stroke="white"/>
<path d="M689.077 435.129C686.928 436.375 685.058 437.417 683.693 438.126C684.718 437.201 686.155 435.906 687.684 434.529C727.628 398.56 757.596 357.641 774.81 315.535L775.79 313.138L775.919 317.045C776.615 338.115 771.166 355.005 757.212 374.926C744.845 392.582 725.725 411.198 706.621 424.179C701.434 427.704 694.416 432.032 689.077 435.129Z" stroke="white"/>
<path d="M703.21 138.482L703.301 138.616L703.453 138.671L709.621 140.917C712.999 142.147 718.505 144.451 721.847 146.033L726.868 148.41L716.675 152.149C713.557 153.292 710.604 154.464 708.356 155.432C707.232 155.916 706.28 156.351 705.57 156.708C705.215 156.886 704.914 157.047 704.68 157.188C704.464 157.318 704.253 157.459 704.125 157.604C703.256 158.583 702.927 160.049 703.02 161.448C703.113 162.851 703.637 164.298 704.61 165.256C705.238 165.875 705.807 166.287 706.563 166.459C707.292 166.626 708.139 166.554 709.285 166.36C710.596 166.138 711.202 166.101 711.821 166.36C712.484 166.639 713.205 167.274 714.628 168.65C715.528 169.52 716.253 170.372 716.749 171.115C717.261 171.88 717.479 172.457 717.482 172.795C717.488 173.418 717.711 174.066 718.042 174.669C718.376 175.276 718.837 175.869 719.358 176.388C719.879 176.907 720.471 177.363 721.078 177.692C721.679 178.017 722.325 178.234 722.944 178.228C723.065 178.227 723.274 178.274 723.579 178.407C723.874 178.536 724.219 178.729 724.597 178.974C725.354 179.465 726.211 180.146 727.018 180.884C727.826 181.622 728.571 182.406 729.111 183.1C729.381 183.447 729.592 183.762 729.734 184.03C729.882 184.31 729.927 184.489 729.927 184.578C729.931 185.022 730.111 185.482 730.35 185.894C730.595 186.315 730.927 186.731 731.295 187.098C731.664 187.465 732.08 187.795 732.5 188.036C732.902 188.267 733.349 188.44 733.783 188.444C733.793 188.448 733.816 188.455 733.853 188.472C733.931 188.506 734.038 188.563 734.174 188.645C734.444 188.809 734.796 189.054 735.206 189.365C736.023 189.986 737.044 190.848 738.066 191.801C738.956 192.63 739.623 193.261 740.122 193.784C740.623 194.308 740.932 194.699 741.122 195.045C741.476 195.688 741.459 196.233 741.273 197.469C741.107 198.575 741.06 199.398 741.298 200.147C741.538 200.902 742.044 201.515 742.802 202.262C743.794 203.24 744.781 203.895 745.777 204.151C746.795 204.414 747.776 204.248 748.705 203.672C749.616 203.107 750.463 202.156 751.271 200.864C752.083 199.568 752.875 197.897 753.663 195.855L755.826 190.249L758.352 190.562C761.347 190.933 764.984 192.602 768.351 194.979C771.714 197.353 774.751 200.392 776.569 203.442C781.146 211.115 783.062 219.477 783.187 232.578C783.377 252.47 778.023 277.083 767.556 304.309C750.313 349.161 722.553 388.047 680.082 426.809C661.173 444.067 650.827 456.542 643.777 470.641L641.897 474.401L639.088 469.173C634.903 461.381 627.825 451.911 619.959 443.564C603.708 426.32 582.152 387.633 561.616 338.767C555.643 324.557 545.072 297.457 540.781 285.359C539.857 282.753 539.147 280.905 538.653 279.884C538.529 279.627 538.412 279.411 538.304 279.243C538.21 279.098 538.077 278.912 537.898 278.809C537.795 278.749 537.618 278.684 537.413 278.747C537.213 278.809 537.105 278.955 537.053 279.052C536.959 279.227 536.933 279.45 536.922 279.632C536.877 280.411 537.066 282.058 537.457 284.551C537.851 287.069 538.461 290.505 539.283 294.902C546.136 331.543 563.92 376.963 582.786 405.992C584.42 408.507 585.876 410.821 586.905 412.521C587.026 412.72 587.14 412.911 587.248 413.092C586.962 412.821 586.649 412.521 586.312 412.194C584.591 410.527 582.263 408.192 579.748 405.619C574.718 400.471 568.956 394.387 565.831 390.814C534.223 354.669 512.566 314.366 501.633 271.363C497.542 255.274 496.716 249.392 496.569 235.383C496.45 224.147 496.614 222.095 497.938 217.317C501.736 203.618 509.623 195.015 520.495 192.492L522.86 191.943L524.683 196.726C526.245 200.829 528.113 203.709 530.112 205.094C531.124 205.794 532.191 206.127 533.27 206.008C534.346 205.889 535.366 205.328 536.299 204.376C536.912 203.75 537.319 203.162 537.509 202.382C537.694 201.627 537.664 200.74 537.519 199.545C537.348 198.137 537.329 197.494 537.629 196.844C537.949 196.151 538.647 195.411 540.153 193.938C540.999 193.11 542.01 192.259 542.955 191.556C543.91 190.846 544.761 190.316 545.292 190.102C546.787 189.5 548 188.274 548.595 186.768C548.82 186.201 549.278 185.471 549.888 184.68C550.494 183.895 551.23 183.075 551.987 182.329C552.745 181.583 553.514 180.92 554.185 180.444C554.521 180.205 554.824 180.02 555.081 179.895C555.348 179.766 555.527 179.72 555.626 179.717C556.189 179.697 556.788 179.475 557.348 179.165C557.915 178.85 558.478 178.424 558.978 177.951C559.476 177.478 559.923 176.946 560.247 176.412C560.565 175.889 560.796 175.316 560.791 174.771C560.79 174.65 560.837 174.437 560.977 174.123C561.112 173.819 561.318 173.458 561.591 173.055C562.135 172.249 562.921 171.306 563.868 170.355C565.37 168.846 566.17 168.111 566.859 167.767C567.49 167.453 568.051 167.457 569.19 167.632C570.252 167.795 571.054 167.836 571.795 167.593C572.538 167.35 573.151 166.845 573.89 166.091C574.981 164.978 575.604 163.677 575.696 162.389C575.788 161.093 575.338 159.841 574.347 158.864C574.211 158.73 573.998 158.592 573.766 158.459C573.521 158.318 573.211 158.157 572.848 157.981C572.121 157.629 571.158 157.204 570.031 156.736C567.776 155.798 564.843 154.677 561.774 153.599C558.715 152.524 555.936 151.514 553.922 150.755C552.915 150.374 552.103 150.058 551.544 149.828C551.509 149.813 551.475 149.799 551.442 149.785C551.765 149.6 552.198 149.368 552.719 149.101C553.955 148.467 555.664 147.645 557.544 146.774C561.306 145.033 565.726 143.112 568.38 142.131L568.572 142.059C571.504 140.976 573.09 140.39 574.37 139.352C575.646 138.317 576.605 136.842 578.387 134.103L578.503 133.925C580.512 130.837 582.723 128.17 584.886 126.148C587.058 124.119 589.148 122.773 590.911 122.275C592.675 121.776 596.144 121.569 600.008 121.761C602.806 121.9 604.513 121.937 605.919 121.742C607.347 121.544 608.446 121.108 610.033 120.354C617.977 116.58 628.195 114.585 638.435 114.426C648.675 114.267 658.891 115.944 666.832 119.47C668.872 120.376 670.146 120.887 671.597 121.107C673.038 121.326 674.628 121.254 677.292 121.065C682.813 120.671 686.569 121.081 689.861 122.89C693.168 124.708 696.076 127.974 699.805 133.467L703.21 138.482ZM644.613 387.244C645.064 386.843 645.566 386.065 646.018 385.191C646.479 384.298 646.921 383.24 647.234 382.227C648.495 378.149 652.359 371.847 655.792 368.293C657.1 366.938 660.868 363.855 664.166 361.45C678.98 350.648 685.551 343.691 690.156 333.818C691.246 331.481 692.285 328.177 693.053 324.883C693.821 321.591 694.329 318.265 694.337 315.885C694.339 315.272 694.577 314.556 695.334 313.452C696.092 312.345 697.331 310.904 699.256 308.849C702.448 305.44 704.528 302.995 705.969 300.747C707.419 298.486 708.215 296.437 708.864 293.831C709.458 291.447 709.768 287.836 709.798 283.969C709.829 280.094 709.58 275.923 709.042 272.408L708.359 267.948L712.219 263.649C719.743 255.272 726.868 242.99 730.398 232.311C731.889 227.801 732.193 225.544 732.192 219.178C732.192 215.439 732.185 213.455 731.838 211.785C731.487 210.096 730.791 208.74 729.497 206.253C725.959 199.454 719.569 191.741 712.1 184.747C704.629 177.749 696.043 171.439 688.087 167.462C685.061 165.949 683.326 165.119 681.723 164.689C680.102 164.254 678.636 164.234 676.171 164.277C669.948 164.384 661.615 167.104 647.481 173.565L639.109 177.393L633.133 174.673C626.729 171.758 620.178 169.217 614.587 167.41C609.02 165.61 604.339 164.515 601.709 164.538C598.422 164.567 594.131 166.15 589.443 168.724C584.738 171.308 579.571 174.926 574.512 179.1C564.405 187.441 554.668 198.058 549.915 207.187C544.723 217.156 546.036 229.281 553.719 244.307C557.165 251.045 563.403 260.139 568.251 265.488L571.638 269.224L570.938 276.075C570.145 283.825 570.582 290.873 572.227 296.52C572.794 298.469 574.457 301.274 576.636 304.217C578.827 307.175 581.58 310.324 584.378 312.966C585.689 314.203 586.329 314.891 586.676 315.63C587.018 316.358 587.096 317.181 587.114 318.769C587.226 328.421 592.206 339.119 600.565 347.817C603.701 351.081 609.903 356.238 615.391 360.153C621.506 364.514 625.528 367.815 628.454 371.162C631.37 374.498 633.213 377.898 634.936 382.483C635.368 383.633 635.891 384.777 636.388 385.697C636.636 386.157 636.88 386.567 637.108 386.897C637.326 387.214 637.556 387.499 637.78 387.667C638.71 388.365 639.989 388.633 641.219 388.554C642.451 388.475 643.712 388.043 644.613 387.244Z" stroke="white"/>
<path d="M640.079 368.391C639.667 367.504 638.836 366.37 637.734 365.101C636.623 363.823 635.209 362.377 633.6 360.864C630.383 357.838 626.366 354.524 622.393 351.716C617.939 348.567 612.59 344.453 610.51 342.581C608.703 340.954 606.274 338.13 604.374 335.62C603.425 334.366 602.619 333.204 602.094 332.321C601.964 332.103 601.854 331.906 601.764 331.732C601.794 331.752 601.824 331.772 601.856 331.792C602.432 332.174 603.194 332.752 604 333.433C606.1 335.208 609.389 337.121 612.909 338.746C616.433 340.373 620.229 341.731 623.36 342.378C626.381 343.002 633.529 343.563 640.261 343.713C653.95 344.019 662.139 342.86 669.27 339.543L669.059 339.09L669.27 339.543C670.478 338.981 671.572 338.509 672.36 338.202C672.471 338.158 672.575 338.118 672.672 338.082C672.656 338.119 672.64 338.156 672.623 338.194C672.381 338.739 672.045 339.451 671.675 340.195C671.002 341.546 669.826 342.987 667.669 344.901C665.512 346.814 662.402 349.176 657.894 352.377C654.838 354.546 651.326 357.58 648.372 360.478C646.894 361.929 645.551 363.35 644.472 364.617C643.399 365.877 642.564 367.01 642.124 367.88C641.806 368.51 641.541 368.961 641.313 369.258C641.07 369.573 640.937 369.623 640.91 369.627C640.908 369.628 640.907 369.628 640.907 369.628C640.906 369.628 640.905 369.628 640.905 369.628C640.904 369.628 640.896 369.626 640.882 369.619C640.85 369.603 640.79 369.562 640.705 369.466C640.531 369.267 640.326 368.923 640.079 368.391ZM601.483 331.02C601.483 331.02 601.483 331.023 601.483 331.028C601.483 331.023 601.483 331.02 601.483 331.02Z" stroke="white"/>
<path d="M625.21 273.323L625.21 273.323C626.895 272.653 630.139 272.054 633.733 271.674C637.313 271.297 641.174 271.144 644.066 271.344C647.031 271.549 649.908 271.909 652.16 272.323C653.287 272.53 654.249 272.75 654.984 272.968C655.352 273.077 655.655 273.184 655.891 273.285C655.962 273.316 656.025 273.345 656.079 273.373C656.031 273.439 655.969 273.518 655.891 273.61C655.564 273.998 655.039 274.528 654.364 275.161C653.018 276.421 651.122 278.04 649.141 279.642C647.16 281.243 645.103 282.819 643.436 283.994C642.601 284.582 641.872 285.064 641.302 285.398C641.017 285.565 640.78 285.69 640.596 285.772C640.457 285.833 640.376 285.857 640.339 285.866C640.323 285.861 640.302 285.853 640.276 285.843C640.189 285.807 640.068 285.75 639.914 285.67C639.606 285.511 639.195 285.275 638.707 284.98C637.733 284.39 636.475 283.572 635.171 282.67C632.564 280.867 628.882 278 627 276.31L624.145 273.746L625.21 273.323ZM640.373 285.877C640.373 285.877 640.372 285.877 640.369 285.876C640.371 285.876 640.372 285.877 640.373 285.877Z" stroke="white"/>
<path d="M858.477 327.285C847.346 325.367 831.742 319.174 821.975 312.795L821.702 313.214L821.975 312.795L818.677 310.641L820.583 305.726C821.146 304.274 821.703 302.9 822.147 301.857C822.369 301.335 822.562 300.898 822.711 300.578C822.787 300.417 822.849 300.29 822.898 300.196C822.908 300.178 822.916 300.162 822.924 300.148C822.945 300.144 822.97 300.139 822.999 300.134C823.155 300.107 823.385 300.085 823.69 300.068C824.296 300.035 825.147 300.028 826.183 300.043C828.251 300.074 831.022 300.197 833.97 300.379C839.877 300.743 846.448 301.343 849.497 301.914C862.954 304.435 879.462 310.063 887.896 314.986C890.52 316.518 893.537 318.807 895.899 320.921C897.08 321.977 898.086 322.981 898.794 323.815C899.148 324.233 899.419 324.598 899.599 324.899C899.79 325.219 899.837 325.399 899.838 325.467C899.838 325.517 899.821 325.607 899.675 325.745C899.521 325.89 899.259 326.054 898.851 326.222C898.038 326.559 896.775 326.866 895.027 327.133C891.541 327.665 886.256 328.02 879.097 328.203C868.157 328.483 864.45 328.314 858.477 327.285ZM822.842 300.171C822.842 300.171 822.845 300.17 822.853 300.167C822.846 300.17 822.843 300.171 822.842 300.171Z" stroke="white"/>
<path d="M857.882 362.629C841.894 360.296 829.071 354.022 811.402 339.827C809.778 338.522 808.299 337.279 807.227 336.33C806.691 335.855 806.261 335.457 805.966 335.164C805.841 335.039 805.745 334.938 805.678 334.862C805.697 334.818 805.721 334.766 805.751 334.704C805.855 334.493 806.011 334.208 806.211 333.869C806.61 333.193 807.168 332.323 807.787 331.427L807.382 331.147L807.787 331.427C809.047 329.604 810.958 326.478 812.041 324.469C812.573 323.483 813.109 322.591 813.542 321.95C813.76 321.628 813.945 321.379 814.086 321.215C814.107 321.192 814.125 321.171 814.142 321.152C814.198 321.177 814.266 321.208 814.346 321.246C814.594 321.366 814.93 321.543 815.331 321.767C816.131 322.213 817.17 322.831 818.255 323.513C820.461 324.901 825.682 327.616 829.862 329.554C841.543 334.969 855.516 345.847 864.489 356.521C865.144 357.3 865.738 358.002 866.272 358.635C867.24 359.78 868.016 360.698 868.619 361.436C869.086 362.009 869.442 362.464 869.698 362.826C869.945 363.175 870.079 363.409 870.138 363.562C870.105 363.568 870.063 363.574 870.009 363.58C869.79 363.602 869.489 363.602 869.085 363.592C868.973 363.589 868.853 363.586 868.727 363.582C868.414 363.573 868.06 363.563 867.678 363.56C865.685 363.541 861.272 363.123 857.882 362.629ZM805.59 334.752C805.583 334.74 805.585 334.742 805.592 334.755C805.591 334.754 805.591 334.753 805.59 334.752ZM813.99 321.094C813.99 321.094 813.991 321.094 813.994 321.095C813.991 321.095 813.99 321.094 813.99 321.094ZM870.172 363.673C870.172 363.673 870.171 363.672 870.171 363.669C870.172 363.672 870.172 363.673 870.172 363.673Z" stroke="white"/>
<path d="M845.58 399.937C835.211 397.175 827.509 394.17 820.335 389.577C813.157 384.982 806.482 378.78 798.189 369.589L791.952 362.677L794.37 361.835C797.493 360.746 799.513 358.862 800.245 356.313C800.97 353.787 800.396 350.726 798.606 347.341C797.85 345.911 797.444 345.005 797.291 344.377C797.217 344.07 797.211 343.859 797.238 343.703C797.264 343.554 797.325 343.425 797.436 343.289C797.589 343.101 797.684 343.029 797.743 343.002C797.776 342.987 797.82 342.973 797.933 343.011C798.067 343.056 798.263 343.165 798.556 343.389C798.844 343.61 799.197 343.917 799.644 344.329L799.983 343.961L799.644 344.329C800.836 345.427 804.453 348.395 807.68 350.926C818.939 359.757 834.096 375.005 842.122 385.572C844.43 388.611 847.041 392.386 849.076 395.537C850.093 397.112 850.963 398.527 851.578 399.611C851.886 400.154 852.125 400.608 852.287 400.954C852.368 401.128 852.426 401.267 852.463 401.372C852.477 401.413 852.486 401.443 852.492 401.465C852.378 401.479 852.155 401.479 851.752 401.421C850.716 401.273 848.86 400.81 845.58 399.937Z" stroke="white"/>
<path d="M814.968 420.917C801.466 415.399 791.538 407.481 778.709 391.939C776.759 389.577 774.392 386.244 772.575 383.433C771.667 382.028 770.902 380.763 770.399 379.822C770.18 379.412 770.016 379.075 769.912 378.82C769.998 378.83 770.095 378.841 770.201 378.856C770.716 378.926 771.407 379.051 772.147 379.217C778.41 380.615 783.953 379.753 787.172 376.676L788.378 375.524L794.394 381.882C802.199 390.129 807.489 397.283 811.622 405.161C814.046 409.781 816.113 414.284 817.412 417.618C818.064 419.289 818.515 420.647 818.726 421.574C818.807 421.928 818.846 422.194 818.856 422.379C818.82 422.368 818.781 422.356 818.74 422.343C818.494 422.264 818.166 422.151 817.778 422.009C817.004 421.727 816.004 421.34 814.968 420.917Z" stroke="white"/>
<path d="M770.109 399.837C770.131 399.853 770.194 399.913 770.302 400.049C770.404 400.177 770.527 400.349 770.671 400.564C770.958 400.993 771.311 401.572 771.715 402.273C772.522 403.672 773.519 405.531 774.569 407.586C776.67 411.697 778.973 416.567 780.392 420.064C782.498 425.255 784.249 430.564 785.277 434.555C785.792 436.555 786.12 438.205 786.225 439.337C786.278 439.9 786.27 440.294 786.224 440.529C786.172 440.504 786.112 440.473 786.045 440.436C785.792 440.301 785.453 440.103 785.049 439.856C784.242 439.362 783.195 438.684 782.105 437.939C776.888 434.377 770.028 428.008 765.873 422.865L765.484 423.18L765.873 422.865L762.637 418.861L763.473 413.925C763.958 411.064 764.352 406.658 764.35 404.114L764.346 399.993L766.814 399.71L766.814 399.71C767.588 399.622 768.37 399.602 769.001 399.641C769.316 399.66 769.584 399.693 769.789 399.736C769.892 399.758 769.972 399.78 770.03 399.802C770.083 399.821 770.105 399.834 770.109 399.836C770.11 399.837 770.11 399.837 770.109 399.837ZM770.109 399.837C770.109 399.836 770.109 399.836 770.109 399.836L770.41 399.437L770.109 399.837ZM786.41 440.613C786.412 440.613 786.414 440.614 786.414 440.614C786.415 440.614 786.414 440.614 786.41 440.613Z" stroke="white"/>
<path d="M835.688 289.598C833.169 289.468 830.851 289.321 829.148 289.19C828.295 289.124 827.6 289.063 827.112 289.009C826.975 288.994 826.857 288.98 826.757 288.967C826.757 288.964 826.758 288.961 826.758 288.958C826.81 288.684 826.902 288.292 827.029 287.807C827.284 286.839 827.671 285.533 828.13 284.123L829.717 279.253L839.51 277.348C845.059 276.268 853.142 274.59 857.476 273.619C866.975 271.49 877.208 270.184 886.276 269.785C895.36 269.385 903.22 269.899 907.999 271.374C910.409 272.118 912.119 272.914 913.136 273.71C913.642 274.107 913.947 274.481 914.097 274.82C914.24 275.145 914.25 275.455 914.13 275.775C914.013 276.09 913.719 276.5 913.216 276.99C912.72 277.473 912.056 278.001 911.248 278.558C909.634 279.672 907.485 280.876 905.064 282.04C900.219 284.369 894.34 286.511 889.577 287.442C877.141 289.873 856.818 290.691 835.688 289.598Z" stroke="white"/>
<path d="M834.071 267.389L834.071 267.389C833.713 267.469 833.412 267.49 833.209 267.474C833.228 267.388 833.251 267.286 833.279 267.168C833.359 266.83 833.474 266.372 833.615 265.826C833.898 264.734 834.286 263.3 834.709 261.786L836.196 256.477L848.561 249.742C879.748 232.755 893 227.389 906.021 226.372C908.661 226.166 910.805 226.181 912.464 226.407C914.134 226.635 915.247 227.069 915.892 227.642C916.499 228.183 916.737 228.891 916.564 229.853C916.384 230.849 915.76 232.103 914.622 233.625C910.954 238.529 903.339 243.876 893.177 248.908C883.034 253.931 870.415 258.609 856.806 262.204C851.543 263.594 844.626 265.251 841.441 265.884C838.243 266.52 834.925 267.197 834.071 267.389ZM834.18 267.877C833.333 268.067 832.65 267.984 832.662 267.693L834.18 267.877Z" stroke="white"/>
<path d="M841.152 238.186C841.868 235.625 842.795 232.131 843.215 230.419C843.524 229.155 844.01 228.108 845.645 226.163C847.296 224.198 850.084 221.359 854.967 216.512C870.59 201.007 881.614 192.325 890.058 188.799C891.31 188.275 892.291 187.928 893.05 187.756C893.826 187.581 894.274 187.614 894.528 187.735C894.735 187.833 894.908 188.039 894.984 188.551C895.062 189.078 895.018 189.834 894.855 190.871C893.675 198.354 889.352 205.858 881.549 213.635C873.744 221.413 862.486 229.437 847.497 237.958C845.417 239.14 843.483 240.215 842.042 240.993C841.322 241.383 840.727 241.697 840.3 241.913C840.291 241.917 840.283 241.921 840.274 241.926C840.297 241.781 840.326 241.615 840.362 241.43C840.521 240.605 840.797 239.457 841.152 238.186Z" stroke="white"/>
<path d="M850.592 205.209C850.457 205.339 850.334 205.453 850.223 205.552C850.928 203.179 852.324 199.792 853.908 196.47C855.678 192.756 857.653 189.183 859.107 187.246C861.309 184.314 864.773 180.543 867.793 177.603C869.302 176.133 870.689 174.881 871.743 174.05C872.158 173.723 872.51 173.47 872.791 173.295C872.7 173.532 872.579 173.818 872.43 174.149C871.985 175.138 871.315 176.474 870.529 177.95C868.957 180.903 866.939 184.382 865.368 186.715C862.374 191.16 858.156 196.601 854.769 200.607C853.073 202.612 851.597 204.244 850.592 205.209ZM873.331 173.033C873.331 173.033 873.328 173.033 873.322 173.034C873.328 173.033 873.331 173.033 873.331 173.033Z" stroke="white"/>
<path d="M384.174 193.636L384.174 193.636C384.216 193.15 384.261 192.797 384.323 192.538C384.385 192.276 384.451 192.165 384.498 192.115C384.531 192.08 384.584 192.041 384.735 192.023C384.902 192.004 385.142 192.016 385.505 192.064L385.505 192.064C387.028 192.267 389.15 193.09 391.763 194.489C394.364 195.882 397.41 197.823 400.771 200.223C407.492 205.022 415.443 211.635 423.565 219.308L435.244 230.342L437.463 238.053C438.083 240.207 438.626 242.184 439.002 243.633C439.162 244.252 439.291 244.773 439.382 245.168C439.067 245.025 438.668 244.837 438.2 244.61C436.992 244.024 435.347 243.189 433.557 242.248C419.742 234.979 408.62 227.598 400.444 220.344C392.262 213.084 387.066 205.983 385.041 199.283C384.751 198.323 384.507 197.197 384.35 196.16C384.19 195.112 384.125 194.194 384.174 193.636Z" stroke="white"/>
<path d="M425.614 205.857C420.129 199.759 413.545 191.171 410.307 185.898C408.995 183.762 407.691 181.378 406.783 179.532C406.373 178.7 406.049 177.986 405.84 177.458C405.901 177.498 405.966 177.542 406.034 177.589C406.582 177.966 407.286 178.508 408.074 179.156C409.648 180.451 411.526 182.146 413.095 183.738C418.601 189.322 421.428 193.008 423.828 197.696C425.063 200.108 426.504 203.315 427.593 205.964C428.138 207.289 428.592 208.466 428.887 209.33C428.888 209.334 428.889 209.337 428.89 209.34C428.819 209.269 428.744 209.194 428.667 209.116C427.863 208.306 426.781 207.154 425.614 205.857Z" stroke="white"/>
<path d="M436.794 269.162C411.363 264.133 388.607 256.058 375.283 247.369C371.344 244.8 367.784 241.692 365.388 238.95C364.189 237.577 363.298 236.314 362.794 235.273C362.542 234.752 362.396 234.307 362.348 233.944C362.299 233.582 362.352 233.339 362.449 233.177C362.873 232.474 363.903 231.864 365.726 231.469C367.523 231.078 369.975 230.921 373.066 231.017C385.221 231.394 402.409 237.639 424.414 249.751C427.678 251.548 433.413 254.523 437.164 256.366L443.777 259.615L445.29 264.71C446.152 267.614 447.009 270.388 447.191 270.85L447.656 270.667L447.191 270.85C447.195 270.859 447.198 270.868 447.201 270.876C447.171 270.88 447.135 270.884 447.092 270.887C446.909 270.898 446.648 270.891 446.285 270.857C444.82 270.721 442.002 270.192 436.794 269.162Z" stroke="white"/>
<path d="M410.031 293.816C398.062 293.198 389.042 291.922 383.216 290.043L449.807 281.663L449.806 282.163C449.806 282.163 449.806 282.163 449.807 282.163C450.109 282.163 450.244 282.186 450.344 282.237C450.435 282.284 450.564 282.389 450.745 282.712C451.123 283.386 451.574 284.708 452.436 287.353L454.051 292.311L452.175 292.537C443.968 293.525 419.063 294.282 410.031 293.816Z" stroke="white"/>
<path d="M395.126 332.868C390.789 332.392 387.162 331.87 384.625 331.378C383.354 331.132 382.371 330.896 381.713 330.681C381.387 330.575 381.164 330.481 381.03 330.405C381.04 330.374 381.053 330.338 381.07 330.296C381.126 330.153 381.215 329.975 381.338 329.765C381.584 329.343 381.947 328.825 382.399 328.247C383.303 327.094 384.54 325.74 385.85 324.517C393.169 317.686 405.079 312.32 425.27 306.85C429.171 305.793 431.354 305.232 433.956 304.832C436.565 304.432 439.601 304.192 445.206 303.789C448.452 303.555 451.481 303.359 453.746 303.231C454.879 303.166 455.819 303.119 456.499 303.093C456.839 303.08 457.111 303.072 457.309 303.07C457.395 303.069 457.464 303.069 457.516 303.07C457.569 303.129 457.642 303.223 457.733 303.359C457.923 303.641 458.163 304.053 458.437 304.573C458.985 305.609 459.65 307.033 460.305 308.603L462.518 313.911L458.71 316.407C447.361 323.848 432.816 329.572 419.707 331.759C417.524 332.123 412.246 332.496 407.051 332.73C401.848 332.965 396.821 333.055 395.126 332.868Z" stroke="white"/>
<path d="M411.793 367.312L411.349 367.081L411.793 367.312C411.907 367.093 412.339 366.46 412.976 365.584C413.601 364.724 414.397 363.666 415.212 362.618C419.525 357.071 425.689 350.917 432.004 345.596C438.325 340.271 444.76 335.811 449.611 333.625C454.403 331.466 456.931 330.095 463.455 326.121C464.531 325.465 465.54 324.87 466.299 324.439C466.678 324.223 466.992 324.051 467.218 323.933C467.243 323.92 467.268 323.907 467.291 323.896C467.378 324.017 467.487 324.183 467.614 324.388C467.92 324.885 468.309 325.577 468.703 326.343C469.514 327.918 471.557 331.232 473.246 333.717L476.059 337.854L474.756 338.976C461.57 350.333 450.618 357.848 442.159 361.38C433.815 364.864 422.275 367.397 414.382 367.486C413.544 367.495 412.917 367.499 412.45 367.486C412.11 367.477 411.881 367.458 411.73 367.435C411.748 367.399 411.768 367.358 411.793 367.312ZM467.528 323.783C467.538 323.78 467.536 323.781 467.525 323.784C467.526 323.784 467.527 323.784 467.528 323.783Z" stroke="white"/>
<path d="M430.855 405.079C430.412 405.17 430.05 405.234 429.779 405.269C429.829 405.133 429.893 404.976 429.973 404.797C430.198 404.292 430.532 403.643 430.959 402.879C431.811 401.353 433.016 399.394 434.416 397.247C437.216 392.952 440.778 387.929 443.821 384.143C450.977 375.236 464.443 361.345 470.861 356.24C472.743 354.744 476.426 351.698 479.05 349.471C480.217 348.48 481.093 347.739 481.771 347.193C482.455 346.643 482.912 346.312 483.244 346.128C483.573 345.947 483.712 345.947 483.783 345.96C483.885 345.979 484.001 346.045 484.284 346.254L485.019 346.8L483.305 349.827C482.462 351.318 481.953 352.311 481.666 353.278C481.375 354.258 481.32 355.184 481.328 356.523C481.343 358.859 481.592 360.051 482.455 361.217C483.127 362.126 484.399 363.049 485.703 363.735C487.001 364.419 488.45 364.932 489.512 364.923C489.732 364.921 489.934 364.931 490.104 364.949C489.925 365.195 489.681 365.52 489.383 365.905C488.717 366.765 487.797 367.915 486.784 369.147C481.257 375.863 470.162 387.011 465.585 390.458C460.73 394.114 453.174 398.081 446.353 400.548C443.106 401.722 438.78 403.042 435.264 403.995C433.506 404.471 431.959 404.853 430.855 405.079Z" stroke="white"/>
<path d="M464.73 422.28C467.794 413.18 474.389 400.741 480.2 393.102C481.339 391.604 484.961 387.471 488.25 383.919L493.88 377.84L495.36 379.298C496.091 380.018 496.753 380.541 497.522 380.936C498.288 381.331 499.134 381.585 500.215 381.8C503.1 382.375 507.591 382.106 511.176 381.166C511.669 381.037 512.136 380.944 512.487 380.898C512.461 380.959 512.432 381.025 512.4 381.095C512.184 381.573 511.853 382.213 511.459 382.897C511.055 383.598 510.687 384.284 510.418 384.826C510.284 385.096 510.172 385.336 510.093 385.527C510.054 385.622 510.019 385.711 509.994 385.79C509.978 385.839 509.952 385.925 509.944 386.018C509.941 386.026 509.936 386.036 509.93 386.05C509.904 386.109 509.859 386.194 509.791 386.31C509.656 386.54 509.452 386.853 509.183 387.243C508.646 388.021 507.868 389.076 506.912 390.323C505.003 392.818 502.398 396.067 499.627 399.381C488.609 412.554 479.888 419.26 467.36 424.236C466.199 424.698 465.116 425.117 464.308 425.42C464.079 425.507 463.872 425.583 463.692 425.649C463.723 425.533 463.757 425.405 463.796 425.267C464.008 424.505 464.337 423.447 464.73 422.28Z" stroke="white"/>
<path d="M516.225 401.979L516.274 401.481L516.225 401.979L518.327 402.184L518.383 406.407C518.418 409.008 518.873 413.323 519.397 416.019C519.462 416.354 519.523 416.664 519.58 416.952C519.764 417.876 519.903 418.58 519.978 419.176C520.075 419.942 520.057 420.476 519.898 420.999C519.736 421.534 519.414 422.1 518.829 422.91C518.381 423.529 517.798 424.265 517.045 425.216C516.812 425.511 516.562 425.826 516.295 426.165C511.641 432.069 505.058 438.04 498.421 442.37C497.462 442.996 496.835 443.362 496.447 443.527C496.457 443.45 496.47 443.359 496.485 443.253C496.533 442.929 496.604 442.506 496.691 442.011C496.867 441.023 497.11 439.76 497.378 438.463C499.208 429.621 503.982 417.176 509.662 406.464C510.804 404.309 511.576 402.956 512.13 402.171C512.409 401.775 512.607 401.562 512.742 401.461C512.775 401.436 512.798 401.423 512.812 401.415C513.09 401.515 513.6 401.618 514.167 401.712C514.779 401.812 515.514 401.909 516.225 401.979ZM496.16 443.619C496.16 443.619 496.16 443.619 496.162 443.619C496.16 443.619 496.16 443.619 496.16 443.619ZM496.416 443.846C496.416 443.847 496.416 443.848 496.416 443.848L496.416 443.846ZM512.833 401.407C512.833 401.408 512.83 401.408 512.826 401.409C512.831 401.407 512.833 401.407 512.833 401.407Z" stroke="white"/>
<path d="M605.016 314.715C602.089 313.294 597.348 309.485 592.986 305.333C590.813 303.265 588.749 301.125 587.068 299.178C585.38 297.222 584.104 295.488 583.481 294.227C582.508 292.256 582.004 290.977 581.79 289.163C581.572 287.319 581.651 284.91 581.9 280.674C582.203 275.508 582.687 269.984 582.971 268.389C583.089 267.723 583.147 267.119 583.08 266.517C583.011 265.908 582.818 265.328 582.468 264.698C581.784 263.47 580.475 262.011 578.265 259.73C572.355 253.632 567.24 246.391 563.592 239.311C559.94 232.222 557.783 225.34 557.736 219.951C557.714 217.413 558.935 214.001 561.269 210.072C563.595 206.16 566.99 201.793 571.231 197.359C576.848 191.489 583.186 186.103 588.831 182.182C591.654 180.222 594.296 178.634 596.581 177.534C598.881 176.428 600.766 175.844 602.094 175.832C603.889 175.817 607.287 176.631 611.853 178.169C616.394 179.699 622.023 181.922 628.244 184.671C630.994 185.886 633.621 186.99 635.639 187.791C636.647 188.191 637.507 188.517 638.156 188.743C638.48 188.856 638.757 188.946 638.976 189.008C639.171 189.064 639.384 189.117 639.543 189.115C639.639 189.115 639.739 189.095 639.82 189.076C639.909 189.055 640.011 189.026 640.122 188.991C640.346 188.921 640.63 188.821 640.963 188.695C641.63 188.443 642.516 188.081 643.558 187.638C645.641 186.75 648.358 185.529 651.208 184.187C656.792 181.558 662.254 179.31 666.809 177.716C671.389 176.113 674.984 175.196 676.871 175.18C678.058 175.169 679.865 175.729 682.136 176.811C684.386 177.883 687.027 179.435 689.858 181.338C695.521 185.143 701.91 190.324 707.408 195.794C711.782 200.146 715.129 204.112 717.453 207.683C719.78 211.258 721.062 214.407 721.347 217.132C721.893 222.345 720.144 229.329 716.659 236.745C713.182 244.147 708.003 251.921 701.765 258.696C699.776 260.857 698.523 262.363 697.83 263.589C697.116 264.853 696.977 265.851 697.226 266.96C697.367 267.592 697.582 269.274 697.811 271.507C698.04 273.727 698.28 276.457 698.478 279.16C698.805 283.637 698.931 286.158 698.746 288.063C698.564 289.935 698.081 291.22 697.134 293.226C696.522 294.523 695.262 296.299 693.592 298.299C691.93 300.291 689.886 302.478 687.732 304.591C683.408 308.832 678.699 312.72 675.77 314.173C673.674 315.213 672.637 315.687 671.106 315.77C669.527 315.854 667.422 315.523 663.208 314.819C658.494 314.032 652.242 312.762 649.323 312C645.879 311.102 643.218 310.656 640.481 310.692C637.747 310.728 634.966 311.245 631.286 312.235C628.828 312.897 623.771 314.01 619.112 314.961C616.785 315.436 614.562 315.87 612.82 316.186C611.948 316.344 611.199 316.472 610.618 316.56C610.059 316.646 609.686 316.69 609.506 316.696C609.495 316.694 609.475 316.688 609.443 316.679C609.37 316.656 609.268 316.62 609.137 316.571C608.877 316.472 608.524 316.326 608.103 316.144C607.263 315.779 606.165 315.273 605.016 314.715ZM649.577 293.222C654.017 290.245 658.462 286.563 661.908 283.163C663.631 281.463 665.112 279.826 666.22 278.378C667.315 276.946 668.089 275.646 668.331 274.624C668.776 272.749 668.729 271.032 668.135 269.487C667.542 267.941 666.422 266.613 664.803 265.484C661.584 263.238 656.323 261.727 648.984 260.813C640.872 259.802 632.254 260.351 625.386 261.939C621.953 262.732 618.937 263.79 616.634 265.056C614.348 266.312 612.681 267.818 612.089 269.552C611.401 271.567 611.408 273.449 612.26 275.508C613.1 277.538 614.753 279.72 617.298 282.378C620.184 285.392 625.08 289.263 629.619 292.378C631.892 293.938 634.087 295.316 635.908 296.308C636.819 296.804 637.644 297.208 638.344 297.49C639.027 297.765 639.646 297.947 640.122 297.951C640.53 297.955 641.094 297.793 641.713 297.558C642.352 297.315 643.119 296.966 643.96 296.541C645.642 295.689 647.648 294.514 649.577 293.222ZM614.737 240.297C618.815 239.295 621.556 238.356 623.275 237.185C624.145 236.592 624.771 235.928 625.173 235.152C625.575 234.376 625.734 233.522 625.726 232.579C625.719 231.761 625.566 230.914 625.324 230.202C625.091 229.515 624.742 228.855 624.276 228.516C623.961 228.287 623.236 227.888 622.254 227.384C621.257 226.87 619.955 226.228 618.455 225.503C615.454 224.055 611.65 222.276 607.876 220.548C604.102 218.821 600.356 217.143 597.471 215.898C596.03 215.275 594.8 214.759 593.888 214.399C593.433 214.219 593.052 214.075 592.761 213.976C592.617 213.927 592.488 213.887 592.381 213.858C592.291 213.834 592.165 213.804 592.05 213.805C590.229 213.821 588.899 214.927 588.049 216.563C587.205 218.187 586.799 220.383 586.794 222.767C586.784 227.53 588.378 233.247 591.628 237.051C592.357 237.905 593.25 238.769 594.103 239.477C594.945 240.175 595.792 240.758 596.426 241.008C598.135 241.684 601.019 241.914 604.276 241.782C607.555 241.648 611.287 241.144 614.737 240.297ZM687.248 236.954C690.676 233.138 692.456 227.211 692.571 222.259C692.628 219.781 692.27 217.492 691.449 215.805C690.621 214.104 689.281 212.957 687.407 212.973C687.293 212.974 687.168 213.005 687.074 213.031C686.964 213.061 686.834 213.103 686.688 213.155C686.393 213.259 686.01 213.408 685.552 213.596C684.636 213.971 683.404 214.507 681.962 215.153C679.076 216.445 675.335 218.183 671.568 219.973C667.801 221.763 664.006 223.607 661.011 225.11C659.513 225.861 658.214 226.528 657.217 227.061C656.236 227.586 655.51 228.001 655.193 228.242C653.958 229.179 653.619 230.989 653.844 232.642C654.071 234.314 654.9 236.06 656.297 236.96C658.236 238.21 661.672 239.288 665.458 240.015C669.261 240.745 673.493 241.135 677.064 240.97C680.172 240.826 681.974 240.7 683.367 240.155C684.792 239.597 685.756 238.616 687.248 236.954Z" stroke="white"/>
<path d="M633.02 341.816C624.039 340.936 618.509 339.499 612.469 336.497C609.817 335.178 606.516 332.824 603.871 330.546C602.551 329.408 601.407 328.3 600.597 327.363C600.192 326.893 599.879 326.477 599.67 326.128C599.451 325.763 599.385 325.535 599.384 325.427C599.384 325.408 599.383 325.39 599.383 325.372C599.382 325.184 599.38 325.034 599.385 324.906C599.389 324.816 599.395 324.753 599.402 324.709C599.592 324.721 599.94 324.814 600.573 325.049C601.171 325.272 601.966 325.597 603.034 326.034C603.083 326.054 603.133 326.075 603.184 326.096C605.652 327.106 609.284 327.394 613.953 327.025C618.636 326.654 624.42 325.617 631.23 323.924L640.548 321.607L649.905 323.761C656.762 325.339 662.563 326.276 667.251 326.562C671.925 326.847 675.549 326.49 678.015 325.43C679.036 324.991 680.01 324.648 680.752 324.447C681.126 324.346 681.426 324.286 681.636 324.264C681.658 324.262 681.678 324.26 681.696 324.259C681.697 324.299 681.697 324.347 681.693 324.405C681.679 324.655 681.615 325.004 681.501 325.44C681.273 326.306 680.865 327.435 680.349 328.648C679.313 331.082 677.879 333.766 676.682 335.252C676.208 335.84 675.832 336.285 675.533 336.601C675.383 336.76 675.262 336.875 675.168 336.957C675.162 336.886 675.157 336.803 675.154 336.709C675.143 336.307 675.125 335.911 675.026 335.619C674.973 335.462 674.878 335.281 674.7 335.15C674.514 335.014 674.304 334.98 674.113 334.994C673.776 335.019 673.38 335.203 672.947 335.441C672.49 335.693 671.9 336.06 671.148 336.535C667.7 338.713 661.847 340.4 654.978 341.357C648.125 342.311 640.323 342.531 633.02 341.816ZM681.857 324.26C681.857 324.26 681.853 324.26 681.847 324.258C681.854 324.259 681.857 324.26 681.857 324.26ZM681.679 324.126C681.679 324.125 681.678 324.124 681.678 324.124C681.678 324.124 681.679 324.124 681.679 324.126ZM674.935 337.122C674.935 337.122 674.936 337.121 674.938 337.121C674.936 337.121 674.935 337.122 674.935 337.122Z" stroke="white"/>
<path d="M527.325 151.983L529.414 152.906L529.614 152.452L529.414 152.906C533.203 154.58 552.702 161.965 560.105 164.532L565.328 166.343L562.865 168.882C562.144 169.625 561.601 170.18 561.178 170.584C560.747 170.996 560.471 171.221 560.282 171.332C560.195 171.382 560.149 171.395 560.132 171.398C560.1 171.381 560.026 171.321 559.844 171.101C559.534 170.726 559.221 170.401 558.787 170.101C558.357 169.803 557.829 169.543 557.098 169.27C555.65 168.729 553.318 168.108 549.202 167.061C545.242 166.053 542.838 165.515 541.201 165.444C540.37 165.408 539.705 165.489 539.118 165.707C538.53 165.925 538.057 166.266 537.593 166.691C537.138 167.106 536.758 167.526 536.491 168.066C536.224 168.608 536.087 169.232 536.055 170.034C535.992 171.608 536.328 174.001 536.997 178.07C537.603 181.757 538.166 184.53 538.69 186.389C538.95 187.314 539.209 188.039 539.469 188.541C539.599 188.792 539.742 189.013 539.905 189.178C540.066 189.341 540.295 189.496 540.586 189.5C540.584 189.5 540.582 189.5 540.582 189.5C540.582 189.501 540.605 189.503 540.656 189.518C540.715 189.535 540.791 189.562 540.878 189.599C541.049 189.67 541.245 189.769 541.419 189.877C541.416 189.886 541.412 189.897 541.407 189.909C541.382 189.973 541.336 190.061 541.259 190.18C540.938 190.674 540.232 191.46 538.959 192.771C538.108 193.648 537.302 194.443 536.689 195.017C536.42 195.27 536.192 195.476 536.016 195.627C535.921 195.451 535.805 195.22 535.674 194.94C535.339 194.229 534.917 193.24 534.488 192.148C532.664 187.499 530.886 180.856 529.748 174.423C528.653 168.227 527.38 157.387 527.345 153.996C527.345 153.995 527.345 153.995 527.345 153.995L527.325 151.983Z" stroke="white"/>
<path d="M550.736 181.248C549.642 182.361 549.003 182.999 548.62 183.33C548.469 182.577 548.238 181.216 548.037 179.937C547.917 179.18 547.81 178.46 547.737 177.926C547.725 177.835 547.713 177.75 547.703 177.671C547.8 177.691 547.906 177.713 548.02 177.738C548.583 177.861 549.332 178.038 550.094 178.225C550.856 178.412 551.627 178.609 552.234 178.774C552.467 178.837 552.673 178.895 552.846 178.945C552.795 179.01 552.736 179.084 552.668 179.165C552.269 179.648 551.621 180.347 550.736 181.248Z" stroke="white"/>
<path d="M727.802 179.609L727.802 179.609L725.635 177.469L725.747 177.438L725.747 177.438L728.98 176.544C729.599 176.372 730.177 176.238 730.606 176.158C730.688 176.143 730.763 176.13 730.83 176.12C730.821 176.275 730.806 176.464 730.786 176.68C730.729 177.305 730.632 178.129 730.52 178.961C730.408 179.792 730.283 180.623 730.171 181.263C730.14 181.435 730.111 181.592 730.084 181.73C729.995 181.655 729.896 181.571 729.788 181.476C729.266 181.019 728.561 180.36 727.802 179.609Z" stroke="white"/>
<path d="M739.637 191.137C738.411 189.974 737.544 189.113 737.023 188.547C736.955 188.473 736.894 188.406 736.84 188.345C736.899 188.321 736.957 188.297 737.014 188.271C737.324 188.132 737.652 187.941 737.967 187.727C738.581 187.307 739.211 186.745 739.532 186.214C739.662 185.998 739.772 185.702 739.88 185.321C739.989 184.934 740.105 184.426 740.233 183.768C740.491 182.451 740.808 180.494 741.243 177.613C741.558 175.523 741.843 173.486 742.049 171.887C742.252 170.312 742.385 169.112 742.382 168.736C742.37 167.352 741.74 165.781 740.808 164.951C740.392 164.58 739.791 164.267 739.181 164.048C738.569 163.827 737.894 163.683 737.312 163.688C737.082 163.69 736.652 163.767 736.135 163.877C735.596 163.991 734.904 164.153 734.114 164.347C732.532 164.737 730.544 165.262 728.573 165.804C726.601 166.346 724.643 166.908 723.121 167.372C722.36 167.604 721.705 167.812 721.21 167.983C720.963 168.068 720.751 168.145 720.584 168.212C720.433 168.273 720.275 168.342 720.169 168.415C719.692 168.742 719.049 169.439 718.699 169.99L718.446 170.387L715.642 167.631L712.958 164.992L719.644 162.487C732.197 157.786 743.5 153.256 749.562 150.496C750.155 150.226 750.701 149.991 751.103 149.83C751.113 149.826 751.123 149.822 751.132 149.818C751.128 149.983 751.121 150.176 751.112 150.394C751.081 151.163 751.023 152.225 750.949 153.42C750.802 155.81 750.589 158.721 750.392 160.864C749.397 171.682 747.588 181.271 745.209 188.381C744.769 189.697 744.158 191.306 743.635 192.583C743.373 193.221 743.135 193.77 742.953 194.154C742.942 194.177 742.931 194.199 742.921 194.22C742.742 194.055 742.513 193.844 742.246 193.594C741.569 192.963 740.644 192.093 739.637 191.137Z" stroke="white"/>
<path d="M502.166 469.171L502.088 468.677L502.166 469.171C503.304 468.991 504.535 468.926 505.474 468.96C505.924 468.976 506.287 469.015 506.533 469.068C506.497 469.151 506.455 469.247 506.407 469.353C506.234 469.735 505.994 470.243 505.729 470.782L506.178 471.002L505.729 470.782C501.958 478.466 494.967 496.251 491.96 505.805C488.308 517.41 486.913 524.323 486.717 531.904C486.632 535.182 486.734 537.483 487.273 539.78C487.811 542.073 488.778 544.334 490.382 547.538C496.56 559.882 505.989 573.867 529.247 605.215C530.535 606.951 531.755 608.62 532.683 609.91C533.147 610.556 533.537 611.105 533.825 611.52C534.123 611.948 534.293 612.206 534.337 612.288C534.421 612.442 534.456 612.543 534.468 612.642C534.481 612.743 534.474 612.884 534.41 613.118C534.274 613.612 533.929 614.374 533.24 615.794C532.415 617.492 528.645 623.702 524.848 629.603C515.954 643.428 510.652 652.467 508.839 656.927L508.453 657.876L495.098 657.992C490.9 658.029 487.463 658.027 485.06 657.991C483.858 657.973 482.921 657.946 482.278 657.912C482.021 657.898 481.816 657.883 481.664 657.868C481.664 657.867 481.664 657.865 481.665 657.863C481.699 657.687 481.779 657.444 481.912 657.14C482.176 656.536 482.616 655.763 483.173 654.919C484.286 653.231 485.826 651.323 487.251 650.002C491.384 646.173 498.444 642.591 505.827 640.612C506.604 640.404 507.411 640.141 508.088 639.885C508.745 639.636 509.338 639.373 509.642 639.153C509.833 639.015 510.027 638.798 510.212 638.557C510.405 638.307 510.613 637.998 510.827 637.648C511.257 636.948 511.727 636.062 512.164 635.111C512.971 633.354 515.665 627.723 518.151 622.596L518.293 622.304C519.58 619.651 520.556 617.639 521.257 616.059C521.982 614.427 522.43 613.219 522.62 612.218C522.814 611.194 522.739 610.382 522.433 609.552C522.152 608.788 521.675 608.013 521.091 607.063L521.01 606.931C520.076 605.412 518.149 602.641 516.723 600.762C514.294 597.562 512.19 595.049 497.219 577.463C481.373 558.848 474.261 547.802 472.095 538.631C469.467 527.502 472.869 510.336 481.213 493.172C485.371 484.618 489.542 478.16 493.832 473.597C495.147 472.198 496.304 471.246 497.583 470.567C498.861 469.888 500.289 469.468 502.166 469.171ZM506.78 469.145C506.78 469.145 506.778 469.144 506.775 469.142C506.778 469.144 506.78 469.145 506.78 469.145Z" stroke="white"/>
<path d="M776.683 636.493L777.023 636.127L776.683 636.493C777.433 637.189 778.821 637.727 780.86 638.221C789.088 640.213 796.925 644.352 801.222 648.924C802.098 649.857 803.186 651.339 804.058 652.712C804.493 653.397 804.867 654.044 805.132 654.572C805.238 654.784 805.324 654.972 805.389 655.132C805.251 655.14 805.089 655.149 804.904 655.157C804.205 655.189 803.19 655.221 801.935 655.251C799.424 655.312 795.959 655.367 792.146 655.4L778.581 655.518L776.457 651.428C773.423 645.586 769.78 639.698 762.262 628.477C758.619 623.041 756.149 619.265 754.527 616.625C752.893 613.966 752.153 612.51 751.925 611.689C751.884 611.539 751.834 611.398 751.797 611.293C751.784 611.255 751.772 611.221 751.763 611.194C751.724 611.077 751.712 611.014 751.711 610.955C751.711 610.829 751.764 610.589 752.151 609.941C752.782 608.885 754.134 606.997 756.873 603.173C757.455 602.36 758.099 601.46 758.813 600.462C776.831 575.258 785.568 562.013 791.904 550.284C794.631 545.236 796.917 540.246 797.63 537.747C797.815 537.098 797.931 536.019 797.996 534.743C798.061 533.452 798.076 531.915 798.045 530.322C797.982 527.145 797.735 523.709 797.327 521.551C794.864 508.528 788.528 490.838 779.278 471.113C778.667 469.809 778.111 468.614 777.708 467.739C777.531 467.354 777.383 467.032 777.274 466.79C777.611 466.744 778.087 466.709 778.63 466.69C779.738 466.651 781.059 466.682 781.938 466.799C783.747 467.04 784.987 467.37 786.184 468.044C787.392 468.725 788.589 469.774 790.277 471.513C796.614 478.043 802.686 488.615 807.046 499.639C811.407 510.668 814.02 522.063 813.505 530.227C812.987 538.439 809.637 546.199 801.398 558.044C797.603 563.5 792.367 570.153 782.178 582.462C774.925 591.224 770.214 597.14 767.318 601.246C765.871 603.298 764.866 604.913 764.224 606.214C763.585 607.509 763.283 608.536 763.29 609.401C763.292 609.646 763.388 609.99 763.51 610.352C763.64 610.737 763.826 611.214 764.057 611.758C764.518 612.848 765.167 614.228 765.925 615.714C767.336 618.483 770.096 624.061 772.057 628.106C773.088 630.232 774.084 632.173 774.892 633.648C775.296 634.385 775.656 635.01 775.951 635.485C776.232 635.938 776.488 636.312 776.683 636.493Z" stroke="white"/>
<path d="M785.503 339.198C785.321 339.325 785.163 339.428 785.029 339.508C785.063 339.224 785.11 338.856 785.167 338.424C785.292 337.473 785.466 336.22 785.657 334.895C786.044 332.216 786.465 326.633 786.595 322.478L786.824 315.129L789.873 311.836C795.799 305.434 801.385 296.318 805.549 286.277C808.892 278.216 811.91 268.445 816.416 251.119C821.365 232.088 824.865 219.972 828.87 209.775C832.872 199.587 837.384 191.302 844.37 179.941C852.402 166.881 860.686 155.852 868.57 147.715C869.638 146.612 870.642 145.605 871.468 144.801C871.141 145.358 870.762 145.997 870.337 146.706C868.734 149.382 866.495 153.048 864.005 157.058C853.182 174.49 848.418 182.809 844.734 190.721C840.389 200.05 838.622 205.843 828.015 245.408C815.375 292.557 806.083 316.658 795.7 329.469C793.944 331.634 791.064 334.496 788.617 336.665C787.392 337.751 786.291 338.65 785.503 339.198ZM784.589 339.724C784.587 339.724 784.587 339.724 784.587 339.724L784.589 339.724Z" stroke="white"/>
<path d="M769.452 449.903L769.452 449.903C769.424 447.329 769.249 444.159 769.059 442.853L769.059 442.853L768.897 441.74L772.029 444.09C775.896 446.992 780.404 449.863 785.811 452.871C787.012 453.539 789.111 455.376 790.436 456.944C791.243 457.899 791.837 458.62 792.225 459.138C792.235 459.152 792.245 459.165 792.254 459.178C791.884 459.008 791.411 458.771 790.826 458.468C787.247 456.614 784.163 456.128 777.273 456.239C775.205 456.272 773.689 456.294 772.558 456.205C771.417 456.115 770.773 455.916 770.377 455.59C769.998 455.28 769.758 454.781 769.624 453.852C769.488 452.916 769.472 451.653 769.452 449.903ZM792.706 459.892C792.706 459.892 792.706 459.891 792.705 459.888C792.706 459.891 792.706 459.892 792.706 459.892Z" stroke="white"/>
<path d="M754.571 451.872L754.571 451.872L754.034 451.451L755.152 447.503C755.818 445.152 756.758 441.761 757.24 439.964C757.395 439.39 757.545 438.857 757.68 438.401C757.705 438.522 757.732 438.648 757.759 438.779C757.982 439.871 758.238 441.27 758.444 442.572C758.695 444.157 758.771 445.572 758.795 449.368C758.803 450.687 758.794 451.967 758.772 452.964C758.761 453.463 758.747 453.889 758.73 454.213C758.714 454.533 758.697 454.717 758.686 454.783L757.325 453.845C756.238 453.095 754.998 452.207 754.571 451.872Z" stroke="white"/>
<path d="M792.137 420.577C793.605 421.689 796.84 423.827 798.78 424.967C800.042 425.709 800.839 426.399 804.47 429.969C812.294 437.66 819.288 443.645 826.581 448.884C828.719 450.42 833.575 453.618 835.417 454.702C836.048 455.074 836.826 455.614 837.137 455.888L837.468 455.513L837.137 455.888C837.136 455.888 837.189 455.943 837.323 456.094C837.444 456.23 837.609 456.42 837.814 456.658C838.223 457.132 838.784 457.791 839.451 458.576C840.783 460.147 842.531 462.222 844.306 464.339C847.485 468.128 850.737 472.033 851.854 473.42C851.853 473.42 851.852 473.42 851.851 473.42C851.401 473.583 850.61 473.804 849.333 474.131C846.13 474.951 840.448 475.398 837.235 475.085C831.745 474.55 826.782 473.127 821.427 470.546C816.558 468.2 813.182 465.755 808.211 460.957C805.205 458.055 802.023 454.531 799.35 451.141L797.996 449.424L797.866 446.207C797.674 441.495 797.078 437.61 795.717 432.174C794.806 428.54 793.621 424.636 792.508 421.608L792.039 421.78L792.508 421.608C792.373 421.241 792.247 420.891 792.137 420.577Z" stroke="white"/>
<path d="M762.883 388.025C763.078 388.408 763.266 388.785 763.416 389.094C762.498 388.886 761.561 388.651 761.238 388.548C761.104 388.505 761.027 388.48 760.973 388.457C760.959 388.451 760.949 388.447 760.942 388.443C760.94 388.439 760.937 388.434 760.934 388.428C760.912 388.385 760.886 388.321 760.838 388.2L760.838 388.2L760.756 387.989L761.514 387.003L761.514 387.003L762.008 386.36C762.199 386.698 762.543 387.355 762.883 388.025Z" stroke="white"/>
<path d="M776.579 369.18L776.576 369.18C776.499 369.172 776.32 369.153 776.1 369.13C775.919 369.11 775.71 369.088 775.506 369.067L775.506 369.067C775.11 369.025 774.501 368.935 773.979 368.847C773.854 368.826 773.735 368.805 773.627 368.785C773.763 368.525 773.941 368.193 774.138 367.835C774.545 367.096 774.979 366.294 775.168 365.934C775.248 366.025 775.337 366.126 775.43 366.234C775.817 366.68 776.281 367.236 776.631 367.677C776.942 368.07 777.337 368.608 777.654 369.062C777.689 369.112 777.723 369.161 777.756 369.209C777.752 369.209 777.749 369.209 777.746 369.209C777.275 369.212 776.777 369.201 776.579 369.18Z" stroke="white"/>
<path d="M786.234 351.708C786.308 351.717 786.385 351.726 786.462 351.735C787.234 351.825 788.097 351.913 788.529 351.937L786.234 351.708ZM786.234 351.708C786.418 351.581 786.619 351.443 786.829 351.3L786.829 351.3L788.089 350.444C788.382 350.811 788.893 351.52 789.199 351.975C789.01 351.964 788.777 351.95 788.529 351.937L786.234 351.708ZM788.384 350.014L788.384 350.014L788.384 350.014ZM788.384 350.014L788.383 350.014L788.384 350.014Z" stroke="white"/>
<path d="M827.77 436.52C839.044 445.383 851.366 451.927 860.052 453.715C862.194 454.156 865.425 454.371 868.777 454.357C872.126 454.342 875.554 454.097 878.084 453.632C880.313 453.222 884.139 452.213 886.568 451.394C888.944 450.592 892.202 449.25 894.867 448.035C896.199 447.428 897.375 446.857 898.213 446.405C898.548 446.225 898.821 446.068 899.027 445.937C898.889 445.849 898.723 445.744 898.528 445.624C897.871 445.219 896.918 444.653 895.738 443.968C893.379 442.597 890.123 440.753 886.541 438.767C874.701 432.202 872.874 431.349 866.148 429.215C853.191 425.102 839.947 417.837 827.667 408.116C826.33 407.057 825.098 406.115 824.192 405.451C824.087 405.374 823.987 405.301 823.892 405.233C823.937 405.323 823.984 405.415 824.033 405.509L823.591 405.742L827.77 436.52ZM827.77 436.52L825.828 434.993L827.77 436.52Z" stroke="white"/>
<path d="M876.43 420.799C873.911 420.279 869.884 419.203 867.495 418.413C865.359 417.706 861.733 416.203 858.675 414.828C857.3 414.209 856.047 413.619 855.104 413.143C855.748 413.23 856.5 413.344 857.296 413.477C860.379 413.993 861.886 414.055 863.213 413.603C865.133 412.949 866.555 410.768 866.537 408.633C866.528 407.683 866.165 406.269 865.58 404.61C864.989 402.934 864.152 400.952 863.154 398.842C861.159 394.623 858.508 389.865 855.866 385.978C855.004 384.71 854.219 383.538 853.64 382.659C854.115 382.934 854.666 383.26 855.253 383.615C857.084 384.724 861.212 386.856 864.432 388.359C875.621 393.583 884.603 395.825 896.449 396.348C900.138 396.51 902.01 396.605 903.705 396.925C905.393 397.245 906.914 397.79 909.897 398.889C913.247 400.124 918.793 402.039 922.226 403.147L927.654 404.898L924.435 407.946C919.888 412.252 914.401 415.736 908.727 417.923C902.125 420.467 898.261 421.172 889.167 421.471C882.198 421.7 880.284 421.595 876.43 420.799Z" stroke="white"/>
<path d="M881.378 360.576C881.29 360.411 881.212 360.261 881.146 360.13C881.419 360.143 881.762 360.165 882.162 360.195C883.224 360.273 884.672 360.404 886.248 360.567L886.248 360.567C890.581 361.017 898.095 361.159 905.408 361.049C912.716 360.938 919.878 360.575 923.498 360.002L929.096 359.118L935.454 360.277L935.544 359.785L935.454 360.277C939.004 360.924 945.14 361.926 949.095 362.503L955.154 363.388L952.833 365.287C941.773 374.332 928.383 380.797 913.947 384.059C910.902 384.747 905.933 385.229 901.063 385.418C896.187 385.608 891.483 385.5 888.957 385.033C879.298 383.247 871.173 380.216 861.95 374.953L861.702 375.387L861.95 374.953L860.317 374.02L867.29 374.151C872.962 374.257 876.533 374.226 878.917 373.93C881.322 373.631 882.596 373.055 883.609 372.022L883.252 371.672L883.609 372.022C884.67 370.939 885.205 369.83 885.058 368.378C884.919 366.992 884.161 365.347 882.85 363.155C882.258 362.166 881.738 361.252 881.378 360.576Z" stroke="white"/>
<path d="M890.782 350.188C887.991 349.969 882.542 349.377 878.678 348.874L871.811 347.978L866.792 342.983L862.648 338.859L863.92 338.984C873.631 339.942 884.064 339.64 892.484 338.462C896.694 337.874 900.416 337.064 903.3 336.076C904.741 335.582 905.986 335.039 906.981 334.45C907.971 333.865 908.747 333.214 909.213 332.488C909.714 331.706 910.352 330.063 910.657 328.814L911.128 326.887L917.1 325.307C920.559 324.393 927.195 322.305 931.856 320.666C936.492 319.035 945.401 316.35 951.644 314.702C957.899 313.05 965.798 310.822 969.2 309.748C971.489 309.025 973.008 308.588 973.951 308.391C974.281 308.322 974.519 308.287 974.683 308.276C974.67 308.342 974.653 308.42 974.632 308.508C974.57 308.772 974.475 309.1 974.354 309.481C974.112 310.242 973.768 311.191 973.367 312.212C972.565 314.256 971.546 316.559 970.682 318.183C964.572 329.664 952.077 340.344 939.131 345.133C934.385 346.888 929.168 348.219 923.139 349.21C920.136 349.703 913.92 350.095 907.495 350.29C901.075 350.484 894.498 350.48 890.782 350.188Z" stroke="white"/>
<path d="M494.51 340.776C483.063 331.861 476.083 320.646 466.896 296.211C461.273 281.255 457.707 269.782 446.75 231.389C442.8 217.55 439.726 207.665 437.992 203.237C433.76 192.431 428.351 182.825 414.382 161.268C409.959 154.443 407.424 150.512 406.036 148.287C405.927 148.113 405.826 147.951 405.732 147.798C406.318 148.344 407.001 148.997 407.727 149.703C409.756 151.678 412.1 154.055 413.564 155.671C424.361 167.582 437.711 187.186 445.595 202.712C451.923 215.172 455.879 226.391 462.944 251.96C469.616 276.106 472.76 285.146 478.132 295.574C482.088 303.252 485.696 308.466 491.444 314.812L494.258 317.918L494.516 323.922C494.783 330.111 495.459 336.201 496.42 341.032C496.523 341.551 496.615 342.038 496.689 342.445C496.122 342.021 495.352 341.432 494.51 340.776Z" stroke="white"/>
<path d="M404.044 164.82C404.259 165.159 404.443 165.453 404.59 165.691C404.227 165.69 403.763 165.675 403.256 165.647L403.256 165.647C401.062 165.526 399.181 165.966 397.711 166.972C396.299 167.938 395.311 169.396 394.779 171.27C394.763 171.254 394.746 171.238 394.728 171.221C394.183 170.692 393.205 169.508 391.375 167.242C370.069 140.86 357.201 112.217 353.062 81.9981C351.215 68.5155 351.328 54.9396 353.127 43.0626C354.928 31.1755 358.41 21.0353 363.265 14.3882L365.073 11.9135L367.993 11.8848C368.272 11.8821 368.524 11.8779 368.752 11.8741C369.284 11.8653 369.686 11.8586 370.005 11.8771C370.484 11.9049 370.561 11.9866 370.573 12.0019C370.6 12.0355 370.662 12.1714 370.619 12.7066C370.591 13.0598 370.527 13.5027 370.444 14.0813C370.408 14.3274 370.369 14.5982 370.328 14.897L370.823 14.9655L370.328 14.897C369.39 21.6809 369.027 28.2698 368.954 39.7207C368.834 58.5063 369.834 69.5319 372.872 82.7643C376.483 98.497 383.001 116.434 390.308 130.748L391.887 133.842L391.166 135.232C390.586 136.348 390.282 137.521 390.336 138.915C390.39 140.296 390.795 141.871 391.593 143.799C393.184 147.645 396.393 153.017 401.751 161.253C402.644 162.626 403.456 163.89 404.044 164.82ZM395.043 171.48C395.044 171.48 395.042 171.48 395.039 171.478C395.041 171.479 395.043 171.479 395.043 171.48Z" stroke="white"/>
<path d="M326.959 62.1563L326.529 61.9009L326.959 62.1563C327.28 61.615 327.593 61.1593 327.839 60.8542C327.934 61.0831 328.049 61.3748 328.181 61.7163C328.497 62.5384 328.901 63.6364 329.315 64.8108C332.25 73.1433 336.39 81.6296 341.93 90.6829C343.144 92.6651 343.84 93.8653 344.315 94.9211C344.786 95.9652 345.046 96.8794 345.369 98.298C351.78 126.484 366.067 154.037 386.936 178.49C387.995 179.731 388.932 180.857 389.589 181.672C389.659 181.759 389.725 181.841 389.788 181.92C389.475 181.844 389.125 181.757 388.764 181.664C385.462 180.818 382.496 180.899 380.032 181.905C377.56 182.914 375.642 184.833 374.412 187.563C373.962 188.562 373.699 189.212 373.572 190.138C373.449 191.035 373.454 192.185 373.488 194.186C373.535 196.959 373.757 199.215 374.134 200.5C374.173 200.631 374.21 200.76 374.245 200.885C374.137 200.781 374.023 200.67 373.903 200.554C372.983 199.661 371.724 198.417 370.349 197.037C340.541 167.128 322.438 133.306 319.957 103.055C319.482 97.2702 319.699 86.5564 320.384 81.8157C321.34 75.1898 324.088 66.9883 326.959 62.1563ZM327.623 60.3696C327.621 60.3673 327.621 60.3659 327.621 60.3659C327.62 60.3658 327.621 60.367 327.623 60.3696ZM328.155 60.5183C328.155 60.5184 328.154 60.5192 328.152 60.5205C328.154 60.5189 328.155 60.5183 328.155 60.5183Z" stroke="white"/>
<path d="M302.598 139.479L302.098 139.47L302.598 139.479C302.73 132.708 303.232 129.003 304.639 124.311C304.639 124.311 304.639 124.311 304.639 124.311L305 123.109L310.453 129.205C312.113 131.061 313.689 132.869 314.889 134.285C315.489 134.994 315.993 135.602 316.367 136.069C316.755 136.553 316.97 136.847 317.026 136.949L317.026 136.949C317.336 137.513 318.396 139.876 319.382 142.213C330.619 168.834 351.573 195.909 379.853 220.394C380.03 220.547 380.188 220.685 380.327 220.809C377.915 220.415 374.796 220.231 371.799 220.247C368.385 220.264 365.062 220.542 363.087 221.091C358.546 222.356 354.625 225.038 353.109 228.065L352.809 228.663L349.853 226.276C344.889 222.268 334.237 211.559 330.131 206.449C314.749 187.303 306.069 169.403 303.232 151.074C302.581 146.867 302.488 145.174 302.598 139.479Z" stroke="white"/>
<path d="M305.56 196.494L305.56 196.494L312.41 200.419L315.131 204.258C325.208 218.47 338.838 232.072 352.352 241.397C353.77 242.376 355.579 244.011 356.355 245.001C360.84 250.726 368.819 256.608 379.058 261.793L382.25 263.409L380.849 263.527C375.418 263.986 370.46 265.117 366.371 266.768C362.288 268.416 359.036 270.598 357.064 273.183C356.73 273.62 356.406 274.013 356.155 274.294C356.069 274.389 355.995 274.469 355.934 274.53C355.912 274.52 355.888 274.51 355.863 274.498C355.663 274.406 355.384 274.272 355.044 274.104C354.366 273.768 353.457 273.305 352.483 272.795C339.031 265.76 323.441 253.653 314.998 243.694C306.517 233.691 301.116 221.335 299.332 207.838L298.836 207.904L299.332 207.838C299.124 206.266 298.981 202.729 298.936 199.442C298.914 197.805 298.917 196.24 298.948 195.028C298.963 194.422 298.986 193.908 299.015 193.52C299.03 193.326 299.046 193.168 299.063 193.049C299.064 193.044 299.065 193.038 299.065 193.033C299.216 193.074 299.459 193.165 299.839 193.344C300.838 193.814 302.562 194.776 305.56 196.494ZM356.131 274.614C356.144 274.618 356.147 274.62 356.134 274.616C356.134 274.615 356.133 274.615 356.131 274.614ZM298.913 193.006C298.913 193.006 298.914 193.006 298.915 193.006L298.913 193.006Z" stroke="white"/>
<path d="M295.631 248.727L295.631 248.727L295.677 247.745L307.192 255.116C313.934 259.432 320.813 264.09 322.492 265.47C331.528 272.898 342.433 279.854 353.27 285.104C356.515 286.675 357.762 287.498 359.373 289.086C364.469 294.112 374.603 299.05 384.596 301.432C386.764 301.948 389.98 302.53 392.938 302.981C395.883 303.43 398.628 303.757 399.832 303.748C399.933 303.747 400.026 303.748 400.112 303.749C399.72 303.955 399.171 304.205 398.455 304.502C389.266 308.314 379.502 314.79 375.249 319.944C374.854 320.423 374.47 320.855 374.173 321.162C374.034 321.307 373.919 321.418 373.834 321.493C373.807 321.487 373.776 321.48 373.743 321.473C373.672 321.457 373.59 321.438 373.495 321.417C373.172 321.343 372.719 321.236 372.169 321.105C371.069 320.843 369.583 320.484 367.978 320.089C347.509 315.058 332.686 308.786 321.244 300.35C309.491 291.684 301.291 278.672 297.607 262.789C297.038 260.337 296.515 257.409 296.148 254.792C295.78 252.161 295.576 249.889 295.631 248.727ZM400.841 303.831C400.841 303.831 400.838 303.829 400.832 303.826C400.839 303.829 400.842 303.83 400.841 303.831Z" stroke="white"/>
<path d="M307.669 314.164C313.074 315.987 333.181 321.195 337.954 322.007C338.288 322.064 339.204 322.33 340.45 322.734C341.678 323.131 343.186 323.648 344.675 324.189C351.173 326.546 357.191 328.342 364.925 330.232L370.304 331.547L370.651 333.292C370.928 334.686 371.426 335.9 372.236 336.958C373.046 338.015 374.147 338.891 375.596 339.633C378.475 341.109 382.784 342.088 389.068 342.912C391.719 343.26 397.605 343.42 403.386 343.407C409.163 343.394 414.916 343.207 417.294 342.847C417.935 342.75 418.535 342.667 419.023 342.606C418.846 342.798 418.642 343.016 418.415 343.258C417.518 344.212 416.266 345.518 414.875 346.943C412.738 349.133 411.438 350.423 410.538 351.192C409.644 351.955 409.2 352.156 408.776 352.237C405.061 352.943 393.119 354.398 388.181 354.744C381.577 355.207 369.635 355.288 364.772 354.905C353.916 354.049 344.535 351.737 336.775 348.02C324.378 342.082 314.353 332.423 309.05 321.344L308.599 321.56L309.05 321.344C308.246 319.664 307.431 317.664 306.855 316.049C306.567 315.24 306.343 314.537 306.21 314.023C306.181 313.913 306.157 313.814 306.139 313.727C306.167 313.733 306.198 313.74 306.229 313.747C306.61 313.834 307.121 313.98 307.669 314.164ZM307.669 314.164L307.829 313.69L307.669 314.164Z" stroke="white"/>
<path d="M421.196 377.706L422.26 377.605L422.254 377.609C419.603 379.339 414.359 382.154 410.504 383.914C400.155 388.64 388.729 390.983 379.304 390.334C363.654 389.255 346.577 383.314 334.259 374.667C332.525 373.449 330.442 371.872 328.814 370.576C328 369.928 327.306 369.354 326.828 368.933C326.794 368.904 326.762 368.876 326.732 368.848C326.885 368.819 327.056 368.787 327.244 368.753C328.055 368.606 329.16 368.42 330.361 368.232C332.778 367.853 338.182 366.896 342.373 366.105L342.28 365.614L342.373 366.105C346.722 365.285 349.586 364.843 352.239 364.708C354.886 364.572 357.339 364.742 360.865 365.159C367.66 365.963 386.218 365.789 394.967 364.843C396.736 364.652 398.359 364.496 399.549 364.397C400.038 364.357 400.451 364.327 400.77 364.308C400.708 364.434 400.635 364.577 400.553 364.734C400.203 365.404 399.697 366.314 399.119 367.299C397.339 370.334 396.941 371.246 396.954 372.762C396.963 373.816 397.203 374.731 397.727 375.516C398.248 376.298 399.023 376.911 400.034 377.409C400.724 377.749 401.312 377.926 402.666 378.012C403.991 378.095 406.099 378.093 409.842 378.065C414.366 378.029 419.476 377.869 421.196 377.706L421.149 377.208L421.196 377.706Z" stroke="white"/>
<path d="M357.539 412.357L357.194 412.719L357.539 412.357L354.879 409.815L358.63 408.593C361.144 407.774 366.682 405.749 370.941 404.091L378.602 401.108L385.204 400.784C393.032 400.4 397.595 399.65 404.323 397.637C411.288 395.553 420.144 391.492 427.12 387.188C427.729 386.812 428.303 386.465 428.795 386.175C428.241 387.055 427.481 388.236 426.638 389.522C421.936 396.694 417.884 405.033 416.555 410.324C416.222 411.652 416.139 412.786 416.38 413.799C416.623 414.824 417.185 415.673 418.043 416.45C418.443 416.811 418.85 417.106 419.333 417.314C419.816 417.522 420.351 417.633 420.994 417.662C422.256 417.719 424.007 417.46 426.739 416.941C427.246 416.845 427.732 416.756 428.178 416.679C427.747 416.908 427.267 417.158 426.756 417.42C424.728 418.457 422.238 419.661 420.474 420.424C411.597 424.26 405.2 425.743 396.537 425.981C393.129 426.075 389.774 426.088 389.058 426.016C376.315 424.74 365.652 420.108 357.539 412.357Z" stroke="white"/>
<path d="M385.759 451.324C392.155 454.564 400.875 457.311 407.671 458.23C411.725 458.778 419.11 458.539 422.781 457.745C431.443 455.87 441.47 450.62 452.272 442.257C454.699 440.378 457.183 438.408 457.816 437.862L457.297 437.904C455.522 438.049 453.988 437.661 452.884 436.786C451.771 435.903 451.153 434.571 451.137 432.956C451.137 432.956 451.137 432.956 451.137 432.955L451.637 432.951L385.759 451.324ZM385.759 451.324C385.026 450.953 384.372 450.607 383.912 450.35C383.895 450.341 383.879 450.332 383.863 450.323M385.759 451.324L383.863 450.323M383.863 450.323C384.085 450.186 384.358 450.02 384.679 449.828C385.494 449.34 386.604 448.691 387.913 447.935C390.529 446.423 393.933 444.488 397.343 442.568C400.752 440.649 404.166 438.746 406.802 437.3C408.121 436.577 409.243 435.969 410.072 435.531C410.488 435.312 410.827 435.136 411.08 435.01C411.207 434.947 411.309 434.898 411.387 434.862C411.426 434.844 411.456 434.831 411.48 434.821C411.499 434.813 411.509 434.81 411.511 434.809C411.512 434.809 411.512 434.809 411.511 434.809C421.527 431.721 427.422 429.295 434.496 425.341C442.14 421.07 451.163 414.717 457.913 408.855C458.256 408.558 458.584 408.28 458.879 408.036L383.863 450.323Z" stroke="white"/>
<path d="M438.728 478.384C437.317 478.203 435.53 477.869 434.096 477.547C433.378 477.386 432.757 477.229 432.32 477.098C432.278 477.085 432.237 477.073 432.199 477.061C432.264 476.975 432.338 476.877 432.421 476.769C432.787 476.288 433.319 475.605 433.977 474.768C435.292 473.095 437.107 470.816 439.105 468.335L446.323 459.368L450.118 456.873C458.829 451.146 467.18 444.214 476.26 435.181C480.59 430.872 483.333 428.448 485.368 427.11C487.011 426.028 489.042 424.612 489.883 423.959L489.576 423.564L489.883 423.959C490.07 423.813 490.251 423.677 490.419 423.555C490.409 423.587 490.4 423.621 490.391 423.655C490.178 424.419 489.869 425.464 489.516 426.603C486.972 434.813 485.666 441.626 485.33 448.483C485.237 450.385 485.18 451.311 485.016 451.963C484.864 452.57 484.62 452.939 484.045 453.722C479.221 460.292 472.346 467.194 466.943 470.902C462.607 473.878 455.887 476.694 450.6 477.747C447.11 478.442 441.485 478.74 438.728 478.384Z" stroke="white"/>
<path d="M490.904 462.122C494.231 457.524 495.699 456.14 498.344 454.771C503.332 452.189 507.93 449.089 512.884 444.975C513.48 444.48 513.992 444.083 514.384 443.806C514.347 444.219 514.311 444.754 514.277 445.376C514.206 446.688 514.145 448.401 514.111 450.202C514.051 453.288 514.008 454.907 513.889 455.901C513.831 456.389 513.756 456.702 513.662 456.95C513.569 457.197 513.448 457.402 513.266 457.677L513.683 457.953L513.266 457.677L512.611 458.665L505.767 458.725C502.345 458.755 500.515 458.778 499.204 458.916C497.864 459.056 497.06 459.317 495.7 459.792L495.865 460.264L495.7 459.792C494.135 460.339 492.04 461.341 491.024 462.04C490.983 462.068 490.944 462.095 490.904 462.122Z" stroke="white"/>
<path d="M528.258 449.802L528.737 449.658L528.258 449.802C528.527 450.694 528.771 451.552 528.947 452.217C529.036 452.549 529.107 452.83 529.156 453.041C529.18 453.146 529.198 453.231 529.21 453.293C529.218 453.341 529.221 453.364 529.222 453.369C529.221 453.373 529.218 453.381 529.21 453.395C529.188 453.435 529.133 453.509 529.003 453.634C528.739 453.888 528.267 454.257 527.429 454.877C526.208 455.78 525.45 456.335 524.983 456.664C524.919 456.709 524.861 456.75 524.808 456.787C524.789 456.652 524.766 456.482 524.742 456.286C524.686 455.832 524.621 455.244 524.561 454.634C524.315 452.134 524.394 448.254 524.755 445.233C524.88 444.19 525.144 442.504 525.39 441.088C525.429 440.866 525.467 440.652 525.504 440.448C525.689 441.073 525.907 441.817 526.138 442.612C526.765 444.774 527.719 448.009 528.258 449.802ZM529.222 453.364C529.222 453.364 529.223 453.365 529.222 453.368C529.222 453.366 529.222 453.365 529.222 453.363C529.222 453.363 529.222 453.363 529.222 453.364ZM524.416 457.039C524.406 457.044 524.408 457.042 524.419 457.038C524.418 457.038 524.417 457.039 524.416 457.039ZM524.376 457.215L524.556 457.159L524.376 457.215ZM524.895 457.165C524.895 457.166 524.896 457.167 524.896 457.167C524.896 457.167 524.895 457.167 524.895 457.165Z" stroke="white"/>
<path d="M366.246 10.5882L366.246 10.5882C367.983 8.79779 369.777 7.39138 371.83 6.20943C371.566 7.59435 371.104 10.1985 370.977 11.0524C370.747 10.9381 370.469 10.8999 370.072 10.8806C369.599 10.8575 368.85 10.8608 367.621 10.8775L365.943 10.9003L366.246 10.5882Z" stroke="white"/>
<path d="M504.206 371.61C504.499 371.161 504.965 370.517 505.454 369.876C505.94 369.24 506.421 368.645 506.75 368.278L506.766 368.307L506.766 368.307C506.954 368.653 507.458 369.544 507.886 370.289L507.886 370.289C508.063 370.598 508.224 370.885 508.348 371.115C508.331 371.118 508.314 371.121 508.297 371.124C507.94 371.194 507.461 371.27 506.945 371.342C505.926 371.483 504.805 371.6 504.206 371.61Z" stroke="white"/>
<path d="M492.925 354.52C492.797 354.52 492.651 354.51 492.52 354.493C492.553 354.443 492.588 354.39 492.624 354.335C492.859 353.982 493.152 353.557 493.383 353.24L493.383 353.24C493.432 353.173 493.485 353.109 493.535 353.055C493.58 353.078 493.633 353.107 493.696 353.142C493.966 353.295 494.363 353.542 494.91 353.901C494.91 353.901 494.91 353.901 494.91 353.901L495.441 354.248C495.17 354.287 494.871 354.326 494.57 354.363C493.838 354.453 493.163 354.519 492.925 354.52L492.925 354.52Z" stroke="white"/>
<path d="M518.883 391.239C519.19 391.172 519.848 391.001 520.423 390.837L518.883 391.239ZM518.883 391.239C519.091 390.75 519.453 390.004 519.805 389.327C519.972 389.004 520.133 388.705 520.268 388.465C520.408 388.64 520.572 388.847 520.746 389.067M518.883 391.239L521.47 390.083C521.473 390.068 521.474 390.057 521.475 390.05C521.471 390.04 521.462 390.023 521.447 389.996C521.36 389.848 521.17 389.602 520.746 389.067M520.746 389.067L521.138 388.756L520.746 389.067ZM521.367 390.513C521.374 390.511 521.399 390.501 521.47 390.083L521.367 390.513ZM521.367 390.513C521.367 390.513 521.366 390.513 521.366 390.513M521.367 390.513L521.366 390.513M521.366 390.513C521.346 390.53 521.289 390.566 521.124 390.625M521.366 390.513L521.124 390.625M521.124 390.625C520.962 390.682 520.743 390.745 520.423 390.837L521.124 390.625Z" stroke="white"/>
</g>
<path d="M523.502 467.448H523.5H224.58C202.761 416.529 193.909 360.993 198.818 305.811C203.738 250.52 222.319 197.318 252.893 150.987C283.467 104.656 325.074 66.649 373.975 40.3815C422.877 14.114 477.539 0.409658 533.048 0.500448C588.557 0.591238 643.174 14.4743 691.989 40.9016C740.804 67.329 782.287 105.472 812.709 151.903C843.131 198.334 861.539 251.596 866.277 306.903C871.006 362.101 861.973 417.608 839.987 468.454L523.502 467.448Z" fill="url(#paint1_linear_21_5871)" stroke="white"/>
<path d="M313.5 643.75V641.5L297.5 641.421L289 641.38L256.5 641.22L248 641.178L201.5 640.949L193 640.907L161.5 640.706H152L106.5 640.482L57 640.239L59 570.5H55V566.5H65V559H62.5V556H103.5V559H100.5V566.5H109.5V570.5H59L57 640.239L106.5 640.482L152 640.706V571.5H148V566.5H160V559H156V556H198.5V559H196V566.5H205.5V571.5H201.5V640.949L248 641.178L249 572.5H245.5V568H255V560.5H292V568H301.5V571.5L297.5 572.5V641.421L313.5 641.5H315.5V531V523.5H309V519V518H315.5V515.5H230.5V503.5H315.5V500V491H312.5V487H335.5H339V491H335.5V514.5H383.5V491H381V487H398V468V129.5H396V122.5H422V37.5H419.5V34H422V28H421V26H439V28H438V34H439.5V35.75H478C477.667 35.75 472.2 35.7 453 35.5V18H478V35.75H492V34H494V28.5H492V26H511V28.5H509.5V34H511V37.5H509.5V122.5H537.5V129.5H536L542.161 470.5L542.432 485.5L542.45 486.5H555.5V476.5H554V473H605.5V476.5H604V486.5H626V490.5H623.5V501V503.5H712.5V515L623.5 516V517.212H545V523.25H625L627.974 639L645 638.688L653.5 638.532L652 580.5H683.5V637.981L693 637.807L691.5 570.5H639.5V565.5H649V558.5H686V565.5H694.5V570.5H691.5L693 637.807L740.5 636.935L739.5 569.5H735V564.5L743 564.425V557H740.5V554H782V557H779.5V564.084L788.5 564V569.5H786.5V636.092L834.5 635.211L833 567.5H828.5V563H838V555H835.5V550H876V555H873.5V563H884V567.5H880L882.5 634.33L842.5 635.064L834.5 635.211L786.5 636.092L777.5 636.257L748 636.935H740.5L693 637.807L683.5 637.981L653.5 638.532L645 638.688L627.974 639L628 640H630V642.5H628.5V661H632V662V664.5V667H546V666H521V667H517.5H420V668.5H417.5H391H315.5H311V667V664.5V663.5H315.5V645H313.5V643.75Z" fill="#0E0E52"/>
<path d="M340 512V481H377.5V512H340Z" fill="#0E0E52"/>
<path d="M37.5 515.5V503.5H225.5V515.5H37.5Z" fill="#0E0E52"/>
<path d="M717 515V503.5L896 502V512.5L717 515Z" fill="#0E0E52"/>
<path d="M8.5 640L57 640.239M313.5 641.5V643.75M313.5 641.5H315.5M313.5 641.5L297.5 641.421M395.5 645V641.5M395.5 645H315.5M395.5 645H398M313.5 643.75V645H315.5M313.5 643.75L5 642.5M395.5 641.5V640H398M395.5 641.5H382.5M417.5 640H417M417.5 640V642.5M417.5 640V638.5H434.5M398 640V531M398 640H417M398 531H414.5M398 531H396.5V523.5M414.5 531V518M414.5 531H417M396.5 518V523.5M396.5 518H335.5M396.5 518H398M414.5 518V516.5H434.5V531H417M414.5 518H398M417 531V640M417.5 516C417.1 515.2 417 479.5 417 462.5M417 462.5H413V457H433.5M417 462.5H523M524 516.5V462.5H528V457H506M524 516.5H507.5V531H526.5V529.5M524 516.5H526.5V529.5M527 517C527.714 516.643 536.988 516.791 543 516.945M545 529.5H526.5M545 529.5L546 639.5M545 529.5V523.25M526.5 638.5L525 531.5M526.5 638.5V639.5M526.5 638.5H507.5M396.5 523.5H315.5M315.5 491H312.5V487H335.5M315.5 491H335.5M315.5 491V500M315.5 518H309V519M315.5 518H335.5M315.5 518V515.5M335.5 491H339V487H335.5M335.5 491V514.5M335.5 518V514.5M335.5 514.5H383.5V491M383.5 491H381V487H398M383.5 491H398M398 487V491M398 487V468M398 491V518M335.5 487V478M335.5 478H334V472.5H384V478H383V486.5M335.5 478H382.5M315.5 523.5H309V519M315.5 523.5V531M315.5 641.5H335.5M315.5 641.5V531M335.5 641.5V531H382.5V641.5M335.5 641.5H342.5M382.5 641.5H375.5M5 523.5H308M1 530L315.5 531M8.5 517.5L309 519M60.5 468H398M398 468V129.5M1 500H315.5M315.5 500V503.5M1 503.5H34V515.5H8.5M315.5 503.5H230.5V515.5H315.5M315.5 503.5V515.5M452 413.5V414.5H451M452 413.5H488.5M452 413.5V409M488.5 413.5V414.5H489.5M488.5 413.5V409M452 409V408H431.5V414.5H433.5M452 409H488.5M488.5 409V408H508.5V414.5H506M451 414.5V457M451 414.5H433.5M451 457H433.5M451 457H489.5M433.5 414.5V457M489.5 414.5V457M489.5 414.5H506M489.5 457H506M506 414.5V457M398 129.5H536M398 129.5H396V122.5H422M536 129.5H537.5V122.5H509.5M536 129.5L542.161 470.5M543 516.945C543.72 516.964 544.394 516.982 545 517V517.212M543 516.945L542.45 486.5M439.5 37.5H438M439.5 37.5H492M439.5 37.5V35.75M422 37.5H419.5V34H422M422 37.5V122.5M422 37.5H438M422 122.5H438M438 37.5V122.5M438 122.5H494M492 37.5V35.75M492 37.5H494M439.5 35.75V34H438M439.5 35.75H478M492 35.75V34H494M492 35.75H478M494 37.5V122.5M494 37.5H509.5M494 122.5H509.5M509.5 37.5H511V34H509.5M509.5 37.5V122.5M422 28V34M422 28H438M422 28H421V26H439V28H438M422 34H438M438 28V34M494 34V28.5M494 34H509.5M494 28.5H509.5M494 28.5H492V26H511V28.5H509.5M509.5 28.5V34M478 35.75V18H453V35.5C472.2 35.7 477.667 35.75 478 35.75ZM463 8V11H462V14H459V17.5H471V14H470V11H468V8M443 118V120.5H451M489 118V120.5H480M447.5 120C447.5 120 447 85 447.5 77.5C448 70 457 66 466 66C475 66 483 70.5 483 77.5C483 84.5 483 120 483 120M451 98.5H443V98H489V98.5H480M451 98.5V120.5M451 98.5H455M451 120.5H455M455 98.5V120.5M455 98.5H458.5M455 120.5H458.5M458.5 98.5V120.5M458.5 98.5H462.5M458.5 120.5H462.5M462.5 98.5V120.5M462.5 98.5H466M462.5 120.5H466M466 98.5V120.5M466 98.5H469.5M466 120.5H469.5M469.5 98.5V120.5M469.5 98.5H473M469.5 120.5H473M473 98.5V120.5M473 98.5H476.5M473 120.5H476.5M476.5 98.5V120.5M476.5 98.5H480M476.5 120.5H480M480 98.5V120.5M417.5 642.5V645H398M417.5 642.5H420M526.5 642.5V639.5M526.5 642.5H517.5M526.5 642.5H546M526.5 639.5H546M548 642.5H546M548 642.5V640M548 642.5H628.5M517.5 642.5V660M517.5 642.5H420M546 642.5V661M546 661H521M546 661H550.5M546 639.5H548V640M548 640H558M630 642.5V640H628M630 642.5H628.5M630 642.5L900.5 638M628.5 642.5V661M545 523.25V517.212M545 523.25H625M900.5 520.5L625 523.25M545 517.212H623.5M897 514.5L623.705 517.212H623.5M558 640V531.5H605.5L608 640M558 640H566M608 640H628M608 640H598.5M625 523.25L627.974 639M628 640L627.974 639M542.45 486.5L542.432 485.5L542.161 470.5M542.45 486.5H555.5M542.432 490.5H556.5M556.5 490.5H559V486.5H555.5M556.5 490.5V514C557.7 513.6 587 513.833 601.5 514V490.5M601.5 490.5H600V486.5H604M601.5 490.5H623.5M623.5 490.5H626V486.5H604M623.5 490.5V501M555.5 476.5V486.5M604 476.5H605.5V473H554V476.5H604ZM604 476.5V486.5M623.5 517.212V516M623.5 501H896M623.5 501V503.5M623.5 503.5H712.5V515L623.5 516M623.5 503.5V516M542.161 470.5L891.5 468.5M434.5 638.5C434.5 638.5 433.523 569.09 434.5 554.5C435.477 539.91 452.5 527.5 470 527C487.5 526.5 504.5 537.5 506 554.5C507.5 571.5 507.5 638.5 507.5 638.5M434.5 638.5H447.5M507.5 638.5H495M152 640.706V571.5M152 640.706H161.5M152 640.706L106.5 640.482M152 571.5H148V566.5H160M152 571.5H201.5M201.5 571.5H205.5V566.5H196M201.5 571.5V640.949M201.5 640.949L193 640.907M201.5 640.949L248 641.178M161.5 640.706V582.5H193V640.907M161.5 640.706L193 640.907M160 559V566.5M160 566.5H196M196 559V566.5M249 572.5L248 641.178M248 641.178L256.5 641.22M297.5 572.5H245.5V568H255M297.5 572.5L301.5 571.5V568H292M297.5 572.5V641.421M297.5 641.421L289 641.38M256.5 641.22V582.5H289V641.38M256.5 641.22L289 641.38M255 568V560.5H292M255 568H292M253.5 560.5V556H295V560.5H292M292 560.5V568M59 570.5L57 640.239M57 640.239L106.5 640.482M67.5 640V582.5H96.5L95.5 640M106.5 571.5V640.482M65 559V566.5M65 566.5H55V570.5H109.5V566.5H100.5M65 566.5H100.5M100.5 559V566.5M627.974 639L645 638.688M900.5 634L882.5 634.33M643.5 571.5L645 638.688M645 638.688L653.5 638.532M691.5 570.5H639.5V565.5H649M691.5 570.5H694.5V565.5H686M691.5 570.5L693 637.807M693 637.807L683.5 637.981M693 637.807L740.5 636.935M653.5 638.532L652 580.5H683.5V637.981M653.5 638.532L683.5 637.981M649 565.5V558.5H686V565.5M649 565.5H686M739.5 569.5L740.5 636.935M740.5 636.935H748M743 557V564.425M743 564.425L735 564.5V569.5H786.5M743 564.425L779.5 564.084M779.5 557V564.084M779.5 564.084L788.5 564V569.5H786.5M748 636.935L747 580H777.5V636.257M748 636.935L777.5 636.257M777.5 636.257L786.5 636.092M786.5 569.5V636.092M786.5 636.092L834.5 635.211M833 567.5H828.5V563H838M833 567.5L834.5 635.211M833 567.5H880M834.5 635.211L842.5 635.064M880 567.5H884V563H873.5M880 567.5L882.5 634.33M882.5 634.33L842.5 635.064M870.5 634V578.5H841L842.5 635.064M838 555H835.5V550H876V555H873.5M838 555V563M838 555H873.5M838 563H873.5M873.5 555V563M342.5 641.5V582.5H375.5V641.5M342.5 641.5H375.5M566 640V582.5H598.5V640M566 640H598.5M495 638.5V571.5H447.5V638.5M495 638.5H486M447.5 638.5H455M455 638.5V584H486V638.5M455 638.5H486M451.5 567H449.5V546H493V567H490.5M451.5 567V570.5H459V567M451.5 567H459M459 567H483M483 567V570.5H490.5V567M483 567H490.5M315.5 645V663.5M315.5 663.5H311V664.5M315.5 663.5H391M391 668.5H417.5H420M391 668.5V663.5M391 668.5H315.5H311V667M398 662.5H391V663.5M398 662.5V645M398 662.5H417M521 661H420M521 661V666M420 642.5V661M420 661H417V662.5M420 667H417.5H417V662.5M420 667V668.5M420 667H517.5M420 742V668.5M517.5 667H521V666M517.5 667V696M521 666H546M550.5 661V666H546M550.5 661H632V662M546 666V667M546 692.5V667M546 667H632V664.5M32 662.5L311 664.5M311 664.5V667M28.5 667H311M632 662L796 660M632 662V664.5M632 664.5H815M435 204.5C435.507 198.587 436.277 195.205 439 189M435 204.5C435.512 211.316 436.288 214.871 439 220.5M435 204.5H431M439 189C442.722 183.905 444.827 181.061 451 177.5C456.845 174.61 460.696 173.948 468 173.5M439 189L437 187.5M468 173.5C475.452 173.86 479.085 174.867 485 177.5C489.425 180.621 491.705 182.849 495.5 187.5M468 173.5V171.5M495.5 187.5C500.253 194.929 500.703 198.421 501 204.5M495.5 187.5L496.5 186.5M501 204.5C500.465 210.669 499.276 214.136 495.5 220.5M501 204.5H505.5M495.5 220.5C492.778 224.898 490.433 227.199 485 231C479.812 233.863 476.221 235.04 468 236M495.5 220.5L497.5 222M468 236C461.023 235.682 457.28 234.621 451 231C445.709 227.678 443.033 225.441 439 220.5M468 236V238.5M439 220.5L437 222M464.5 179.5V187.5M466.5 179.5H470.5V181.5L466.5 186.5V187.5H470.5M445 204.5H440.5V201H445V204.5ZM445 204.5V209H440.5M490.5 201H494.5V203L492 204.5V205.5L494.5 207.5V209H490.5M470.5 222H465.5V226M465.5 226V231H470.5V226H465.5ZM445 218L451 214M454.5 228L458.5 220.5M482.5 228L477.5 220.5M492 218L485 214M483.5 196.5L492 191.5M477.5 189L482.5 181.5M458.5 189L454.5 181.5M451 196.5L443 191.5M431 244V250H424.5H443M445 257.5V264.5H455M503 250H490.5V244H503V250ZM503 250H518.5V257.5H500V249.5M413 141.5H443V136.5H424.5M456 148.5V156H477.5M429.5 326.5V320H417.5V326.5H423.5M429.5 326.5H423.5M429.5 326.5H433.5V334.5H423.5V326.5M417.5 355.5H423.5M426 349.5H439V355.5H423.5M423.5 355.5V363.5H415M527.5 378.5V371.5H503V378.5H510M527.5 378.5H510M527.5 378.5H534.5V384H510V378.5M404 181.5H409.5V176M409.5 176H404V168.5H431V176H409.5ZM340 481V512H377.5V481H340ZM37.5 503.5V515.5H225.5V503.5H37.5ZM560.5 492V511H598.5V482H560.5V492ZM717 503.5V515L896 512.5V502L717 503.5ZM156 556V559H198.5V556H156ZM62.5 556H103.5V559H62.5V556ZM740.5 554V557H782V554H740.5ZM468 190.5C458 190.5 452.643 196.345 452.5 204.5C452.355 212.788 460.625 218 468 218C475.375 218 483.5 212.5 483.5 204.5C483.5 196.5 477 190.5 468 190.5Z" stroke="white"/>
<defs>
<linearGradient id="paint0_linear_21_5871" x1="-103.5" y1="627" x2="976" y2="56.5" gradientUnits="userSpaceOnUse">
<stop stop-color="#258FB0"/>
<stop offset="1" stop-color="#3DC8F3" stop-opacity="0"/>
</linearGradient>
<linearGradient id="paint1_linear_21_5871" x1="-103.5" y1="627" x2="976" y2="56.5" gradientUnits="userSpaceOnUse">
<stop stop-color="#258FB0"/>
<stop offset="1" stop-color="#3DC8F3" stop-opacity="0"/>
</linearGradient>
</defs>
</svg>
