<svg width="661" height="832" viewBox="0 0 661 832" fill="none" xmlns="http://www.w3.org/2000/svg">
<rect width="660" height="832" fill="url(#paint0_linear_87_426)"/>
<path d="M277.982 763.467H268.827L268.967 761.111M277.982 763.467V761.111H283.531M277.982 763.467V766.794L287.276 768.457H308.777M283.531 761.111L288.525 657.159L280.895 655.218M283.531 761.111H294.212L298.096 675.87M280.895 655.218L295.599 652.862M280.895 655.218L274.931 758.478M295.599 652.862L294.489 675.87H298.096M295.599 652.862L298.81 599.5M308.777 675.87L306.696 766.794L308.777 768.457M308.777 675.87L310.58 652.03M308.777 675.87H298.096M308.777 768.457L312.106 769.704H321.816L326.81 650.644M326.81 650.644L342.623 646.209M326.81 650.644L318.209 648.288M342.623 646.209L337.491 771.368L340.404 773.308H343.871H347.894H351.639M342.623 646.209V641.358L318.209 648.288M351.639 773.308V750.993M351.639 773.308V774.971M351.639 750.993L347.894 748.359V746.558L349.697 745.172L353.026 743.924M351.639 750.993L599.382 768.457M353.026 743.924H367.453L373.556 599.5L353.026 594.926M353.026 743.924L406.015 747.279M353.026 594.926H346.091M353.026 594.926V614.053M346.091 594.926L314.187 606.568L313.354 619.597M346.091 594.926V621.122M329.584 464.223V436.918L326.532 436.1M329.584 464.223L316.406 473.371V480.578M329.584 464.223L553.052 310.928M316.406 480.578L326.671 487.508M316.406 480.578L590.643 294.018M326.671 487.508V506.636L329.584 507.243M326.671 487.508L660 276M337.213 557.087V580.65L324.868 578.207M337.213 557.087L326.116 554.846M337.213 557.087V540.316M322.093 591.322L323.203 577.878L324.868 578.207M322.093 591.322L309.887 596.589M322.093 591.322L324.174 590.625M374.388 584.253V599.5M374.388 584.253L364.678 583.812M374.388 584.253L376.192 521.605M318.209 648.288L316.406 693.75M298.81 599.5L286.87 603.658M298.81 599.5L303.981 513.566M288.525 523.545L286.87 603.658M288.525 523.545L303.981 513.566M288.525 523.545L277.427 521.605M286.87 603.658L274.931 607.816V618.766H277.427L268.967 761.111M303.981 513.566L304.49 505.111M277.427 521.605L304.49 505.111M277.427 521.605L267.718 513.566M304.49 505.111L305.549 487.508M267.718 513.566L305.549 487.508M267.718 513.566V509.269L305.891 481.826M305.549 487.508L305.891 481.826M305.891 481.826L308.777 433.869L312.383 432.483L318.209 433.869L326.532 436.1M324.174 590.625L346.091 583.283H353.026L362.598 583.718M324.174 590.625L324.868 578.207M326.116 554.846L324.174 554.454V530.337L326.81 530.772M326.116 554.846L326.81 530.772M326.81 530.772L339.294 532.832V509.269L329.584 507.243M329.584 507.243V497.626L341.375 491.666V504.141M342.623 491.666L365.927 497.626M365.927 497.626V513.566M365.927 497.626L376.891 492.637M365.927 513.566L376.192 509.269M365.927 513.566L363.569 514.813L362.598 583.718M362.598 583.718L364.678 583.812M364.678 583.812L365.927 517.031M365.927 517.031L376.192 512.457M365.927 517.031L376.192 521.605M376.192 521.605L376.891 492.637M387.705 465.748H385.486L377.44 469.906L376.891 492.637M387.705 465.748L377.163 745.172L368.146 743.924M387.705 465.748L411.009 469.906M428.903 635.259L408.096 639.14L406.015 747.279M428.903 635.259V639.972M428.903 635.259L430.151 586.61M411.009 469.906L407.125 637.477M411.009 469.906L433.124 456.877M415.032 492.637L412.673 587.303L425.969 583.718M415.032 492.637L432.371 484.182M415.032 492.637L427.238 497.626M432.371 484.182V480.162L412.257 490.003L409.899 591.738L430.151 586.61M432.371 484.182V496.102M432.371 484.182L433.124 456.877M430.151 586.61V582.59M430.151 582.59L425.969 583.718M430.151 582.59L432.371 496.102M427.238 497.626L432.371 496.102M427.238 497.626L425.969 583.718M411.564 642.605L428.903 639.972M411.564 642.605L424.048 646.209M411.564 642.605L409.344 747.489M428.903 639.972L427.932 748.666L434.174 749.061L440.277 749.447L445.549 429.156M424.048 646.209H428.903M424.048 646.209L422.522 746.558V748.323M445.549 429.156L433.758 433.869L433.124 456.877M445.549 429.156L472.598 436.364M472.598 436.364V450.917V626.389M472.598 436.364L506.721 415.989M506.721 442.324L474.401 458.679V575.521L507.209 566.651L507.18 559.721L478.424 568.175V460.758M506.721 442.324V446.759M506.721 442.324V415.989M506.721 446.759L478.424 460.758M506.721 446.759L507.97 753.961M478.424 460.758L489.937 465.748M472.598 626.389L507.429 620.983L507.451 626.389L476.066 631.24M472.598 626.389V750.993V751.667M476.066 631.24L490.076 635.259M476.066 631.24V751.963M490.076 635.259V749.884M490.076 635.259L507.478 632.903L507.97 750.993M490.076 749.884L507.97 750.993M490.076 749.884V752.84M507.97 750.993V753.961M476.066 751.963L472.598 751.667M476.066 751.963L490.076 752.84M631.009 761.665L624.351 761.248M406.015 747.279L409.344 747.489M409.344 747.489L422.522 748.323M422.522 748.323L464.691 750.993L472.598 751.667M490.076 752.84L507.97 753.961M507.97 753.961L526.419 755.116M526.419 755.116L523.09 379.814M526.419 755.116L562.762 754.458V757.392M526.419 755.116L562.762 757.392M523.09 379.814L506.721 389.655V415.989M523.09 379.814L551.11 388.684M551.11 388.684V416.544M551.11 388.684L609.369 357.776M609.369 357.776L607.705 327.699L630.87 313.977M609.369 357.776L610.46 388.684M562.762 757.392L569.281 757.8M562.762 757.392L560.542 611.142L617.97 601.44M569.281 757.8L566.507 616.132M569.281 757.8L584.678 756.26M569.281 757.8L624.351 761.248M566.507 616.132L617.97 607.123M566.507 616.132L580.933 619.736M617.97 607.123V601.44M617.97 607.123V614.33M617.97 601.44L615.612 534.633M580.933 619.736L617.97 614.33M580.933 619.736L584.678 756.26M617.97 614.33L624.351 757.392M584.678 756.26L624.351 757.392M624.351 757.392V761.248M630.87 313.977L649.735 775.387M630.87 313.977L660 324.65M562.068 418.761L577.049 426.246M562.068 418.761L564.288 543.643L577.049 539.485M562.068 418.761L610.671 394.644M577.049 426.246L611.209 409.891M577.049 426.246V539.485M611.209 409.891L610.671 394.644M611.209 409.891L615.396 528.535M577.049 539.485L615.396 528.535M610.46 388.684L556.936 415.989L558.045 550.989L615.612 534.633M610.46 388.684L610.671 394.644M615.612 534.633L615.396 528.535M229.987 761.111L324.451 774.971M229.987 761.111H268.967M229.987 761.111V765.269M324.451 774.971V779.545M324.451 774.971H351.639M324.451 779.545H351.639M324.451 779.545L229.987 765.269M324.451 779.545V783.565M351.639 779.545V774.971M351.639 779.545V783.565H324.451M229.987 765.269H222.774M222.774 765.269L324.451 783.565M222.774 765.269V768.457M324.451 783.565V788L222.774 768.457M222.774 768.457H213.342M137.604 337.817V346.826M137.604 337.817L331.942 396.446L327.642 403.099M137.604 337.817L131.501 349.321V350.846M137.604 346.826L91.4124 755.428M137.604 346.826L327.642 403.099M137.604 346.826L131.501 357.499M327.642 403.099L326.532 436.1M131.501 357.499L91.4124 721.886M131.501 357.499V350.846M131.501 350.846L123.178 349.321L122.167 357.499M82.8121 675.87L122.167 357.499M122.167 357.499H118.323L97.9617 514.813M78.9281 661.871L97.0827 521.605M97.9617 514.813L83.0895 511.348L63.2535 507.883H27.7427L19.2812 509.269L14.1488 511.348L10.1261 514.813L11.9294 518.278M97.9617 514.813L97.0827 521.605M11.9294 518.278L18.0328 516.061L25.2459 514.813L44.9433 513.566L56.0404 514.813L67.9697 516.061L83.0895 518.278L97.0827 521.605M11.9294 518.278L0 603.658M152.585 409.752L154.388 407.95L162.711 415.158L161.047 416.959L152.585 409.752ZM146.898 424.583V427.493L156.053 430.127L157.163 427.493L146.898 424.583ZM148.84 443.848L150.088 446.343L160.214 443.155L158.827 440.383L148.84 443.848ZM161.879 460.619L163.544 462.144L170.202 454.937L167.982 453.135L161.879 460.619ZM180.328 460.619H183.38V470.46H179.634L180.328 460.619ZM194.754 461.312L196.696 459.926L201.967 468.797L199.47 470.46L194.754 461.312ZM205.851 454.244L207.238 452.442L215.145 458.956L213.203 461.312L205.851 454.244ZM210.567 441.076V443.848L220.416 445.512V442.462L210.567 441.076ZM208.487 427.493L209.596 430.127L218.058 427.493L216.393 424.583L208.487 427.493ZM199.054 416.405L200.441 417.93L206.545 411.138L204.603 409.752L199.054 416.405ZM185.876 409.752H188.235V400.743H185.876V409.752ZM172.421 409.752L174.363 409.059L170.202 399.911L167.982 400.743L172.421 409.752Z" stroke="white"/>
<mask id="mask0_87_426" style="mask-type:alpha" maskUnits="userSpaceOnUse" x="32" y="3" width="628" height="429">
<path d="M32 3H660V236.5L372.5 431.5L32 3Z" fill="#D9D9D9"/>
</mask>
<g mask="url(#mask0_87_426)">
<path d="M427.005 246.027L427.005 246.027L426.993 245.879L428.58 245.865L430.398 245.849L431.921 248.836C437.445 259.666 441.999 267.38 447.803 275.738C459.479 292.552 473.2 308.169 488.553 322.119C491.64 324.924 494.078 327.162 495.481 328.474C492.443 326.865 485.411 322.714 481.345 320.1C463.815 308.831 446.794 291.976 437.427 276.63C435.875 274.086 435.417 273.267 434.013 270.509C430.756 264.113 428.947 258.996 427.88 253.195C427.469 250.956 427.319 249.734 427.005 246.027Z" stroke="white" stroke-opacity="0.41"/>
<path d="M560.737 329.887C560.797 329.859 560.86 329.828 560.926 329.796C561.344 329.592 561.868 329.319 562.478 328.989M560.737 329.887L631.836 237.917C632.365 253.956 628.211 266.817 617.611 281.949C608.223 295.35 593.72 309.471 579.228 319.318C573.244 323.384 564.061 328.852 561.017 330.307C561.352 330.004 561.862 329.544 562.478 328.989M560.737 329.887C561.456 329.237 562.882 327.951 564.431 326.557C594.625 299.367 617.266 268.447 630.268 236.643L631.217 234.323L560.737 329.887ZM562.478 328.989C563.38 328.5 564.47 327.886 565.677 327.186C569.716 324.844 575.024 321.57 578.947 318.904C593.393 309.089 607.851 295.01 617.201 281.662C627.749 266.605 631.861 253.849 631.336 237.934L631.258 235.546L630.731 236.833C617.696 268.717 595.005 299.698 564.765 326.928C563.937 327.674 563.145 328.387 562.478 328.989ZM560.262 330.317C560.274 330.306 560.292 330.289 560.316 330.268L560.477 330.55C559.948 330.764 559.83 330.714 560.262 330.317Z" stroke="white" stroke-opacity="0.41"/>
<path d="M494.53 498.936C494.536 498.924 494.542 498.912 494.548 498.899C494.724 498.553 494.969 498.103 495.24 497.634C497.043 494.507 498.782 489.032 499.333 484.783C499.805 481.151 499.648 478.768 498.203 466.754C495.396 443.405 494.54 431.887 494.376 415.295C494.302 407.852 494.275 403.984 494.433 401.16C494.59 398.355 494.929 396.584 495.601 393.329C496.254 390.162 497.519 385.324 498.72 381.167C499.32 379.09 499.902 377.189 500.381 375.757C500.62 375.04 500.832 374.447 501.007 374.009C501.094 373.79 501.169 373.616 501.232 373.489C501.232 373.488 501.233 373.487 501.233 373.485C501.394 373.543 501.617 373.645 501.897 373.793C502.502 374.113 503.303 374.615 504.149 375.22L504.44 374.814L504.149 375.22C509.414 378.991 516.823 383.167 521.173 384.806C526.297 386.735 530.08 387.191 534.2 386.321C536.452 385.846 539.661 384.549 543.131 382.802C546.611 381.049 550.387 378.825 553.781 376.471C555.368 375.371 556.823 374.388 557.889 373.689C558.422 373.34 558.855 373.064 559.156 372.882C559.162 372.879 559.167 372.875 559.173 372.872C559.183 372.897 559.193 372.923 559.204 372.95C559.327 373.263 559.487 373.699 559.673 374.23C560.045 375.291 560.518 376.716 561.017 378.267C562.015 381.371 563.107 384.962 563.681 387.128C566.383 397.341 566.871 401.228 566.934 413.1C567.013 427.884 565.399 453.691 563.343 470.518C561.985 481.63 562.729 487.756 566.4 495.138L568.036 498.426L561.731 498.481C561.357 498.484 561.002 498.488 560.664 498.491C559.159 498.506 558.009 498.518 557.119 498.48C556.009 498.433 555.417 498.309 555.078 498.1C554.799 497.928 554.633 497.658 554.547 497.035C554.475 496.504 554.473 495.816 554.471 494.874C554.471 494.66 554.47 494.433 554.469 494.191C554.445 490.074 555.322 483.6 558.069 467.768C561.062 450.517 561.488 445.526 561.351 429.277C561.227 414.539 560.421 406.561 558.274 399.082C556.913 394.341 555.105 390.8 553.167 388.887C552.196 387.929 551.148 387.337 550.07 387.269C548.971 387.2 547.947 387.68 547.056 388.647C546.257 389.515 545.836 390.455 545.879 391.523C545.921 392.566 546.404 393.655 547.24 394.841C549.329 397.808 550.97 403.581 551.976 411.279C552.98 418.949 553.343 428.445 552.936 438.783C552.513 449.506 552.221 452.039 549.788 465.962C548.836 471.409 547.638 478.769 547.125 482.322C546.87 484.092 546.616 485.721 546.414 486.92C546.313 487.52 546.225 488.009 546.156 488.352C546.13 488.483 546.107 488.59 546.088 488.671C546.046 488.687 545.996 488.705 545.938 488.725C545.716 488.801 545.401 488.902 545.014 489.019C544.243 489.254 543.201 489.551 542.078 489.855C534.486 491.908 526.664 491.871 518.919 489.741C517.424 489.329 516.808 489.051 516.374 488.287C516.139 487.874 515.946 487.294 515.758 486.419C515.571 485.547 515.396 484.42 515.181 482.934C514.973 481.492 513.615 473.988 512.166 466.268C508.879 448.755 508.094 440.277 508.346 425.078C508.477 417.133 508.93 410.896 509.751 406.042C510.573 401.183 511.758 397.748 513.332 395.379C514.908 393.006 515.09 390.394 513.437 388.766C512.503 387.846 511.434 387.464 510.316 387.651C509.226 387.833 508.177 388.541 507.214 389.609C505.288 391.746 503.542 395.505 502.361 400.363C500.377 408.52 500.08 412.821 500.236 430.591L500.236 430.6C500.319 440.082 500.361 444.858 500.894 449.954C501.426 455.047 502.448 460.456 504.48 471.207L504.482 471.218C505.973 479.109 506.955 484.816 507.512 488.951C508.071 493.1 508.196 495.623 507.995 497.17L507.765 498.952L501.005 499.011C499.029 499.028 497.236 499.018 495.938 498.988C495.356 498.974 494.878 498.957 494.53 498.936ZM546.23 488.615C546.239 488.61 546.242 488.609 546.233 488.614C546.232 488.614 546.231 488.614 546.23 488.615ZM559.006 372.494C559.004 372.491 559.003 372.49 559.003 372.49C559.003 372.49 559.004 372.491 559.006 372.494Z" stroke="white" stroke-opacity="0.41"/>
<path d="M463.501 111.972C462.827 111.718 462.27 111.502 461.859 111.336C462.067 111.221 462.317 111.089 462.603 110.943C463.536 110.464 464.828 109.843 466.249 109.185C469.096 107.867 472.437 106.415 474.441 105.674L474.606 105.613C476.806 104.8 478.024 104.35 479.008 103.552C479.989 102.756 480.725 101.625 482.062 99.5696L482.162 99.4163C483.677 97.0869 485.344 95.0761 486.973 93.5539C488.611 92.0239 490.175 91.0199 491.483 90.6507C492.798 90.2793 495.406 90.1209 498.328 90.266C500.443 90.3711 501.747 90.4006 502.824 90.251C503.923 90.0984 504.768 89.7623 505.972 89.1902C511.965 86.3431 519.679 84.8359 527.416 84.7157C535.153 84.5954 542.865 85.8629 548.854 88.5224C550.398 89.2079 551.376 89.6008 552.492 89.7702C553.598 89.9382 554.815 89.8827 556.828 89.7391C560.999 89.4417 563.813 89.7538 566.273 91.106C568.749 92.4667 570.936 94.9172 573.756 99.0716L576.333 102.867L576.424 103.001L576.576 103.056L581.244 104.756C583.796 105.685 587.96 107.428 590.485 108.623L594.023 110.297L586.582 113.027C584.221 113.893 581.983 114.781 580.28 115.515C579.429 115.881 578.705 116.211 578.165 116.483C577.895 116.618 577.664 116.742 577.484 116.85C577.321 116.948 577.146 117.064 577.035 117.189C576.349 117.962 576.097 119.108 576.169 120.187C576.24 121.27 576.645 122.396 577.408 123.147C577.89 123.622 578.34 123.952 578.944 124.09C579.521 124.221 580.183 124.163 581.051 124.016C582.046 123.848 582.471 123.827 582.903 124.008C583.379 124.208 583.908 124.67 584.99 125.716C585.667 126.371 586.209 127.008 586.578 127.562C586.963 128.138 587.111 128.548 587.113 128.767C587.117 129.265 587.295 129.776 587.552 130.242C587.811 130.714 588.166 131.171 588.568 131.571C588.969 131.97 589.427 132.323 589.897 132.578C590.363 132.83 590.872 133.003 591.369 132.999C591.435 132.999 591.574 133.026 591.799 133.124C592.014 133.218 592.269 133.36 592.553 133.544C593.118 133.911 593.761 134.421 594.369 134.977C594.976 135.532 595.535 136.121 595.938 136.639C596.14 136.898 596.296 137.13 596.398 137.325C596.507 137.531 596.531 137.646 596.531 137.684C596.534 138.05 596.681 138.419 596.867 138.739C597.058 139.069 597.317 139.392 597.602 139.676C597.887 139.96 598.21 140.217 598.539 140.405C598.845 140.581 599.198 140.721 599.549 140.73C599.555 140.733 599.564 140.736 599.574 140.741C599.627 140.764 599.702 140.804 599.803 140.865C600.003 140.986 600.265 141.168 600.573 141.402C601.188 141.869 601.957 142.519 602.729 143.237C603.403 143.865 603.905 144.341 604.28 144.733C604.656 145.127 604.881 145.414 605.017 145.662C605.264 146.11 605.259 146.485 605.119 147.42C604.992 148.259 604.952 148.906 605.141 149.502C605.332 150.103 605.734 150.585 606.31 151.152C607.069 151.9 607.834 152.411 608.617 152.613C609.421 152.82 610.198 152.688 610.927 152.236C611.638 151.794 612.291 151.058 612.908 150.072C613.527 149.082 614.13 147.81 614.728 146.26L616.331 142.107L618.148 142.332C620.387 142.609 623.12 143.861 625.66 145.654C628.195 147.443 630.48 149.731 631.845 152.021C635.293 157.803 636.742 164.107 636.836 174.009C636.98 189.042 632.933 207.652 625.015 228.247C611.974 262.169 590.979 291.582 558.849 320.905C544.534 333.97 536.693 343.422 531.348 354.111L530.03 356.747L528.015 352.997C524.842 347.089 519.479 339.913 513.521 333.591C501.239 320.559 484.933 291.3 469.392 254.321C464.873 243.569 456.874 223.062 453.628 213.909C452.928 211.938 452.389 210.533 452.012 209.754C451.917 209.558 451.826 209.389 451.74 209.256C451.669 209.146 451.555 208.982 451.392 208.888C451.297 208.833 451.127 208.769 450.928 208.831C450.735 208.89 450.632 209.032 450.585 209.119C450.499 209.278 450.479 209.471 450.471 209.61C450.436 210.214 450.582 211.475 450.877 213.358C451.176 215.265 451.637 217.867 452.26 221.195C457.448 248.937 470.912 283.326 485.198 305.308C486.325 307.041 487.339 308.647 488.099 309.891C488.084 309.877 488.069 309.862 488.054 309.848C486.752 308.587 484.991 306.821 483.089 304.874C479.282 300.979 474.924 296.377 472.562 293.675C448.653 266.335 432.273 235.852 424.005 203.329C420.911 191.161 420.287 186.719 420.176 176.129C420.086 167.626 420.211 166.089 421.208 162.491C424.074 152.154 430.016 145.687 438.188 143.79L439.875 143.398L441.216 146.92C442.402 150.031 443.826 152.239 445.37 153.308C446.153 153.851 446.99 154.115 447.842 154.021C448.692 153.927 449.487 153.485 450.208 152.751L449.851 152.401L450.208 152.751C450.681 152.268 451.004 151.804 451.155 151.185C451.3 150.591 451.274 149.901 451.165 148.995C451.035 147.925 451.027 147.472 451.238 147.016C451.469 146.517 451.977 145.974 453.123 144.853C453.758 144.231 454.519 143.59 455.23 143.061C455.952 142.525 456.585 142.132 456.972 141.976C458.135 141.507 459.077 140.556 459.539 139.385C459.703 138.971 460.041 138.43 460.501 137.834C460.956 137.245 461.509 136.629 462.078 136.068C462.649 135.506 463.226 135.008 463.727 134.653C463.978 134.475 464.201 134.339 464.388 134.248C464.584 134.153 464.701 134.127 464.751 134.125C465.204 134.11 465.677 133.932 466.109 133.692C466.548 133.449 466.983 133.12 467.367 132.756C467.75 132.392 468.096 131.981 468.348 131.566C468.594 131.162 468.781 130.705 468.777 130.26C468.777 130.194 468.804 130.052 468.907 129.82C469.006 129.599 469.158 129.332 469.362 129.03C469.768 128.428 470.358 127.721 471.07 127.005C472.211 125.858 472.802 125.319 473.302 125.07C473.743 124.85 474.135 124.847 474.994 124.979C475.8 125.103 476.431 125.138 477.021 124.945C477.613 124.751 478.094 124.35 478.655 123.777C479.498 122.918 479.985 121.908 480.056 120.899C480.128 119.883 479.775 118.901 478.999 118.137C478.884 118.023 478.711 117.913 478.535 117.811C478.347 117.703 478.109 117.58 477.833 117.446C477.28 117.178 476.549 116.855 475.695 116.5C473.986 115.79 471.764 114.941 469.44 114.124C467.126 113.311 465.023 112.547 463.501 111.972ZM532.17 291.144C532.53 290.825 532.918 290.218 533.26 289.556C533.612 288.874 533.95 288.067 534.189 287.293C535.137 284.228 538.05 279.474 540.637 276.796C541.619 275.78 544.463 273.451 546.958 271.632C558.175 263.452 563.168 258.173 566.665 250.674C567.495 248.895 568.283 246.385 568.866 243.888C569.448 241.393 569.834 238.866 569.84 237.052C569.842 236.623 570.007 236.105 570.573 235.279C571.142 234.45 572.074 233.365 573.53 231.81C575.947 229.229 577.527 227.372 578.624 225.661C579.73 223.937 580.337 222.374 580.831 220.391C581.284 218.573 581.518 215.829 581.541 212.899C581.564 209.962 581.376 206.799 580.967 204.131L580.459 200.813L583.342 197.602C589.047 191.251 594.447 181.941 597.124 173.843C598.258 170.415 598.489 168.693 598.488 163.867C598.488 161.043 598.483 159.526 598.218 158.247C597.948 156.95 597.412 155.908 596.434 154.03C593.748 148.868 588.902 143.02 583.245 137.722C577.584 132.42 571.078 127.638 565.043 124.621C562.756 123.478 561.431 122.843 560.204 122.514C558.959 122.18 557.834 122.166 555.969 122.198C551.231 122.279 544.904 124.349 534.209 129.238L527.924 132.111L523.452 130.076C518.602 127.868 513.64 125.944 509.404 124.575C505.192 123.213 501.633 122.378 499.62 122.396C497.101 122.418 493.832 123.628 490.28 125.579C486.711 127.538 482.794 130.281 478.962 133.443C471.307 139.76 463.925 147.808 460.317 154.736C456.362 162.331 457.373 171.552 463.195 182.939C465.808 188.048 470.535 194.938 474.211 198.994L476.738 201.781L476.213 206.912C475.613 212.787 475.943 218.138 477.193 222.431C477.629 223.927 478.898 226.065 480.549 228.294C482.211 230.538 484.299 232.926 486.422 234.931C487.417 235.87 487.883 236.375 488.135 236.91C488.38 237.434 488.44 238.031 488.454 239.236C488.54 246.578 492.326 254.702 498.667 261.301C501.048 263.778 505.748 267.686 509.905 270.651C514.53 273.95 517.565 276.441 519.769 278.963C521.964 281.474 523.352 284.033 524.652 287.493C524.981 288.369 525.379 289.24 525.758 289.941C525.947 290.291 526.134 290.606 526.309 290.86C526.476 291.101 526.659 291.331 526.846 291.471C527.579 292.021 528.578 292.227 529.529 292.166C530.482 292.105 531.464 291.771 532.17 291.144Z" stroke="white" stroke-opacity="0.41"/>
<path d="M528.769 276.735C528.449 276.048 527.811 275.179 526.975 274.217C526.131 273.245 525.058 272.148 523.839 271.001C521.399 268.708 518.355 266.196 515.344 264.068C511.974 261.685 507.931 258.575 506.363 257.163C505.003 255.94 503.17 253.81 501.735 251.913C501.022 250.971 500.418 250.101 500.024 249.44C500.393 249.705 500.825 250.043 501.276 250.424C502.877 251.777 505.378 253.23 508.046 254.462C510.718 255.696 513.6 256.727 515.981 257.219C518.279 257.694 523.697 258.118 528.793 258.232C539.159 258.464 545.378 257.587 550.8 255.065C551.693 254.65 552.503 254.3 553.093 254.068C552.92 254.449 552.7 254.913 552.46 255.394C551.961 256.396 551.084 257.474 549.456 258.918C547.829 260.362 545.481 262.146 542.069 264.568C539.75 266.214 537.088 268.514 534.849 270.711C533.729 271.811 532.71 272.889 531.89 273.851C531.076 274.806 530.437 275.673 530.097 276.345C529.858 276.819 529.661 277.152 529.495 277.368C529.393 277.501 529.324 277.56 529.289 277.585C529.273 277.572 529.251 277.551 529.223 277.519C529.104 277.383 528.954 277.135 528.769 276.735ZM529.32 277.607C529.321 277.607 529.318 277.606 529.313 277.603C529.318 277.605 529.32 277.606 529.32 277.607Z" stroke="white" stroke-opacity="0.41"/>
<path d="M517.45 204.955L517.45 204.955C518.708 204.455 521.149 204.002 523.868 203.715C526.573 203.43 529.487 203.315 531.666 203.466C533.906 203.621 536.079 203.892 537.778 204.205C538.628 204.361 539.352 204.526 539.903 204.69C540.178 204.772 540.403 204.851 540.575 204.925C540.575 204.925 540.576 204.925 540.576 204.925C540.562 204.943 540.547 204.961 540.53 204.981C540.288 205.268 539.895 205.666 539.385 206.144C538.369 207.095 536.937 208.318 535.439 209.529C533.941 210.74 532.386 211.931 531.128 212.818C530.497 213.262 529.948 213.625 529.522 213.875C529.308 214 529.133 214.092 528.999 214.151C528.932 214.181 528.887 214.198 528.859 214.206C528.857 214.206 528.855 214.205 528.853 214.204C528.792 214.179 528.704 214.138 528.588 214.078C528.359 213.959 528.05 213.783 527.682 213.56C526.947 213.115 525.998 212.497 525.012 211.816C523.043 210.453 520.261 208.287 518.841 207.012L516.826 205.203L517.45 204.955ZM540.751 204.677C540.751 204.677 540.751 204.678 540.75 204.68C540.751 204.678 540.751 204.677 540.751 204.677Z" stroke="white" stroke-opacity="0.41"/>
<path d="M693.502 272.305C681.431 270.544 671.746 265.809 658.386 255.076C657.158 254.089 656.04 253.15 655.231 252.433C654.826 252.074 654.502 251.775 654.282 251.555C654.217 251.491 654.164 251.436 654.122 251.39C654.128 251.377 654.135 251.362 654.142 251.347C654.219 251.191 654.335 250.979 654.486 250.723C654.786 250.214 655.207 249.559 655.674 248.883L655.263 248.598L655.674 248.883C656.63 247.499 658.078 245.13 658.9 243.605C659.301 242.862 659.705 242.19 660.03 241.709C660.185 241.481 660.315 241.304 660.415 241.185C660.437 241.195 660.46 241.206 660.485 241.218C660.67 241.307 660.921 241.44 661.223 241.609C661.827 241.945 662.611 242.412 663.431 242.927C665.107 243.982 669.063 246.039 672.228 247.506C681.051 251.596 691.611 259.817 698.391 267.882C698.888 268.473 699.337 269.004 699.742 269.483C700.474 270.349 701.06 271.042 701.515 271.6C701.868 272.033 702.135 272.374 702.327 272.645C702.442 272.808 702.522 272.934 702.575 273.03C702.425 273.04 702.226 273.039 701.965 273.033C701.881 273.031 701.791 273.028 701.696 273.026C701.458 273.019 701.189 273.011 700.899 273.009C699.398 272.995 696.065 272.679 693.502 272.305ZM654.057 251.546C654.057 251.546 654.058 251.544 654.059 251.538C654.058 251.543 654.057 251.546 654.057 251.546Z" stroke="white" stroke-opacity="0.41"/>
<path d="M684.205 300.541C676.365 298.453 670.549 296.183 665.135 292.717C659.716 289.247 654.673 284.563 648.4 277.611L643.803 272.517L645.46 271.939C647.85 271.106 649.415 269.656 649.983 267.679C650.544 265.726 650.095 263.376 648.733 260.799C648.16 259.716 647.86 259.043 647.748 258.584C647.695 258.363 647.693 258.22 647.71 258.124C647.725 258.034 647.761 257.956 647.834 257.866C647.946 257.728 648.004 257.692 648.023 257.683C648.024 257.683 648.024 257.683 648.025 257.682C648.028 257.682 648.044 257.683 648.077 257.694C648.16 257.722 648.295 257.795 648.514 257.962C648.727 258.126 648.991 258.355 649.328 258.666C650.234 259.501 652.975 261.75 655.417 263.665C663.93 270.342 675.393 281.873 681.46 289.862C683.205 292.159 685.179 295.013 686.717 297.395C687.487 298.586 688.143 299.655 688.607 300.472C688.839 300.882 689.019 301.222 689.139 301.48C689.179 301.565 689.21 301.638 689.235 301.699C689.141 301.696 689.019 301.684 688.862 301.662C688.087 301.551 686.69 301.203 684.205 300.541Z" stroke="white" stroke-opacity="0.41"/>
<path d="M661.054 316.423C650.86 312.258 643.363 306.281 633.662 294.529C632.191 292.747 630.402 290.228 629.029 288.104C628.342 287.041 627.766 286.087 627.387 285.379C627.273 285.167 627.18 284.981 627.108 284.825C627.11 284.826 627.112 284.826 627.114 284.826C627.499 284.879 628.019 284.973 628.576 285.097C633.334 286.16 637.579 285.513 640.057 283.144L640.881 282.356L645.35 287.079C651.251 293.315 655.247 298.719 658.368 304.669C660.201 308.162 661.763 311.566 662.744 314.084C663.237 315.347 663.576 316.368 663.733 317.06C663.771 317.224 663.796 317.36 663.811 317.471C663.639 317.414 663.424 317.339 663.176 317.249C662.592 317.036 661.837 316.743 661.054 316.423ZM663.824 317.787C663.824 317.787 663.824 317.786 663.825 317.784C663.825 317.786 663.824 317.787 663.824 317.787Z" stroke="white" stroke-opacity="0.41"/>
<path d="M623.949 317.934L623.573 318.238L623.949 317.934L621.535 314.947L622.158 311.265C622.526 309.094 622.825 305.753 622.824 303.82L622.821 300.81L624.581 300.608L624.581 300.608C625.16 300.542 625.745 300.527 626.214 300.556C626.449 300.57 626.646 300.595 626.794 300.626C626.913 300.651 626.969 300.674 626.985 300.681C626.988 300.682 626.99 300.683 626.99 300.683C626.995 300.687 627.005 300.696 627.021 300.713C627.044 300.738 627.074 300.773 627.111 300.819C627.186 300.913 627.277 301.04 627.385 301.201C627.599 301.523 627.865 301.958 628.17 302.487C628.78 303.544 629.533 304.949 630.327 306.503C631.916 309.613 633.658 313.294 634.73 315.936C636.321 319.86 637.645 323.873 638.421 326.887C638.81 328.399 639.057 329.64 639.136 330.487C639.164 330.791 639.168 331.023 639.157 331.189C638.971 331.088 638.724 330.944 638.43 330.765C637.821 330.392 637.031 329.88 636.207 329.317L635.925 329.73L636.207 329.317C632.269 326.629 627.087 321.817 623.949 317.934ZM639.432 331.325C639.435 331.325 639.436 331.326 639.436 331.326C639.436 331.326 639.435 331.326 639.434 331.325L639.432 331.325Z" stroke="white" stroke-opacity="0.41"/>
<path d="M335.118 144.548L335.118 144.548C335.15 144.181 335.184 143.922 335.228 143.735C335.273 143.545 335.317 143.485 335.331 143.47C335.336 143.465 335.339 143.462 335.348 143.458C335.359 143.453 335.385 143.444 335.436 143.438C335.546 143.425 335.715 143.432 335.989 143.469L335.989 143.469C337.119 143.619 338.709 144.233 340.683 145.29C342.645 146.341 344.946 147.807 347.487 149.621C352.567 153.249 358.58 158.25 364.723 164.054L373.538 172.381L375.208 178.185C375.677 179.814 376.087 181.309 376.371 182.404C376.462 182.755 376.54 183.063 376.602 183.321C376.408 183.231 376.185 183.125 375.935 183.004C375.023 182.561 373.779 181.93 372.425 181.218C361.976 175.72 353.568 170.139 347.391 164.658C341.207 159.171 337.293 153.816 335.77 148.776C335.552 148.056 335.369 147.21 335.25 146.429C335.13 145.639 335.083 144.955 335.118 144.548ZM336.053 142.988L336.053 142.987L336.053 142.988Z" stroke="white" stroke-opacity="0.41"/>
<path d="M366.448 153.705C362.301 149.093 357.323 142.601 354.877 138.618C353.887 137.005 352.902 135.204 352.216 133.81C351.997 133.364 351.811 132.965 351.665 132.63C352.043 132.901 352.502 133.258 353.007 133.673C354.195 134.651 355.613 135.931 356.797 137.132C360.959 141.353 363.09 144.132 364.898 147.665C365.831 149.487 366.92 151.911 367.743 153.913C368.057 154.676 368.33 155.373 368.541 155.95C367.963 155.357 367.231 154.575 366.448 153.705Z" stroke="white" stroke-opacity="0.41"/>
<path d="M374.842 201.573C355.604 197.769 338.4 191.662 328.336 185.099C325.363 183.16 322.677 180.815 320.873 178.749C319.968 177.714 319.302 176.768 318.927 175.994C318.74 175.606 318.635 175.282 318.601 175.025C318.566 174.768 318.606 174.615 318.661 174.523C318.954 174.037 319.691 173.584 321.063 173.286C322.409 172.994 324.253 172.875 326.588 172.948C335.755 173.232 348.741 177.946 365.391 187.11C367.863 188.47 372.205 190.723 375.045 192.119L380.002 194.554L381.132 198.359C381.725 200.358 382.318 202.284 382.525 202.88C382.4 202.882 382.233 202.875 382.012 202.854C380.912 202.753 378.787 202.353 374.842 201.573Z" stroke="white" stroke-opacity="0.41"/>
<path d="M334.309 217.379C338.703 218.796 345.516 219.762 354.571 220.229C361.4 220.581 380.24 220.009 386.443 219.261L387.716 219.108L386.54 215.497C385.885 213.488 385.548 212.504 385.269 212.006C385.138 211.772 385.056 211.716 385.017 211.696C384.969 211.672 384.893 211.653 384.665 211.653L334.309 217.379ZM334.309 217.379C331.082 216.338 327.583 214.641 324.97 213.009M334.309 217.379L324.97 213.009M324.97 213.009C323.662 212.192 322.595 211.403 321.9 210.734M324.97 213.009L321.9 210.734M321.9 210.734C321.55 210.397 321.315 210.111 321.185 209.883M321.9 210.734L321.185 209.883M321.185 209.883C321.054 209.652 321.077 209.567 321.077 209.567M321.185 209.883L321.077 209.567M321.077 209.567C321.077 209.567 321.077 209.567 321.076 209.568M321.077 209.567L321.076 209.568M321.076 209.568C321.08 209.558 321.107 209.503 321.201 209.405M321.076 209.568L321.201 209.405M321.201 209.405C321.291 209.313 321.419 209.203 321.59 209.079M321.201 209.405L321.59 209.079M321.59 209.079C321.931 208.83 322.405 208.55 322.984 208.258M321.59 209.079L322.984 208.258M322.984 208.258C324.14 207.674 325.67 207.062 327.286 206.571M322.984 208.258L327.286 206.571M327.286 206.571C329.453 205.913 331.088 205.737 337.362 205.535M327.286 206.571L337.362 205.535M337.362 205.535C347.436 205.212 356.707 206.18 368.639 208.809M337.362 205.535L368.639 208.809M368.639 208.809C371.519 209.443 375.164 210.153 378.26 210.704M368.639 208.809L378.26 210.704M378.26 210.704C379.808 210.979 381.221 211.215 382.335 211.383M378.26 210.704L382.335 211.383M382.335 211.383C383.43 211.548 384.278 211.653 384.665 211.653L382.335 211.383Z" stroke="white" stroke-opacity="0.41"/>
<path d="M343.299 249.783C340.018 249.422 337.278 249.028 335.362 248.657C334.402 248.471 333.664 248.293 333.173 248.133C332.997 248.076 332.864 248.024 332.77 247.981C332.81 247.884 332.872 247.762 332.957 247.617C333.139 247.304 333.41 246.916 333.75 246.482C334.43 245.614 335.362 244.594 336.349 243.673C341.865 238.525 350.852 234.47 366.129 230.331C369.082 229.532 370.728 229.109 372.689 228.808C374.658 228.505 376.95 228.324 381.193 228.019C383.649 227.842 385.941 227.694 387.654 227.597C388.511 227.548 389.222 227.512 389.735 227.493C389.992 227.483 390.197 227.477 390.345 227.475C390.382 227.475 390.415 227.475 390.444 227.475C390.475 227.514 390.515 227.568 390.564 227.64C390.704 227.849 390.883 228.156 391.09 228.548C391.502 229.328 392.004 230.402 392.499 231.588L394.134 235.511L391.338 237.345C382.763 242.967 371.772 247.293 361.868 248.944C360.224 249.219 356.237 249.501 352.305 249.678C348.364 249.856 344.57 249.923 343.299 249.783Z" stroke="white" stroke-opacity="0.41"/>
<path d="M356.4 275.98C356.252 275.976 356.135 275.969 356.043 275.962C356.162 275.762 356.463 275.324 356.892 274.733C357.365 274.084 357.966 273.284 358.582 272.492C361.839 268.303 366.498 263.652 371.272 259.629C376.052 255.601 380.912 252.234 384.568 250.587C388.201 248.95 390.118 247.91 395.058 244.901C395.871 244.406 396.634 243.956 397.207 243.63C397.472 243.48 397.693 243.358 397.859 243.271C397.911 243.347 397.971 243.441 398.039 243.55C398.268 243.922 398.561 244.443 398.858 245.021C399.475 246.22 401.025 248.732 402.304 250.614L404.372 253.655L403.467 254.434C393.492 263.026 385.216 268.703 378.832 271.368C372.53 274 363.812 275.913 357.857 275.98C357.222 275.987 356.75 275.989 356.4 275.98ZM355.761 275.918C355.76 275.917 355.759 275.917 355.759 275.917C355.759 275.917 355.76 275.917 355.761 275.918Z" stroke="white" stroke-opacity="0.41"/>
<path d="M370.3 304.431C370.068 304.479 369.867 304.516 369.699 304.543C369.72 304.494 369.743 304.442 369.767 304.386C369.936 304.009 370.186 303.522 370.508 302.945C371.152 301.793 372.062 300.313 373.12 298.69C375.237 295.442 377.931 291.644 380.23 288.783C385.643 282.047 395.827 271.542 400.675 267.686C402.1 266.552 404.889 264.247 406.875 262.561C407.758 261.811 408.42 261.251 408.932 260.839C409.449 260.423 409.787 260.178 410.029 260.045C410.265 259.914 410.341 259.928 410.356 259.931L410.356 259.931C410.4 259.939 410.467 259.97 410.684 260.131L411.154 260.48L409.91 262.678C409.272 263.805 408.88 264.568 408.659 265.315C408.434 266.074 408.392 266.789 408.398 267.805C408.409 269.581 408.599 270.515 409.275 271.429C409.8 272.139 410.781 272.847 411.774 273.37C412.761 273.89 413.88 274.29 414.714 274.283C414.791 274.282 414.864 274.284 414.933 274.287C414.818 274.441 414.679 274.624 414.519 274.83C414.017 275.48 413.321 276.349 412.555 277.281L412.941 277.598L412.555 277.281C408.376 282.359 399.986 290.788 396.533 293.388C392.87 296.146 387.163 299.143 382.01 301.007C379.558 301.894 376.287 302.892 373.629 303.612C372.299 303.973 371.131 304.261 370.3 304.431Z" stroke="white" stroke-opacity="0.41"/>
<path d="M396.075 317.606C398.389 310.732 403.374 301.33 407.763 295.561C408.622 294.432 411.359 291.308 413.848 288.62L418.023 284.111L419.054 285.127C419.612 285.677 420.124 286.082 420.72 286.388C421.313 286.694 421.966 286.889 422.79 287.053C424.996 287.492 428.413 287.286 431.139 286.572C431.414 286.5 431.676 286.443 431.899 286.405C431.738 286.755 431.499 287.214 431.217 287.703C430.91 288.235 430.63 288.756 430.426 289.169C430.324 289.375 430.238 289.559 430.177 289.707C430.146 289.781 430.119 289.852 430.098 289.916C430.087 289.951 430.066 290.017 430.057 290.095C430.056 290.097 430.056 290.098 430.055 290.1C430.037 290.139 430.006 290.199 429.955 290.285C429.856 290.455 429.703 290.69 429.5 290.984C429.095 291.57 428.508 292.366 427.785 293.31C426.341 295.196 424.372 297.653 422.275 300.16C413.946 310.118 407.363 315.178 397.905 318.935C397.027 319.284 396.208 319.601 395.598 319.83C395.512 319.863 395.43 319.893 395.353 319.922C395.358 319.902 395.364 319.881 395.37 319.86C395.53 319.287 395.778 318.489 396.075 317.606ZM430.067 290.07C430.067 290.07 430.066 290.072 430.064 290.078C430.066 290.073 430.067 290.07 430.067 290.07Z" stroke="white" stroke-opacity="0.41"/>
<path d="M434.917 302.325L434.917 302.325L436.4 302.47L436.441 305.557C436.467 307.533 436.812 310.805 437.21 312.853C437.26 313.108 437.306 313.344 437.35 313.563C437.488 314.26 437.593 314.787 437.649 315.234C437.721 315.804 437.706 316.189 437.592 316.563C437.476 316.948 437.242 317.363 436.801 317.973C436.464 318.439 436.025 318.993 435.456 319.712C435.279 319.935 435.089 320.175 434.886 320.433C431.373 324.89 426.401 329.399 421.39 332.669C420.812 333.046 420.4 333.294 420.114 333.44C420.15 333.199 420.202 332.886 420.266 332.521C420.399 331.774 420.583 330.819 420.786 329.839C422.168 323.162 425.775 313.755 430.07 305.655C430.935 304.024 431.516 303.006 431.929 302.42C432.137 302.125 432.277 301.977 432.364 301.912C432.594 301.985 432.961 302.058 433.352 302.122C433.818 302.199 434.377 302.273 434.917 302.325ZM419.735 333.595C419.735 333.595 419.736 333.595 419.737 333.595L419.735 333.595ZM432.275 301.881L432.275 301.881L432.275 301.881Z" stroke="white" stroke-opacity="0.41"/>
<path d="M502.177 236.057C499.98 234.99 496.404 232.119 493.103 228.978C491.461 227.415 489.902 225.799 488.633 224.329C487.356 222.85 486.399 221.548 485.935 220.607C485.201 219.12 484.827 218.168 484.667 216.815C484.504 215.432 484.563 213.62 484.751 210.412C484.981 206.502 485.347 202.328 485.56 201.129C485.651 200.62 485.696 200.15 485.643 199.678C485.589 199.199 485.437 198.744 485.166 198.256C484.639 197.309 483.636 196.194 481.966 194.471C477.502 189.864 473.638 184.395 470.883 179.047C468.124 173.69 466.5 168.502 466.465 164.451C466.448 162.563 467.359 160.005 469.122 157.038C470.876 154.087 473.439 150.789 476.644 147.439C480.889 143.002 485.679 138.932 489.944 135.97C492.077 134.488 494.071 133.29 495.792 132.462C497.53 131.626 498.936 131.194 499.913 131.186C501.248 131.174 503.801 131.783 507.259 132.948C510.69 134.104 514.947 135.785 519.652 137.864C521.735 138.784 523.724 139.621 525.253 140.227C526.016 140.53 526.669 140.778 527.163 140.95C527.409 141.035 527.621 141.104 527.79 141.152C527.934 141.193 528.112 141.239 528.253 141.238C528.34 141.237 528.427 141.22 528.489 141.205C528.56 141.188 528.641 141.165 528.727 141.138C528.899 141.085 529.116 141.008 529.369 140.912C529.877 140.72 530.549 140.446 531.338 140.11C532.916 139.438 534.974 138.512 537.132 137.497C541.355 135.509 545.484 133.809 548.926 132.604C552.394 131.391 555.097 130.704 556.502 130.692C557.371 130.684 558.716 131.097 560.433 131.914C562.128 132.722 564.122 133.894 566.261 135.332C570.54 138.207 575.369 142.123 579.524 146.257C582.831 149.547 585.358 152.541 587.11 155.234C588.865 157.931 589.825 160.296 590.038 162.331C590.447 166.244 589.134 171.505 586.501 177.109C583.875 182.699 579.963 188.572 575.25 193.69C573.745 195.325 572.788 196.474 572.256 197.416C571.702 198.395 571.591 199.181 571.786 200.053C571.891 200.523 572.053 201.788 572.227 203.48C572.399 205.159 572.581 207.223 572.731 209.268C572.978 212.659 573.073 214.555 572.934 215.985C572.798 217.381 572.439 218.339 571.725 219.852C571.269 220.819 570.323 222.153 569.061 223.665C567.807 225.169 566.263 226.821 564.635 228.417C561.363 231.627 557.811 234.557 555.613 235.647C554.025 236.435 553.262 236.782 552.131 236.843C550.953 236.906 549.377 236.659 546.181 236.125C542.616 235.529 537.888 234.569 535.684 233.994C533.073 233.313 531.047 232.973 528.96 233C526.876 233.028 524.761 233.422 521.972 234.172C520.116 234.672 516.292 235.513 512.766 236.233C511.006 236.592 509.325 236.921 508.007 237.159C507.348 237.279 506.782 237.375 506.344 237.442C505.937 237.505 505.668 237.537 505.535 237.543C505.528 237.541 505.519 237.539 505.509 237.536C505.458 237.52 505.383 237.494 505.285 237.457C505.091 237.383 504.826 237.273 504.508 237.136C503.874 236.86 503.045 236.478 502.177 236.057ZM535.913 220.002C539.28 217.745 542.649 214.953 545.263 212.375C546.569 211.086 547.694 209.843 548.537 208.741C549.367 207.656 549.966 206.654 550.156 205.855C550.498 204.417 550.463 203.092 550.003 201.895C549.544 200.698 548.678 199.675 547.437 198.81C544.976 197.093 540.97 195.947 535.412 195.254C529.259 194.487 522.722 194.904 517.511 196.108C514.906 196.71 512.612 197.514 510.856 198.479C509.118 199.434 507.824 200.593 507.361 201.949C506.831 203.5 506.836 204.955 507.493 206.542C508.137 208.1 509.401 209.764 511.33 211.779C513.523 214.068 517.235 217.003 520.673 219.362C522.395 220.544 524.06 221.589 525.443 222.343C526.135 222.719 526.763 223.027 527.299 223.243C527.819 223.453 528.305 223.598 528.69 223.601C529.023 223.604 529.469 223.474 529.937 223.296C530.427 223.11 531.011 222.844 531.649 222.521C532.927 221.873 534.45 220.982 535.913 220.002ZM509.509 179.967C512.595 179.209 514.689 178.494 516.009 177.594C516.681 177.137 517.17 176.62 517.485 176.011C517.801 175.402 517.924 174.736 517.917 174.007C517.912 173.375 517.794 172.721 517.607 172.17C517.428 171.644 517.154 171.115 516.77 170.835C516.522 170.655 515.964 170.349 515.224 169.968C514.468 169.579 513.482 169.092 512.346 168.544C510.074 167.447 507.194 166.101 504.338 164.793C501.482 163.486 498.646 162.216 496.462 161.273C495.37 160.802 494.438 160.411 493.747 160.137C493.402 160 493.111 159.891 492.889 159.815C492.778 159.778 492.678 159.746 492.593 159.724C492.525 159.705 492.415 159.678 492.31 159.679C490.873 159.692 489.832 160.567 489.175 161.832C488.524 163.084 488.216 164.767 488.212 166.582C488.204 170.209 489.416 174.566 491.899 177.472C492.456 178.123 493.136 178.782 493.787 179.322C494.426 179.852 495.079 180.303 495.578 180.5C496.896 181.022 499.101 181.194 501.568 181.094C504.057 180.993 506.89 180.61 509.509 179.967ZM564.444 177.4C567.062 174.485 568.416 169.969 568.504 166.201C568.547 164.315 568.275 162.561 567.642 161.261C567.002 159.947 565.953 159.037 564.473 159.049C564.369 159.05 564.261 159.078 564.189 159.098C564.103 159.121 564.001 159.155 563.889 159.194C563.664 159.274 563.371 159.388 563.024 159.53C562.329 159.815 561.395 160.221 560.303 160.71C558.118 161.688 555.286 163.004 552.435 164.359C549.584 165.714 546.711 167.109 544.443 168.247C543.31 168.816 542.326 169.321 541.57 169.725C540.83 170.121 540.272 170.44 540.022 170.63C539.036 171.378 538.782 172.804 538.954 174.072C539.129 175.36 539.768 176.719 540.865 177.426C542.353 178.385 544.972 179.204 547.841 179.755C550.726 180.309 553.938 180.605 556.653 180.48C558.998 180.371 560.384 180.276 561.461 179.854C562.57 179.42 563.317 178.656 564.444 177.4Z" stroke="white" stroke-opacity="0.41"/>
<path d="M523.327 256.554C516.541 255.89 512.371 254.805 507.817 252.541C505.822 251.549 503.333 249.775 501.336 248.054C500.339 247.196 499.479 246.362 498.871 245.658C498.567 245.306 498.335 244.996 498.182 244.741C498.018 244.468 497.983 244.32 497.982 244.271C497.982 244.258 497.982 244.244 497.982 244.231C497.981 244.088 497.98 243.977 497.983 243.883C497.984 243.878 497.984 243.873 497.984 243.868C498.127 243.897 498.357 243.967 498.718 244.101C499.169 244.268 499.769 244.514 500.578 244.845C500.615 244.86 500.653 244.876 500.69 244.891C502.585 245.667 505.357 245.883 508.896 245.603C512.449 245.322 516.833 244.535 521.99 243.253L529.013 241.507L536.066 243.13C541.259 244.325 545.656 245.036 549.213 245.253C552.756 245.469 555.522 245.2 557.414 244.387C558.183 244.056 558.914 243.799 559.47 243.649C559.696 243.587 559.883 243.547 560.026 243.525C560.012 243.701 559.967 243.945 559.887 244.251C559.716 244.899 559.41 245.748 559.021 246.663C558.238 248.501 557.158 250.52 556.262 251.632C555.904 252.076 555.622 252.41 555.399 252.646C555.372 252.675 555.345 252.702 555.321 252.727C555.312 252.452 555.294 252.167 555.22 251.947C555.174 251.814 555.092 251.652 554.93 251.533C554.76 251.408 554.569 251.38 554.404 251.392C554.12 251.412 553.798 251.565 553.472 251.745C553.123 251.937 552.673 252.217 552.104 252.576C549.518 254.21 545.109 255.484 539.916 256.207C534.739 256.928 528.844 257.095 523.327 256.554ZM497.838 243.851C497.838 243.851 497.839 243.851 497.84 243.851L497.838 243.851ZM560.248 243.508C560.258 243.51 560.256 243.51 560.246 243.508C560.246 243.508 560.247 243.508 560.248 243.508ZM560.023 243.326C560.023 243.324 560.023 243.323 560.023 243.323C560.023 243.323 560.023 243.324 560.023 243.326Z" stroke="white" stroke-opacity="0.41"/>
<path d="M444.861 113.825L444.861 113.825C447.734 115.094 462.494 120.684 468.097 122.627L471.869 123.935L470.138 125.72C469.592 126.282 469.183 126.7 468.865 127.005C468.539 127.316 468.339 127.478 468.209 127.553C468.198 127.56 468.187 127.565 468.179 127.57C468.152 127.544 468.106 127.495 468.033 127.406C467.794 127.118 467.549 126.863 467.208 126.626C466.872 126.393 466.462 126.192 465.904 125.984C464.8 125.572 463.027 125.1 459.915 124.308C456.923 123.546 455.09 123.136 453.836 123.081C453.196 123.053 452.676 123.116 452.213 123.287C451.747 123.46 451.376 123.728 451.018 124.056C450.669 124.375 450.369 124.705 450.158 125.133C449.945 125.563 449.84 126.053 449.815 126.671C449.766 127.878 450.024 129.702 450.529 132.777C450.988 135.569 451.415 137.672 451.813 139.086C452.011 139.789 452.209 140.346 452.412 140.738C452.513 140.932 452.628 141.112 452.764 141.249C452.895 141.382 453.092 141.52 453.349 141.529C453.354 141.53 453.366 141.532 453.385 141.538C453.424 141.549 453.476 141.568 453.54 141.594C453.634 141.634 453.74 141.685 453.84 141.742C453.824 141.772 453.802 141.809 453.772 141.856C453.537 142.217 453.013 142.803 452.047 143.798C451.404 144.46 450.795 145.061 450.333 145.494C450.185 145.633 450.054 145.753 449.943 145.851C449.888 145.744 449.826 145.617 449.758 145.472C449.506 144.937 449.188 144.192 448.864 143.367C447.487 139.858 446.143 134.839 445.283 129.976C444.455 125.29 443.493 117.094 443.467 114.537C443.467 114.537 443.467 114.537 443.467 114.537L443.453 113.203L444.861 113.825ZM468.136 127.589C468.136 127.589 468.137 127.588 468.138 127.588L468.136 127.589Z" stroke="white" stroke-opacity="0.41"/>
<path d="M460.96 135.077C460.266 135.784 459.817 136.233 459.524 136.504C459.412 135.916 459.26 135.011 459.124 134.152C459.034 133.579 458.953 133.035 458.898 132.632C458.897 132.625 458.896 132.617 458.895 132.61C458.918 132.615 458.942 132.62 458.966 132.625C459.39 132.718 459.956 132.851 460.532 132.993C461.108 133.134 461.69 133.283 462.148 133.407C462.251 133.435 462.347 133.461 462.434 133.486C462.428 133.494 462.422 133.501 462.416 133.509C462.117 133.87 461.629 134.396 460.96 135.077ZM462.708 133.11C462.708 133.11 462.708 133.111 462.707 133.112L462.708 133.11Z" stroke="white" stroke-opacity="0.41"/>
<path d="M595.13 133.836L595.13 133.836L593.64 132.364L595.968 131.72C596.434 131.591 596.868 131.49 597.189 131.431C597.194 131.43 597.199 131.429 597.204 131.428C597.198 131.508 597.19 131.598 597.182 131.694C597.138 132.165 597.065 132.787 596.981 133.415C596.896 134.043 596.802 134.671 596.717 135.153C596.708 135.203 596.699 135.252 596.691 135.299C596.67 135.281 596.649 135.263 596.627 135.244C596.235 134.9 595.703 134.403 595.13 133.836Z" stroke="white" stroke-opacity="0.41"/>
<path d="M589.199 125.351C588.823 125.609 588.325 126.149 588.053 126.577L588.427 126.816L588.053 126.577L587.942 126.751L585.928 124.771L584.032 122.907L588.914 121.079C598.413 117.521 606.971 114.092 611.562 112.001C611.939 111.829 612.291 111.677 612.573 111.56C612.57 111.637 612.567 111.72 612.563 111.808C612.54 112.389 612.496 113.192 612.44 114.096C612.329 115.904 612.168 118.106 612.019 119.726C611.267 127.906 609.898 135.153 608.102 140.522C607.77 141.515 607.309 142.73 606.914 143.694C606.737 144.123 606.576 144.498 606.447 144.778C606.335 144.674 606.204 144.553 606.058 144.417C605.546 143.939 604.847 143.281 604.084 142.558C603.157 141.678 602.503 141.029 602.112 140.604C602.104 140.595 602.096 140.587 602.088 140.578C602.324 140.47 602.57 140.326 602.805 140.166C603.276 139.844 603.769 139.407 604.025 138.983C604.132 138.806 604.219 138.569 604.302 138.278C604.386 137.98 604.474 137.592 604.571 137.093C604.767 136.093 605.007 134.61 605.336 132.43C605.575 130.847 605.791 129.305 605.947 128.094C606.1 126.907 606.202 125.988 606.2 125.693C606.19 124.618 605.703 123.393 604.968 122.738C604.638 122.444 604.167 122.201 603.697 122.031C603.225 121.862 602.699 121.748 602.24 121.752C602.052 121.754 601.713 121.816 601.326 121.897C600.916 121.984 600.39 122.107 599.792 122.255C598.593 122.55 597.088 122.947 595.595 123.358C594.103 123.768 592.62 124.194 591.466 124.545C590.89 124.721 590.393 124.879 590.016 125.009C589.828 125.074 589.666 125.133 589.537 125.185C589.423 125.23 589.292 125.287 589.199 125.351ZM589.199 125.351L589.482 125.763M589.199 125.351C589.199 125.351 589.199 125.351 589.199 125.351L589.482 125.763M589.482 125.763C589.171 125.976 588.718 126.463 588.475 126.846L588.307 127.11L604.635 123.112C604.104 122.639 603.01 122.245 602.244 122.252C601.22 122.261 590.146 125.307 589.482 125.763ZM587.668 127.183L585.577 125.128L583.515 123.101L587.668 127.183Z" stroke="white" stroke-opacity="0.41"/>
<path d="M424.309 353.173L424.231 352.679L424.309 353.173C425.163 353.038 426.087 352.989 426.789 353.015C427.043 353.024 427.256 353.043 427.421 353.067C427.411 353.091 427.4 353.115 427.388 353.141C427.258 353.428 427.077 353.811 426.877 354.219L427.32 354.436L426.877 354.219C424.021 360.04 418.728 373.505 416.451 380.74C413.685 389.527 412.626 394.771 412.477 400.524C412.413 403.008 412.49 404.762 412.901 406.515C413.311 408.265 414.049 409.986 415.263 412.413C419.945 421.765 427.086 432.357 444.687 456.079C445.661 457.392 446.584 458.655 447.285 459.631C447.636 460.119 447.931 460.534 448.149 460.848C448.376 461.174 448.5 461.363 448.529 461.417C448.589 461.527 448.608 461.588 448.615 461.642C448.622 461.698 448.62 461.788 448.574 461.955C448.475 462.316 448.22 462.881 447.696 463.959C447.076 465.236 444.227 469.929 441.353 474.397C434.624 484.857 430.604 491.707 429.227 495.095L428.966 495.738L418.94 495.825C415.764 495.853 413.163 495.851 411.347 495.824C410.438 495.81 409.73 495.79 409.246 495.764C409.123 495.758 409.016 495.751 408.926 495.744C408.957 495.638 409.006 495.507 409.074 495.351C409.27 494.902 409.599 494.324 410.018 493.688C410.857 492.416 412.016 490.98 413.086 489.989C416.195 487.109 421.518 484.406 427.092 482.911C427.684 482.753 428.298 482.553 428.815 482.358C429.311 482.17 429.774 481.965 430.019 481.788C430.178 481.674 430.333 481.498 430.476 481.313C430.625 481.119 430.784 480.882 430.948 480.615C431.276 480.08 431.634 479.405 431.966 478.682C432.577 477.353 434.615 473.093 436.497 469.213L436.605 468.991C437.578 466.985 438.317 465.46 438.849 464.262C439.398 463.026 439.742 462.102 439.888 461.329C440.039 460.533 439.981 459.897 439.742 459.246C439.524 458.657 439.157 458.06 438.718 457.347L438.654 457.242C437.944 456.088 436.484 453.987 435.404 452.564C433.562 450.138 431.967 448.233 420.639 434.926C408.646 420.837 403.283 412.498 401.652 405.59C399.672 397.208 402.233 384.248 408.543 371.27C411.687 364.802 414.837 359.927 418.071 356.486L417.707 356.144L418.071 356.486C419.062 355.433 419.927 354.722 420.879 354.217C421.83 353.711 422.897 353.396 424.309 353.173Z" stroke="white" stroke-opacity="0.41"/>
<path d="M631.972 490.923C629.673 486.496 626.913 482.035 621.223 473.543C618.466 469.429 616.598 466.574 615.372 464.578C614.133 462.563 613.584 461.475 613.417 460.874C613.384 460.755 613.344 460.641 613.316 460.561C613.306 460.534 613.298 460.511 613.292 460.493C613.264 460.409 613.259 460.376 613.259 460.35C613.259 460.291 613.282 460.135 613.575 459.645C614.049 458.851 615.069 457.428 617.141 454.533C617.582 453.918 618.07 453.237 618.61 452.481C632.246 433.407 638.862 423.378 643.661 414.494C645.725 410.674 647.461 406.887 648.004 404.982C648.149 404.477 648.236 403.648 648.285 402.682C648.335 401.702 648.346 400.535 648.322 399.328C648.275 396.921 648.088 394.313 647.777 392.67C645.91 382.8 641.111 369.403 634.109 354.471C633.646 353.484 633.226 352.58 632.921 351.919C632.821 351.701 632.734 351.511 632.662 351.352C632.893 351.327 633.186 351.308 633.513 351.297C634.348 351.268 635.34 351.291 635.996 351.379C637.357 351.56 638.279 351.807 639.165 352.306C640.064 352.812 640.959 353.595 642.235 354.91C647.015 359.836 651.604 367.821 654.9 376.155C658.197 384.494 660.167 393.099 659.779 399.251C659.389 405.432 656.869 411.283 650.639 420.24C647.77 424.364 643.81 429.396 636.1 438.711C630.611 445.341 627.043 449.822 624.849 452.933C623.752 454.488 622.988 455.716 622.498 456.709C622.01 457.696 621.772 458.493 621.778 459.176C621.78 459.383 621.859 459.661 621.951 459.933C622.051 460.228 622.193 460.593 622.368 461.006C622.719 461.834 623.211 462.881 623.785 464.007C624.853 466.102 626.942 470.322 628.425 473.383C629.206 474.993 629.96 476.464 630.573 477.582C630.88 478.141 631.153 478.616 631.378 478.978C631.589 479.318 631.791 479.616 631.952 479.766C632.546 480.316 633.625 480.729 635.168 481.103C641.379 482.607 647.286 485.73 650.517 489.168C651.173 489.866 651.991 490.98 652.649 492.016C652.977 492.532 653.258 493.018 653.456 493.413C653.502 493.506 653.543 493.592 653.579 493.671C653.519 493.674 653.455 493.677 653.386 493.68C652.859 493.704 652.092 493.728 651.142 493.751C649.243 493.797 646.621 493.838 643.736 493.864L633.545 493.952L631.972 490.923ZM654.106 493.632C654.189 493.837 654.236 494.001 654.237 494.109C654.237 494.199 649.514 494.313 643.74 494.364L633.243 494.455L654.106 493.632ZM632.238 351.423C632.236 351.423 632.235 351.424 632.235 351.424C632.235 351.424 632.236 351.423 632.238 351.423Z" stroke="white" stroke-opacity="0.41"/>
<path d="M704.137 106.702C704.372 106.48 704.573 106.297 704.732 106.159C704.748 106.181 704.767 106.203 704.789 106.224M704.137 106.702L704.789 106.224C704.789 106.224 704.789 106.224 704.789 106.224M704.137 106.702C703.891 107.13 703.569 107.677 703.186 108.323C703.597 107.914 703.972 107.548 704.294 107.242C704.377 107.162 704.457 107.086 704.533 107.015C704.694 106.735 704.826 106.502 704.925 106.32C704.88 106.299 704.833 106.268 704.789 106.224M704.137 106.702L704.789 106.224M638.431 255.32C638.432 255.307 638.433 255.291 638.435 255.272C638.442 255.206 638.451 255.117 638.464 255.006C638.475 254.914 638.488 254.807 638.503 254.688C638.274 254.841 638.113 254.929 638.02 254.964C638.009 254.968 638.001 254.971 637.995 254.973C638.013 254.97 638.055 254.966 638.111 254.979C638.187 254.996 638.285 255.045 638.355 255.146C638.403 255.214 638.419 255.279 638.425 255.323C638.427 255.322 638.429 255.321 638.431 255.32ZM639.83 236.529L639.836 236.342L639.336 236.326L639.703 236.666L639.83 236.529Z" stroke="white" stroke-opacity="0.41"/>
<path d="M626.686 338.47L626.686 338.47C626.664 336.521 626.532 334.116 626.387 333.119L626.387 333.119L626.307 332.569L628.441 334.17C631.373 336.37 634.789 338.545 638.884 340.823C639.776 341.32 641.353 342.698 642.35 343.878C642.785 344.393 643.137 344.816 643.408 345.157C643.226 345.067 643.022 344.962 642.794 344.845C640.059 343.428 637.701 343.06 632.48 343.144C630.913 343.169 629.773 343.186 628.924 343.119C628.065 343.051 627.61 342.902 627.341 342.681C627.089 342.475 626.914 342.134 626.814 341.442C626.713 340.744 626.7 339.798 626.686 338.47Z" stroke="white" stroke-opacity="0.41"/>
<path d="M615.376 339.865L615.376 339.865L615.034 339.597L615.859 336.688C616.363 334.909 617.074 332.342 617.439 330.982C617.506 330.734 617.571 330.496 617.634 330.274C617.793 331.066 617.969 332.035 618.112 332.943C618.301 334.132 618.358 335.195 618.376 338.067C618.383 339.065 618.375 340.032 618.359 340.785C618.35 341.162 618.34 341.483 618.328 341.727C618.323 341.811 618.319 341.884 618.315 341.947L617.455 341.354C616.632 340.787 615.696 340.116 615.376 339.865Z" stroke="white" stroke-opacity="0.41"/>
<path d="M649.284 339.333L648.999 339.558L649.284 339.333L648.285 338.065L648.187 335.67C648.042 332.094 647.59 329.146 646.558 325.026C645.868 322.272 644.97 319.313 644.126 317.017L643.656 317.19L644.126 317.017C644.075 316.879 644.026 316.744 643.979 316.614C645.194 317.498 647.354 318.917 648.696 319.706C649.636 320.258 650.228 320.769 652.978 323.473C658.903 329.297 664.201 333.831 669.726 337.8C671.346 338.964 675.024 341.386 676.422 342.209C676.896 342.488 677.477 342.892 677.704 343.092C677.702 343.09 677.705 343.094 677.715 343.105C677.733 343.124 677.77 343.165 677.835 343.238C677.926 343.34 678.05 343.484 678.205 343.663C678.514 344.022 678.939 344.52 679.443 345.114C680.452 346.303 681.774 347.873 683.118 349.474C685.429 352.229 687.788 355.062 688.719 356.21C688.367 356.325 687.813 356.477 686.985 356.689C684.574 357.306 680.288 357.644 677.871 357.408C673.732 357.004 669.99 355.932 665.949 353.984C662.279 352.216 659.734 350.374 655.979 346.749L655.632 347.109L655.979 346.749C653.708 344.558 651.304 341.895 649.284 339.333ZM643.898 315.939L643.902 315.934L643.898 315.939Z" stroke="white" stroke-opacity="0.41"/>
<path d="M620.384 291.925C620.299 291.897 620.248 291.88 620.213 291.867C620.201 291.84 620.184 291.799 620.158 291.732L620.158 291.732L620.121 291.637L620.653 290.946L620.653 290.946L620.914 290.606C621.061 290.877 621.272 291.283 621.484 291.7C621.586 291.9 621.685 292.098 621.774 292.278C621.167 292.137 620.595 291.992 620.384 291.925ZM620.384 291.925L620.232 292.401L620.384 291.925Z" stroke="white" stroke-opacity="0.41"/>
<path d="M631.97 277.263L631.97 277.263L631.967 277.262C631.909 277.256 631.774 277.242 631.608 277.224C631.47 277.21 631.312 277.193 631.158 277.177L631.158 277.177C630.861 277.145 630.403 277.078 630.009 277.011C629.975 277.006 629.941 277 629.908 276.994C629.997 276.826 630.102 276.631 630.216 276.424C630.474 275.955 630.747 275.452 630.914 275.14C630.94 275.17 630.967 275.201 630.995 275.234C631.287 275.57 631.637 275.989 631.9 276.321C632.116 276.594 632.386 276.96 632.614 277.283C632.336 277.282 632.082 277.274 631.97 277.263Z" stroke="white" stroke-opacity="0.41"/>
<path d="M639.599 264.078C640.141 264.14 640.711 264.196 641.006 264.213L639.599 264.078ZM639.599 264.078C639.658 264.037 639.719 263.995 639.782 263.953L639.782 263.953L640.641 263.369C640.82 263.6 641.068 263.942 641.266 264.227C641.184 264.223 641.096 264.218 641.006 264.213L639.599 264.078Z" stroke="white" stroke-opacity="0.41"/>
<path d="M418.571 255.792C409.935 249.066 404.662 240.605 397.713 222.12C393.46 210.807 390.762 202.129 382.47 173.074C379.481 162.603 377.154 155.116 375.838 151.759C372.631 143.569 368.532 136.291 357.96 119.976C354.882 115.226 353.013 112.329 351.915 110.586C352.177 110.835 352.452 111.101 352.737 111.378C354.271 112.872 356.043 114.669 357.149 115.888C365.312 124.894 375.409 139.721 381.371 151.461C386.154 160.88 389.145 169.36 394.491 188.708C399.541 206.982 401.922 213.833 405.994 221.736C408.993 227.556 411.729 231.51 416.086 236.321L418.186 238.639L418.38 243.139C418.582 247.827 419.094 252.442 419.822 256.105C419.876 256.374 419.925 256.632 419.969 256.866C419.576 256.569 419.092 256.198 418.571 255.792Z" stroke="white" stroke-opacity="0.41"/>
<path d="M349.932 122.796C350.042 122.969 350.141 123.126 350.228 123.265C349.998 123.261 349.731 123.251 349.446 123.235L349.445 123.235C347.765 123.143 346.314 123.479 345.174 124.258C344.128 124.974 343.386 126.035 342.965 127.382C342.541 126.945 341.818 126.066 340.542 124.487C324.431 104.538 314.703 82.8819 311.574 60.0372C310.178 49.8449 310.264 39.5829 311.623 30.6068C312.984 21.6207 315.615 13.9686 319.273 8.96051L320.605 7.13704L322.754 7.11591L322.754 7.11591C322.969 7.11379 323.162 7.1106 323.335 7.10772C323.734 7.1011 324.032 7.09616 324.268 7.10987C324.498 7.12322 324.585 7.15295 324.611 7.16422C324.619 7.19236 324.644 7.30051 324.619 7.60642C324.598 7.86976 324.55 8.19914 324.488 8.63445C324.461 8.82143 324.431 9.02796 324.399 9.25719C323.689 14.3986 323.414 19.3909 323.358 28.0588C323.267 42.2812 324.025 50.635 326.326 60.6608C329.061 72.5765 333.997 86.1604 339.532 97.0012L340.699 99.2873L340.182 100.283C339.734 101.145 339.498 102.054 339.54 103.131C339.581 104.196 339.893 105.403 340.5 106.869C341.709 109.792 344.144 113.866 348.198 120.097C348.874 121.136 349.488 122.092 349.932 122.796ZM343.279 127.662C343.28 127.663 343.278 127.662 343.273 127.659C343.276 127.661 343.279 127.662 343.279 127.662ZM322.749 6.63445L322.749 6.61594L322.749 6.63445Z" stroke="white" stroke-opacity="0.41"/>
<path d="M291.804 45.1002L291.804 45.1001C291.992 44.7835 292.175 44.5075 292.333 44.2946C292.386 44.4278 292.446 44.5801 292.511 44.7487C292.75 45.3696 293.055 46.1994 293.368 47.0873C295.592 53.4025 298.729 59.8324 302.926 66.6895C303.844 68.1902 304.367 69.0923 304.723 69.8833C305.075 70.6626 305.269 71.3455 305.513 72.4159C310.37 93.7674 321.191 114.636 336.995 133.155C337.757 134.046 338.435 134.86 338.926 135.467C338.789 135.433 338.647 135.397 338.502 135.36C335.985 134.715 333.713 134.774 331.817 135.547C329.914 136.324 328.442 137.8 327.5 139.892C327.158 140.65 326.953 141.155 326.854 141.874C326.76 142.564 326.764 143.445 326.79 144.956C326.823 146.956 326.977 148.613 327.243 149.621C326.554 148.951 325.629 148.036 324.621 147.025C302.076 124.404 288.396 98.8336 286.522 75.9786C286.163 71.6084 286.328 63.5099 286.844 59.933C287.566 54.9317 289.641 48.7408 291.804 45.1002ZM292.675 43.8979C292.675 43.898 292.673 43.8991 292.671 43.9009C292.673 43.8987 292.675 43.8978 292.675 43.8979Z" stroke="white" stroke-opacity="0.41"/>
<path d="M273.385 103.556L272.885 103.546L273.385 103.556C273.485 98.4384 273.864 95.6461 274.925 92.1097C274.925 92.1097 274.925 92.1097 274.925 92.1097L275.135 91.4081L279.117 95.859C280.373 97.2632 281.565 98.6304 282.472 99.7013C282.926 100.237 283.307 100.697 283.589 101.049C283.884 101.418 284.039 101.631 284.075 101.697L284.075 101.697C284.306 102.117 285.106 103.899 285.853 105.669C294.366 125.837 310.236 146.34 331.648 164.878C331.663 164.892 331.678 164.905 331.693 164.917C329.923 164.661 327.736 164.543 325.632 164.554C323.046 164.567 320.518 164.777 319.007 165.198L319.141 165.679L319.007 165.198C315.552 166.16 312.548 168.204 311.38 170.537L311.221 170.855L309.101 169.143C305.351 166.116 297.296 158.018 294.195 154.158C282.563 139.68 276.006 126.153 273.864 112.309C273.372 109.134 273.302 107.86 273.385 103.556Z" stroke="white" stroke-opacity="0.41"/>
<path d="M275.445 146.805L275.445 146.805L280.605 149.763L282.649 152.646C290.283 163.412 300.607 173.716 310.847 180.781C311.913 181.517 313.272 182.746 313.849 183.484C317.26 187.836 323.315 192.297 331.071 196.225L333.105 197.254L332.471 197.307C328.352 197.655 324.587 198.513 321.479 199.768C318.378 201.021 315.896 202.683 314.385 204.662C314.134 204.991 313.891 205.286 313.704 205.495C313.665 205.538 313.63 205.576 313.599 205.609C313.451 205.541 313.25 205.444 313.008 205.324C312.495 205.07 311.808 204.72 311.071 204.334C300.903 199.017 289.119 189.864 282.741 182.341C276.338 174.789 272.26 165.461 270.913 155.269L270.418 155.335L270.913 155.269C270.757 154.087 270.648 151.417 270.615 148.93C270.598 147.691 270.6 146.509 270.623 145.594C270.635 145.136 270.652 144.75 270.674 144.459C270.68 144.377 270.687 144.305 270.693 144.242C270.796 144.279 270.936 144.338 271.125 144.426C271.875 144.779 273.175 145.504 275.445 146.805ZM270.475 144.182C270.475 144.182 270.476 144.182 270.477 144.182L270.475 144.182Z" stroke="white" stroke-opacity="0.41"/>
<path d="M268.112 186.234L268.112 186.234L268.137 185.701L276.675 191.166C281.779 194.433 286.977 197.954 288.241 198.993C295.087 204.621 303.348 209.89 311.558 213.867C314.007 215.053 314.938 215.668 316.144 216.858C320.021 220.682 327.714 224.427 335.289 226.232C336.934 226.624 339.371 227.065 341.612 227.406C343.621 227.712 345.517 227.945 346.546 227.983C346.322 228.085 346.061 228.199 345.758 228.325C338.795 231.213 331.386 236.124 328.15 240.045C327.852 240.406 327.564 240.731 327.342 240.961C327.261 241.044 327.192 241.112 327.138 241.163C327.083 241.151 327.018 241.136 326.943 241.119C326.699 241.063 326.357 240.983 325.941 240.884C325.108 240.685 323.984 240.413 322.77 240.115C307.288 236.31 296.088 231.569 287.446 225.197C278.578 218.658 272.387 208.837 269.605 196.842C269.175 194.991 268.78 192.779 268.503 190.801C268.224 188.81 268.072 187.1 268.112 186.234Z" stroke="white" stroke-opacity="0.41"/>
<path d="M278.257 241.13L277.838 241.33L278.257 241.13C277.651 239.863 277.035 238.354 276.601 237.135C276.383 236.524 276.215 235.996 276.115 235.612C276.113 235.601 276.11 235.591 276.107 235.581C276.374 235.647 276.708 235.745 277.063 235.864C281.158 237.245 296.381 241.188 300 241.804C300.243 241.845 300.927 242.044 301.872 242.35C302.8 242.65 303.939 243.041 305.065 243.45C309.987 245.235 314.546 246.595 320.402 248.027L324.398 249.003L324.645 250.248C324.858 251.317 325.241 252.255 325.868 253.073C326.493 253.89 327.343 254.563 328.451 255.131C330.65 256.259 333.93 257.002 338.686 257.625C340.701 257.89 345.164 258.011 349.538 258.001C353.908 257.991 358.271 257.85 360.081 257.575C360.428 257.523 360.758 257.476 361.053 257.437C360.98 257.515 360.903 257.597 360.822 257.683C360.144 258.405 359.197 259.392 358.145 260.47C356.527 262.129 355.547 263.1 354.871 263.678C354.201 264.25 353.884 264.386 353.594 264.442C350.788 264.975 341.756 266.075 338.022 266.337C333.029 266.688 323.998 266.749 320.325 266.459C312.121 265.812 305.037 264.065 299.181 261.26C289.821 256.777 282.256 249.486 278.257 241.13Z" stroke="white" stroke-opacity="0.41"/>
<path d="M303.386 275.176L303.293 274.685L303.386 275.176C306.676 274.555 308.837 274.222 310.835 274.12C312.829 274.019 314.677 274.146 317.343 274.461C322.496 275.071 336.55 274.939 343.178 274.223C344.516 274.078 345.743 273.96 346.642 273.885C346.911 273.863 347.15 273.845 347.352 273.831C347.331 273.873 347.308 273.917 347.284 273.962C347.021 274.468 346.639 275.154 346.202 275.898C344.856 278.193 344.536 278.91 344.547 280.096C344.554 280.912 344.74 281.628 345.152 282.246C345.561 282.86 346.167 283.337 346.946 283.72C347.486 283.986 347.947 284.123 348.983 284.188C349.992 284.252 351.592 284.251 354.423 284.229L354.423 284.229C357.845 284.202 361.718 284.081 363.026 283.957L362.978 283.459L363.026 283.957L363.329 283.928C361.232 285.242 357.594 287.18 354.872 288.423C347.055 291.993 338.429 293.761 331.32 293.271C319.497 292.456 306.596 287.967 297.293 281.436C295.983 280.517 294.408 279.325 293.178 278.345C292.626 277.905 292.147 277.511 291.794 277.206C291.84 277.197 291.887 277.189 291.936 277.18C292.549 277.069 293.384 276.928 294.292 276.786C296.123 276.499 300.214 275.775 303.386 275.176Z" stroke="white" stroke-opacity="0.41"/>
<path d="M338.706 320.274C329.086 319.311 321.042 315.815 314.925 309.97L313.059 308.187L315.705 307.326C317.61 306.705 321.804 305.171 325.027 303.916L330.807 301.666L335.783 301.422C341.716 301.131 345.178 300.562 350.281 299.035C355.563 297.455 362.274 294.377 367.562 291.115C367.851 290.936 368.13 290.766 368.39 290.61C368.009 291.209 367.54 291.935 367.031 292.711C363.469 298.144 360.395 304.468 359.385 308.49C359.13 309.505 359.063 310.385 359.252 311.178C359.443 311.982 359.883 312.645 360.547 313.246C360.856 313.525 361.175 313.757 361.556 313.921C361.939 314.086 362.358 314.172 362.856 314.195C363.828 314.238 365.167 314.039 367.232 313.647C367.336 313.627 367.439 313.608 367.541 313.589C367.419 313.652 367.294 313.716 367.167 313.781C365.634 314.566 363.752 315.476 362.42 316.051C355.715 318.949 350.889 320.067 344.35 320.247C341.768 320.318 339.238 320.327 338.706 320.274Z" stroke="white" stroke-opacity="0.41"/>
<path d="M334.07 338.794C334.064 338.799 334.076 338.812 334.103 338.833C334.103 338.833 334.103 338.833 334.103 338.833C334.103 338.833 334.103 338.833 334.103 338.833C334.163 338.879 334.297 338.961 334.487 339.069C334.517 339.024 334.54 338.972 334.554 338.915C334.579 338.815 334.567 338.729 334.553 338.673C334.534 338.601 334.502 338.548 334.482 338.518C334.265 338.654 334.124 338.748 334.07 338.794ZM334.07 338.794L334.07 338.794L334.07 338.794ZM390.88 307.5C391.002 307.394 391.122 307.291 391.238 307.192L386.051 325.643L385.551 325.648C385.551 325.648 385.551 325.648 385.551 325.648C385.563 326.902 386.044 327.947 386.918 328.64C387.784 329.326 388.978 329.624 390.344 329.513L390.355 329.512C389.626 330.11 388.027 331.374 386.456 332.59C378.29 338.912 370.718 342.874 364.187 344.287C361.424 344.885 355.85 345.066 352.795 344.653C347.666 343.959 341.08 341.884 336.251 339.439C335.77 339.195 335.336 338.967 335.003 338.784C335.132 338.705 335.279 338.616 335.442 338.519C336.057 338.15 336.897 337.66 337.887 337.088C339.867 335.944 342.442 334.479 345.022 333.027C347.602 331.574 350.185 330.135 352.18 329.041C353.177 328.494 354.026 328.034 354.653 327.703C354.966 327.537 355.222 327.405 355.412 327.31C355.508 327.263 355.584 327.226 355.641 327.2C355.695 327.176 355.718 327.167 355.721 327.165C355.722 327.165 355.722 327.165 355.721 327.165C363.306 324.827 367.776 322.987 373.138 319.99C378.93 316.754 385.766 311.941 390.88 307.5Z" stroke="white" stroke-opacity="0.41"/>
<path d="M376.298 359.905C375.235 359.768 373.887 359.516 372.804 359.273C372.302 359.16 371.865 359.051 371.544 358.958C371.564 358.932 371.585 358.905 371.606 358.876C371.883 358.513 372.285 357.997 372.783 357.364C373.778 356.098 375.151 354.374 376.663 352.496L382.113 345.726L384.969 343.848L384.694 343.43L384.969 343.848C391.569 339.509 397.896 334.257 404.771 327.416C408.048 324.156 410.116 322.33 411.645 321.324C412.89 320.505 414.429 319.431 415.07 318.934L414.793 318.578L415.07 318.934C415.109 318.903 415.148 318.873 415.186 318.844C415.032 319.387 414.829 320.069 414.601 320.803C412.674 327.024 411.683 332.19 411.428 337.391C411.357 338.836 411.314 339.522 411.194 340.001C411.085 340.435 410.914 340.697 410.479 341.29C406.835 346.253 401.641 351.466 397.566 354.263C394.299 356.506 389.229 358.63 385.243 359.424C382.611 359.948 378.368 360.172 376.298 359.905L376.234 360.401L376.298 359.905Z" stroke="white" stroke-opacity="0.41"/>
<path d="M433.391 334.112C433.371 334.378 433.351 334.691 433.332 335.039C433.279 336.033 433.232 337.331 433.206 338.695C433.161 341.034 433.129 342.251 433.039 342.996C432.996 343.36 432.941 343.586 432.875 343.761C432.809 343.935 432.723 344.081 432.587 344.287L433.004 344.563L432.587 344.287L432.127 344.981L427.013 345.026C424.426 345.048 423.034 345.066 422.035 345.171C421.006 345.279 420.387 345.48 419.356 345.84L419.356 345.84C418.365 346.186 417.094 346.773 416.245 347.269C418.495 344.208 419.578 343.233 421.453 342.263C425.236 340.304 428.723 337.954 432.478 334.836C432.825 334.547 433.134 334.303 433.391 334.112Z" stroke="white" stroke-opacity="0.41"/>
<path d="M443.335 342.138C442.438 342.801 441.872 343.216 441.518 343.466C441.511 343.411 441.503 343.351 441.495 343.287C441.453 342.944 441.404 342.501 441.359 342.039C441.173 340.158 441.232 337.231 441.505 334.952C441.598 334.172 441.795 332.913 441.98 331.847C442.084 332.199 442.197 332.585 442.314 332.988L442.794 332.849L442.314 332.988C442.788 334.624 443.51 337.073 443.919 338.43L444.395 338.287L443.919 338.43C444.121 339.104 444.306 339.752 444.439 340.254C444.506 340.505 444.559 340.716 444.596 340.873C444.614 340.952 444.627 341.014 444.635 341.059C444.636 341.064 444.637 341.068 444.638 341.072C444.621 341.096 444.585 341.14 444.514 341.208C444.321 341.393 443.971 341.668 443.335 342.138ZM444.648 341.057C444.65 341.051 444.651 341.049 444.652 341.048C444.652 341.048 444.651 341.051 444.648 341.057Z" stroke="white" stroke-opacity="0.41"/>
<path d="M325.487 2.93882C325.298 3.94685 325.024 5.49598 324.913 6.19456C324.749 6.14285 324.56 6.12347 324.332 6.11236C323.969 6.09468 323.398 6.09725 322.469 6.10988L321.493 6.12315L321.518 6.09731L321.518 6.09731C322.759 4.81742 324.038 3.79927 325.487 2.93882Z" stroke="white" stroke-opacity="0.41"/>
<path d="M429.271 278.65C429.27 278.65 429.269 278.651 429.267 278.651C429.279 278.646 429.282 278.646 429.271 278.65ZM428.513 278.283C428.612 278.454 428.703 278.616 428.781 278.759C428.531 278.804 428.221 278.853 427.89 278.899C427.24 278.989 426.539 279.065 426.068 279.091C426.283 278.777 426.572 278.381 426.875 277.984C427.191 277.571 427.501 277.185 427.736 276.911C427.911 277.227 428.234 277.797 428.513 278.283L428.513 278.283Z" stroke="white" stroke-opacity="0.41"/>
<path d="M417.742 265.392L417.742 265.392C417.757 265.372 417.772 265.352 417.787 265.333C417.798 265.339 417.809 265.346 417.821 265.352C418.022 265.466 418.319 265.651 418.733 265.922L418.863 266.007C418.753 266.022 418.64 266.036 418.527 266.05C417.971 266.118 417.468 266.167 417.297 266.168L417.297 266.168C417.268 266.168 417.237 266.167 417.205 266.165C417.376 265.91 417.58 265.615 417.742 265.392Z" stroke="white" stroke-opacity="0.41"/>
<path d="M437.149 293.902C437.404 293.839 437.754 293.746 438.072 293.655L437.149 293.902ZM437.149 293.902C437.308 293.553 437.528 293.103 437.745 292.685C437.837 292.509 437.925 292.342 438.006 292.195C438.083 292.293 438.167 292.399 438.255 292.509M437.149 293.902L438.072 293.655C438.315 293.586 438.477 293.539 438.595 293.497C438.668 293.471 438.706 293.453 438.726 293.443C438.738 293.402 438.751 293.337 438.775 293.198C438.775 293.197 438.775 293.197 438.775 293.197C438.715 293.095 438.578 292.917 438.255 292.509M438.255 292.509L438.646 292.198L438.255 292.509Z" stroke="white" stroke-opacity="0.41"/>
</g>
<defs>
<linearGradient id="paint0_linear_87_426" x1="253" y1="367" x2="-120" y2="-148" gradientUnits="userSpaceOnUse">
<stop stop-color="#0E0E52"/>
<stop offset="1" stop-color="#78C0E0"/>
</linearGradient>
</defs>
</svg>
