<svg width="291" height="398" viewBox="0 0 291 398" fill="none" xmlns="http://www.w3.org/2000/svg">
<path d="M127.49 196.231L127.49 196.231L127.49 196.226L128.633 196.216L130.007 196.204L131.183 198.509C135.555 207.081 139.161 213.189 143.756 219.806C152.999 233.116 163.86 245.478 176.013 256.521C178.063 258.384 179.751 259.93 180.895 260.991C178.237 259.53 173.366 256.642 170.437 254.759C156.578 245.849 143.123 232.524 135.721 220.398C134.495 218.388 134.134 217.742 133.024 215.562C130.451 210.509 129.023 206.47 128.182 201.892C127.857 200.125 127.739 199.162 127.49 196.231Z" stroke="#0E0E52"/>
<path d="M235.312 261.354C234.58 261.762 233.954 262.098 233.474 262.337C234.091 261.781 235.069 260.899 236.117 259.955C260.007 238.443 277.921 213.978 288.208 188.815L288.862 187.216L288.903 188.438M235.312 261.354C234.691 261.913 234.147 262.404 233.759 262.754C236.454 261.396 243.297 257.304 247.825 254.228C259.291 246.436 270.766 235.265 278.194 224.661C286.58 212.689 289.868 202.513 289.449 189.823L289.366 187.306L288.903 188.438M235.312 261.354C235.841 261.058 236.426 260.725 237.051 260.363C240.245 258.51 244.443 255.921 247.544 253.814C258.964 246.054 270.394 234.925 277.784 224.374C286.118 212.476 289.364 202.406 288.949 189.84L288.903 188.438M235.312 261.354C235.671 261.03 236.056 260.683 236.452 260.326C260.388 238.773 278.351 214.249 288.671 189.005L288.903 188.438M232.989 263.114C232.571 263.284 232.478 263.244 232.819 262.93C232.839 262.912 232.88 262.875 232.94 262.82C233.024 262.89 233.074 262.98 233.096 263.069C233.059 263.085 233.023 263.101 232.989 263.114Z" stroke="#0E0E52"/>
<path d="M188.364 298.543L188.65 298.143L188.364 298.543C192.534 301.53 198.404 304.839 201.857 306.139C205.924 307.671 208.938 308.036 212.222 307.343C214.018 306.964 216.567 305.933 219.314 304.549C222.072 303.16 225.064 301.398 227.753 299.533C229.008 298.663 230.158 297.886 231.001 297.334C231.37 297.092 231.678 296.895 231.908 296.753C232.002 296.995 232.12 297.319 232.256 297.709C232.55 298.547 232.925 299.674 233.319 300.901C234.109 303.356 234.972 306.195 235.425 307.906C237.561 315.977 237.946 319.044 237.996 328.429C238.058 340.121 236.781 360.535 235.155 373.845C234.079 382.65 234.667 387.519 237.584 393.383L238.804 395.835L233.983 395.877C233.686 395.88 233.405 395.883 233.137 395.886C231.947 395.898 231.04 395.907 230.339 395.877C229.46 395.839 229.017 395.741 228.774 395.592C228.592 395.479 228.469 395.302 228.403 394.824C228.347 394.412 228.346 393.876 228.344 393.131C228.344 392.961 228.343 392.78 228.342 392.587C228.323 389.341 229.015 384.229 231.189 371.699C233.558 358.045 233.895 354.09 233.787 341.227C233.689 329.564 233.051 323.24 231.349 317.309C230.27 313.551 228.833 310.729 227.281 309.197C226.503 308.429 225.651 307.942 224.763 307.886C223.856 307.829 223.016 308.228 222.296 309.011C221.649 309.713 221.301 310.482 221.337 311.36C221.371 312.215 221.766 313.096 222.432 314.042C224.069 316.366 225.366 320.912 226.162 327.001C226.955 333.062 227.243 340.569 226.92 348.745C226.586 357.223 226.355 359.222 224.431 370.235C223.678 374.545 222.73 380.37 222.324 383.182C222.122 384.582 221.922 385.87 221.762 386.817C221.682 387.292 221.612 387.677 221.558 387.947C221.543 388.023 221.53 388.088 221.518 388.142C221.498 388.149 221.477 388.156 221.454 388.164C221.28 388.224 221.032 388.303 220.727 388.396C220.118 388.581 219.295 388.816 218.406 389.056C212.418 390.676 206.248 390.646 200.138 388.966C198.954 388.64 198.507 388.428 198.188 387.865C198.01 387.552 197.86 387.105 197.712 386.416C197.564 385.73 197.426 384.843 197.256 383.666C197.091 382.522 196.016 376.582 194.87 370.475C192.271 356.625 191.65 349.924 191.849 337.907C191.953 331.623 192.311 326.694 192.959 322.861C193.609 319.023 194.544 316.322 195.777 314.465C197.038 312.567 197.205 310.439 195.847 309.101C195.088 308.353 194.21 308.035 193.286 308.19C192.392 308.339 191.542 308.918 190.772 309.772C189.231 311.481 187.845 314.475 186.908 318.326C185.335 324.793 185.101 328.207 185.224 342.268L185.224 342.281C185.29 349.777 185.323 353.561 185.745 357.598C186.167 361.632 186.976 365.915 188.582 374.416L188.585 374.431C189.765 380.674 190.541 385.187 190.982 388.456C191.424 391.739 191.521 393.722 191.364 394.932L191.193 396.251L185.936 396.297C184.374 396.31 182.956 396.302 181.93 396.278C181.554 396.27 181.234 396.259 180.98 396.246C181.111 395.993 181.281 395.684 181.466 395.364C182.9 392.876 184.28 388.53 184.718 385.158C185.093 382.269 184.966 380.369 183.824 370.867C181.603 352.396 180.926 343.286 180.796 330.164C180.738 324.273 180.717 321.217 180.841 318.987C180.965 316.776 181.232 315.381 181.763 312.806C182.279 310.304 183.28 306.48 184.229 303.192C184.704 301.549 185.163 300.047 185.542 298.916C185.731 298.349 185.898 297.882 186.035 297.538C186.086 297.411 186.131 297.304 186.171 297.217C186.282 297.263 186.423 297.33 186.593 297.42C187.067 297.671 187.697 298.066 188.364 298.543ZM231.738 296.355C231.736 296.352 231.735 296.351 231.735 296.35C231.735 296.35 231.736 296.352 231.738 296.355Z" stroke="#0E0E52"/>
<path d="M245.45 83.0299L245.541 83.1636L245.693 83.2189L249.386 84.5638C251.403 85.298 254.694 86.6752 256.689 87.6196L259.263 88.8379L253.609 90.9117C251.74 91.5975 249.968 92.3007 248.618 92.8821C247.944 93.1725 247.369 93.4346 246.939 93.6505C246.724 93.7582 246.539 93.8574 246.393 93.9452C246.265 94.0226 246.113 94.1212 246.014 94.2332C245.447 94.8728 245.245 95.8105 245.302 96.6814C245.36 97.5566 245.687 98.4741 246.314 99.0915C246.701 99.473 247.074 99.7491 247.579 99.8643C248.058 99.9735 248.599 99.9237 249.287 99.8073C250.076 99.6737 250.384 99.6643 250.694 99.7944C251.049 99.9433 251.452 100.292 252.313 101.125C252.845 101.639 253.269 102.137 253.556 102.568C253.859 103.021 253.96 103.324 253.961 103.464C253.965 103.881 254.114 104.303 254.321 104.681C254.532 105.064 254.82 105.433 255.143 105.756C255.466 106.078 255.837 106.363 256.219 106.571C256.596 106.775 257.017 106.92 257.434 106.916C257.464 106.916 257.558 106.931 257.732 107.006C257.895 107.078 258.092 107.187 258.313 107.33C258.754 107.617 259.258 108.017 259.736 108.454C260.214 108.89 260.652 109.351 260.966 109.756C261.124 109.958 261.243 110.137 261.32 110.283C261.358 110.356 261.383 110.414 261.398 110.459C261.412 110.501 261.413 110.52 261.413 110.52L261.413 110.519C261.416 110.834 261.542 111.145 261.693 111.406C261.85 111.675 262.06 111.938 262.291 112.168C262.522 112.398 262.785 112.608 263.054 112.762C263.298 112.902 263.587 113.02 263.882 113.032C263.883 113.032 263.883 113.032 263.883 113.032C263.919 113.048 263.974 113.077 264.052 113.124C264.206 113.217 264.41 113.359 264.652 113.543C265.136 113.91 265.742 114.422 266.35 114.989C266.883 115.486 267.278 115.86 267.573 116.168C267.868 116.477 268.039 116.697 268.14 116.881C268.317 117.202 268.32 117.467 268.209 118.206C268.108 118.871 268.073 119.404 268.23 119.9C268.39 120.402 268.724 120.798 269.181 121.249C269.789 121.847 270.409 122.265 271.053 122.431C271.719 122.603 272.363 122.493 272.962 122.121C273.544 121.76 274.071 121.162 274.563 120.375C275.058 119.584 275.538 118.571 276.012 117.342L277.251 114.131L278.608 114.299C280.356 114.516 282.502 115.496 284.504 116.909C286.501 118.319 288.297 120.119 289.368 121.915C292.084 126.468 293.228 131.436 293.302 139.26C293.416 151.136 290.218 165.847 283.957 182.135C273.645 208.956 257.044 232.215 231.633 255.407C220.303 265.747 214.088 273.236 209.851 281.71L208.898 283.615L207.4 280.825C204.883 276.141 200.634 270.456 195.915 265.449C186.212 255.153 173.316 232.019 161.021 202.762C157.446 194.256 151.118 178.033 148.55 170.793C147.997 169.234 147.569 168.118 147.267 167.495C147.191 167.338 147.117 167.2 147.046 167.09C146.99 167.002 146.888 166.853 146.735 166.765C146.645 166.713 146.48 166.65 146.285 166.71C146.096 166.768 145.997 166.906 145.952 166.989C145.873 167.136 145.856 167.31 145.85 167.42C145.822 167.912 145.939 168.922 146.172 170.408C146.409 171.918 146.774 173.978 147.267 176.612C151.374 198.574 162.032 225.795 173.343 243.2C174.029 244.256 174.663 245.252 175.192 246.103C174.244 245.172 173.079 243.998 171.836 242.727C168.825 239.645 165.378 236.006 163.511 233.87C144.604 212.25 131.653 188.147 125.115 162.431C122.669 152.811 122.177 149.304 122.089 140.935C122.018 134.209 122.117 133.005 122.902 130.174C125.162 122.021 129.841 116.941 136.26 115.451L137.506 115.162L138.534 117.863C139.474 120.33 140.611 122.102 141.858 122.966C142.494 123.407 143.181 123.626 143.885 123.548C144.588 123.471 145.238 123.106 145.82 122.512C146.202 122.123 146.471 121.74 146.597 121.225C146.716 120.736 146.694 120.173 146.607 119.455C146.504 118.606 146.503 118.276 146.656 117.946C146.828 117.572 147.214 117.157 148.125 116.265L147.776 115.908L148.125 116.265C148.625 115.777 149.223 115.273 149.782 114.857C150.352 114.433 150.844 114.129 151.137 114.011C152.083 113.63 152.85 112.855 153.226 111.903C153.35 111.589 153.611 111.169 153.973 110.701C154.329 110.239 154.763 109.755 155.211 109.314C155.66 108.872 156.112 108.483 156.503 108.206C156.698 108.067 156.87 107.963 157.011 107.894C157.161 107.821 157.238 107.808 157.256 107.807C157.637 107.794 158.028 107.645 158.378 107.452C158.734 107.254 159.085 106.988 159.394 106.695C159.703 106.402 159.982 106.07 160.188 105.732C160.387 105.405 160.546 105.024 160.543 104.644C160.542 104.614 160.557 104.517 160.636 104.339C160.711 104.171 160.828 103.965 160.987 103.73C161.304 103.26 161.766 102.706 162.326 102.143C163.233 101.231 163.688 100.819 164.065 100.632C164.383 100.473 164.664 100.465 165.341 100.569C165.981 100.668 166.502 100.699 166.993 100.538C167.487 100.377 167.882 100.044 168.328 99.5885C169.009 98.894 169.408 98.0725 169.466 97.2456C169.525 96.4113 169.235 95.6045 168.599 94.9782C168.498 94.8783 168.351 94.785 168.211 94.7045C168.059 94.6169 167.868 94.5185 167.649 94.412C167.208 94.1987 166.628 93.9427 165.951 93.6614C164.597 93.0984 162.837 92.426 160.997 91.7792C159.167 91.1357 157.504 90.5319 156.3 90.0777C155.873 89.9167 155.506 89.7751 155.21 89.6576C155.328 89.5947 155.458 89.5265 155.601 89.4536C156.337 89.0757 157.358 88.5848 158.482 88.0644C160.733 87.0223 163.374 85.8746 164.955 85.2899L165.103 85.2355C166.827 84.5982 167.806 84.2363 168.598 83.5938C169.388 82.9537 169.979 82.0456 171.027 80.4341L171.116 80.2979C172.311 78.4607 173.624 76.8765 174.906 75.6789C176.196 74.4733 177.42 73.6917 178.431 73.4061C179.454 73.117 181.504 72.9908 183.814 73.1055C185.486 73.1885 186.527 73.2126 187.39 73.0927C188.276 72.9697 188.956 72.6983 189.912 72.2443C194.636 69.9997 200.724 68.8091 206.835 68.7141C212.946 68.6191 219.032 69.6205 223.753 71.717C224.974 72.2592 225.759 72.5757 226.658 72.7121C227.546 72.8471 228.52 72.8019 230.112 72.6884C233.404 72.4536 235.607 72.7019 237.527 73.7573C239.463 74.8212 241.181 76.7418 243.411 80.0268L245.45 83.0299ZM263.858 113.023C263.857 113.022 263.859 113.023 263.863 113.024C263.86 113.023 263.858 113.023 263.858 113.023ZM210.664 232.015C210.964 231.749 211.279 231.253 211.55 230.728C211.831 230.183 212.101 229.539 212.292 228.92C213.036 226.513 215.332 222.766 217.369 220.657C218.139 219.859 220.383 218.022 222.357 216.583C231.237 210.107 235.204 205.917 237.982 199.96C238.643 198.544 239.268 196.551 239.73 194.571C240.191 192.594 240.499 190.586 240.504 189.139C240.505 188.83 240.623 188.441 241.066 187.795C241.51 187.146 242.243 186.293 243.395 185.062C245.308 183.02 246.564 181.545 247.437 180.183C248.319 178.807 248.804 177.559 249.196 175.982C249.558 174.531 249.743 172.351 249.762 170.03C249.78 167.701 249.631 165.193 249.306 163.076L248.912 160.499L251.16 157.996C255.683 152.96 259.963 145.581 262.086 139.161C262.987 136.434 263.171 135.061 263.17 131.234C263.17 129.005 263.167 127.792 262.954 126.767C262.737 125.724 262.305 124.886 261.533 123.403C259.401 119.304 255.558 114.669 251.077 110.472C246.592 106.273 241.436 102.482 236.651 100.09C234.844 99.1866 233.786 98.6785 232.802 98.4149C231.802 98.1465 230.897 98.1358 229.423 98.1612C225.65 98.2262 220.625 99.8736 212.165 103.741L207.235 105.995L203.74 104.404C199.9 102.656 195.97 101.132 192.614 100.047C189.282 98.9698 186.451 98.3038 184.84 98.3179C182.82 98.3355 180.214 99.3041 177.401 100.849C174.57 102.404 171.466 104.577 168.43 107.083C162.368 112.085 156.515 118.463 153.652 123.962C150.5 130.014 151.315 137.349 155.929 146.372C158 150.422 161.745 155.881 164.66 159.097L166.628 161.268L166.218 165.281C165.741 169.939 166.003 174.186 166.996 177.6C167.347 178.803 168.361 180.507 169.668 182.271C170.986 184.051 172.642 185.946 174.327 187.536C175.117 188.281 175.47 188.668 175.659 189.071C175.843 189.462 175.891 189.913 175.902 190.868C175.97 196.71 178.982 203.162 184.012 208.397C185.902 210.363 189.626 213.459 192.918 215.807C196.576 218.417 198.969 220.382 200.704 222.368C202.431 224.342 203.523 226.355 204.549 229.085C204.811 229.782 205.128 230.475 205.429 231.034C205.58 231.313 205.73 231.566 205.872 231.771C206.004 231.963 206.157 232.157 206.319 232.279C206.925 232.733 207.743 232.899 208.512 232.85C209.283 232.8 210.084 232.529 210.664 232.015Z" stroke="#0E0E52"/>
<path d="M208 220.492C207.741 219.934 207.228 219.238 206.565 218.475C205.895 217.703 205.043 216.833 204.076 215.923C202.143 214.105 199.731 212.115 197.345 210.428C194.679 208.544 191.484 206.086 190.248 204.973C189.179 204.011 187.734 202.332 186.599 200.833C186.196 200.3 185.838 199.797 185.553 199.364C185.723 199.497 185.903 199.643 186.086 199.798C187.363 200.877 189.351 202.032 191.466 203.008C193.585 203.987 195.873 204.806 197.767 205.197C199.595 205.575 203.89 205.911 207.922 206.001C216.129 206.184 221.069 205.491 225.381 203.485L225.17 203.032L225.381 203.485C225.97 203.211 226.513 202.974 226.947 202.796C226.832 203.043 226.698 203.32 226.557 203.605C226.17 204.38 225.488 205.223 224.205 206.361C222.922 207.499 221.067 208.909 218.369 210.824C216.528 212.13 214.417 213.954 212.643 215.695C211.755 216.567 210.947 217.422 210.296 218.187C209.651 218.943 209.138 219.637 208.864 220.18C208.675 220.554 208.523 220.81 208.398 220.973C208.368 221.011 208.343 221.04 208.323 221.062C208.241 220.96 208.135 220.781 208 220.492ZM208.392 221.134C208.392 221.134 208.391 221.134 208.389 221.133C208.391 221.134 208.392 221.134 208.392 221.134Z" stroke="#0E0E52"/>
<path d="M200.117 165.293L198.648 163.974L198.985 163.84L198.985 163.84C199.967 163.45 201.885 163.093 204.035 162.866C206.172 162.641 208.471 162.551 210.187 162.669C211.957 162.791 213.671 163.006 215.011 163.252C215.682 163.376 216.251 163.506 216.682 163.633C216.832 163.678 216.962 163.721 217.071 163.763C216.88 163.979 216.594 164.267 216.23 164.608C215.429 165.358 214.298 166.324 213.114 167.281C211.93 168.238 210.702 169.179 209.708 169.879C209.211 170.23 208.779 170.515 208.445 170.711C208.277 170.809 208.143 170.879 208.042 170.924C208.015 170.936 207.994 170.945 207.977 170.951C207.935 170.932 207.878 170.905 207.807 170.868C207.629 170.776 207.387 170.638 207.096 170.462C206.517 170.111 205.768 169.624 204.99 169.086C203.434 168.009 201.236 166.298 200.117 165.293C200.117 165.293 200.117 165.293 200.117 165.293ZM217.288 163.48C217.288 163.48 217.287 163.481 217.286 163.483C217.287 163.481 217.288 163.48 217.288 163.48Z" stroke="#0E0E52"/>
<path d="M312.606 251.841C304.562 248.553 298.643 243.838 290.975 234.548C289.814 233.142 288.401 231.152 287.316 229.474C286.773 228.635 286.319 227.882 286.021 227.326C285.972 227.233 285.927 227.147 285.888 227.069C286.162 227.112 286.495 227.175 286.848 227.254C290.628 228.098 294.029 227.591 296.026 225.682L296.602 225.131L300.066 228.792C304.73 233.72 307.885 237.989 310.349 242.686C311.798 245.447 313.032 248.136 313.807 250.124C314.196 251.122 314.462 251.924 314.585 252.464C314.597 252.517 314.607 252.566 314.616 252.611C314.516 252.577 314.404 252.537 314.282 252.492C313.821 252.324 313.225 252.093 312.606 251.841ZM314.656 252.998C314.656 252.998 314.656 252.996 314.657 252.993C314.656 252.996 314.656 252.998 314.656 252.998Z" stroke="#0E0E52"/>
<path d="M283.721 239.528L283.721 239.528C284.173 239.476 284.63 239.465 284.995 239.487C285.178 239.498 285.328 239.518 285.438 239.541C285.507 239.555 285.544 239.568 285.558 239.573C285.569 239.585 285.593 239.611 285.629 239.656C285.685 239.727 285.756 239.825 285.84 239.951C286.008 240.203 286.217 240.546 286.458 240.963C286.939 241.797 287.534 242.907 288.162 244.136C289.419 246.595 290.795 249.505 291.642 251.591C292.899 254.692 293.945 257.862 294.558 260.243C294.865 261.437 295.059 262.412 295.12 263.074C295.134 263.22 295.14 263.343 295.141 263.445C295.021 263.376 294.88 263.292 294.721 263.195C294.241 262.902 293.617 262.497 292.966 262.053C289.859 259.932 285.766 256.131 283.29 253.067L281.41 250.74L281.895 247.873C282.187 246.151 282.424 243.502 282.423 241.966L282.421 239.677L283.721 239.528ZM295.112 263.77C295.112 263.77 295.112 263.77 295.113 263.769L295.112 263.77Z" stroke="#0E0E52"/>
<path d="M54.7906 115.958L54.7906 115.958C54.8159 115.669 54.8419 115.47 54.8751 115.33C54.896 115.241 54.9153 115.197 54.9253 115.178C54.9312 115.177 54.9393 115.176 54.95 115.175C55.0238 115.166 55.1463 115.17 55.3616 115.199L55.3616 115.199C56.2365 115.315 57.481 115.794 59.0401 116.628C60.5875 117.457 62.404 118.614 64.4119 120.048C68.4268 122.915 73.1808 126.869 78.0385 131.458L84.9919 138.027L86.3054 142.592C86.6762 143.88 87.0008 145.062 87.225 145.927C87.2734 146.114 87.3169 146.285 87.355 146.439C87.2534 146.391 87.1438 146.338 87.0267 146.281C86.3059 145.932 85.3228 145.433 84.2524 144.87C75.9902 140.522 69.3455 136.111 64.4659 131.782C59.5802 127.447 56.4991 123.226 55.3022 119.264C55.1317 118.7 54.9876 118.035 54.8943 117.422C54.7996 116.799 54.7636 116.268 54.7906 115.958ZM54.9113 115.182C54.9113 115.182 54.9117 115.182 54.9127 115.181L54.9113 115.182Z" stroke="#0E0E52"/>
<path d="M79.5547 123.124C76.2763 119.479 72.3423 114.347 70.4111 111.202C69.629 109.929 68.8516 108.507 68.3102 107.407C68.2108 107.205 68.1202 107.015 68.0393 106.841C68.2631 107.011 68.5112 107.208 68.7759 107.425C69.7135 108.197 70.8326 109.207 71.7668 110.155C75.0554 113.49 76.7333 115.68 78.1578 118.463C78.894 119.901 79.7545 121.816 80.4052 123.398C80.5727 123.806 80.7254 124.189 80.8581 124.535C80.4706 124.128 80.0242 123.646 79.5547 123.124Z" stroke="#0E0E52"/>
<path d="M86.1359 160.965C70.9207 157.956 57.3234 153.128 49.3766 147.946C47.0319 146.417 44.9144 144.567 43.4936 142.94C42.7811 142.125 42.2606 141.384 41.9696 140.783C41.8241 140.483 41.746 140.237 41.7208 140.049C41.6956 139.861 41.727 139.765 41.7544 139.72C41.9632 139.373 42.5083 139.023 43.5873 138.789C44.6405 138.56 46.0901 138.466 47.9334 138.523C55.1606 138.748 65.4168 142.466 78.5877 149.716C80.5449 150.793 83.9818 152.576 86.2304 153.681L90.1111 155.587L90.9919 158.554C91.4211 160 91.8515 161.402 92.0479 161.995C91.9777 161.992 91.8951 161.986 91.7984 161.977C90.9345 161.897 89.2596 161.583 86.1359 160.965Z" stroke="#0E0E52"/>
<path d="M54.079 173.474C57.5416 174.591 62.9211 175.354 70.0833 175.724C75.481 176.002 90.3814 175.549 95.283 174.959L96.1639 174.853L95.2723 172.117C94.7526 170.522 94.4897 169.756 94.2754 169.373C94.1778 169.199 94.1255 169.173 94.1196 169.17L94.1194 169.17C94.1054 169.163 94.0675 169.148 93.8887 169.147L54.079 173.474ZM54.079 173.474C51.5343 172.653 48.7735 171.315 46.7127 170.027M54.079 173.474L46.7127 170.027M46.7127 170.027C45.6805 169.383 44.8436 168.763 44.3007 168.241M46.7127 170.027L44.3007 168.241M44.3007 168.241C44.0272 167.977 43.849 167.758 43.7534 167.591M44.3007 168.241L43.7534 167.591M43.7534 167.591C43.6989 167.495 43.6852 167.441 43.6817 167.419M43.7534 167.591L43.6817 167.419M43.6817 167.419C43.6915 167.405 43.7119 167.377 43.7509 167.337C43.8161 167.269 43.9126 167.186 44.0445 167.09C44.3081 166.899 44.6778 166.68 45.1332 166.45C46.042 165.991 47.2469 165.509 48.5205 165.122C50.22 164.606 51.5001 164.466 56.4658 164.307C64.4255 164.051 71.7522 164.816 81.1863 166.894C83.4665 167.397 86.3519 167.958 88.8024 168.394C90.0277 168.613 91.147 168.8 92.0294 168.932C92.8933 169.063 93.5725 169.147 93.8883 169.147L43.6817 167.419Z" stroke="#0E0E52"/>
<path d="M61.1714 199.108C58.5771 198.822 56.4119 198.511 54.9003 198.218C54.1418 198.071 53.563 197.931 53.1809 197.807C53.0965 197.779 53.0263 197.754 52.9688 197.731C52.9949 197.678 53.0275 197.618 53.0672 197.55C53.2084 197.308 53.4195 197.006 53.6873 196.664C54.2218 195.982 54.9548 195.179 55.7324 194.453L55.3912 194.088L55.7324 194.453C60.0767 190.399 67.1661 187.196 79.2508 183.922C81.5868 183.289 82.8839 182.956 84.4294 182.719C85.9819 182.48 87.7911 182.337 91.1497 182.095C93.0921 181.956 94.9048 181.838 96.2599 181.761C96.9378 181.723 97.4993 181.695 97.9046 181.679C98.1077 181.671 98.2685 181.667 98.384 181.666C98.3929 181.665 98.4016 181.665 98.4099 181.665C98.427 181.688 98.4469 181.716 98.4696 181.75C98.5776 181.911 98.7173 182.15 98.8802 182.459C99.2045 183.072 99.6003 183.919 99.9906 184.855L100.452 184.663L99.9906 184.855L101.251 187.88L99.1111 189.283C92.3386 193.723 83.6558 197.14 75.8344 198.445C74.5412 198.66 71.393 198.884 68.2805 199.024C65.1596 199.165 62.1675 199.217 61.1714 199.108Z" stroke="#0E0E52"/>
<path d="M71.5276 219.834C71.491 219.833 71.457 219.832 71.4254 219.83C71.5451 219.649 71.7415 219.368 71.9991 219.014C72.3719 218.501 72.847 217.869 73.3337 217.243C75.9054 213.935 79.5854 210.261 83.3592 207.081C87.1384 203.897 90.9751 201.24 93.8543 199.943C96.7341 198.645 98.255 197.82 102.165 195.438C102.809 195.046 103.411 194.691 103.863 194.434C104.03 194.339 104.175 194.259 104.293 194.195C104.32 194.237 104.349 194.284 104.381 194.335C104.561 194.626 104.791 195.036 105.025 195.491C105.516 196.445 106.745 198.437 107.758 199.928L109.342 202.257L108.697 202.812L109.023 203.191L108.697 202.812C100.806 209.608 94.2682 214.091 89.2328 216.193C84.2575 218.271 77.3729 219.781 72.6763 219.834C72.1741 219.839 71.8025 219.841 71.5276 219.834ZM71.0574 219.792C71.0552 219.791 71.0542 219.791 71.0542 219.791C71.0543 219.791 71.0554 219.791 71.0574 219.792ZM71.2403 220.163C71.2402 220.163 71.2405 220.162 71.2412 220.16C71.2407 220.162 71.2403 220.163 71.2403 220.163Z" stroke="#0E0E52"/>
<path d="M82.2201 242.402C82.351 242.115 82.5391 241.752 82.7778 241.324C83.285 240.416 84.0038 239.247 84.8406 237.964C86.5143 235.396 88.6434 232.394 90.4601 230.133C94.7393 224.808 102.792 216.503 106.619 213.458C107.748 212.56 109.955 210.735 111.527 209.401C112.227 208.807 112.749 208.365 113.153 208.04C113.561 207.711 113.823 207.523 114.006 207.422C114.126 207.356 114.18 207.345 114.196 207.343C114.201 207.345 114.214 207.35 114.241 207.365C114.281 207.388 114.331 207.423 114.412 207.483L114.709 207.704L113.771 209.362C113.266 210.254 112.95 210.867 112.771 211.47C112.589 212.086 112.556 212.665 112.561 213.471C112.57 214.883 112.72 215.65 113.275 216.4C113.704 216.98 114.496 217.549 115.287 217.966C116.06 218.373 116.946 218.695 117.628 218.7C117.567 218.782 117.499 218.87 117.425 218.965C117.029 219.478 116.479 220.165 115.873 220.901L116.226 221.192L115.873 220.901C112.57 224.916 105.938 231.578 103.214 233.629C100.326 235.804 95.8204 238.17 91.7514 239.642C89.8142 240.342 87.2295 241.131 85.1281 241.701C84.077 241.985 83.1552 242.213 82.5004 242.347C82.3991 242.368 82.3056 242.386 82.2201 242.402ZM114.202 207.344C114.202 207.344 114.2 207.344 114.197 207.343C114.2 207.343 114.202 207.343 114.202 207.344Z" stroke="#0E0E52"/>
<path d="M103.015 252.907C104.842 247.479 108.781 240.05 112.247 235.494C112.923 234.605 115.085 232.137 117.055 230.01L120.285 226.522L121.024 227.25C121.47 227.69 121.883 228.017 122.367 228.266C122.849 228.514 123.376 228.671 124.033 228.802C125.797 229.153 128.518 228.988 130.685 228.42C130.822 228.384 130.955 228.353 131.077 228.328C130.959 228.57 130.805 228.858 130.63 229.161C130.387 229.584 130.164 229.999 130.001 230.328C129.92 230.491 129.851 230.639 129.801 230.759C129.776 230.819 129.753 230.878 129.736 230.933C129.728 230.958 129.711 231.012 129.701 231.077C129.689 231.104 129.667 231.145 129.632 231.204C129.555 231.335 129.436 231.518 129.276 231.75C128.957 232.212 128.493 232.84 127.922 233.587C126.781 235.077 125.224 237.02 123.565 239.003C116.984 246.872 111.789 250.863 104.326 253.827C103.631 254.103 102.984 254.354 102.502 254.535C102.501 254.535 102.501 254.535 102.501 254.535C102.626 254.099 102.805 253.53 103.015 252.907ZM129.714 231.048C129.714 231.047 129.713 231.051 129.71 231.058C129.712 231.051 129.713 231.048 129.714 231.048Z" stroke="#0E0E52"/>
<path d="M133.637 240.887L133.637 240.887L134.717 240.992L134.748 243.341L134.748 243.341C134.769 244.911 135.043 247.507 135.358 249.132C135.398 249.336 135.435 249.524 135.47 249.697C135.579 250.248 135.66 250.66 135.705 251.009C135.76 251.453 135.747 251.741 135.663 252.018C135.576 252.305 135.4 252.622 135.053 253.102C134.787 253.469 134.442 253.905 133.992 254.473C133.852 254.65 133.702 254.84 133.54 255.045C130.768 258.562 126.843 262.122 122.887 264.704C122.542 264.928 122.274 265.094 122.07 265.209C122.094 265.058 122.124 264.884 122.158 264.692C122.262 264.102 122.408 263.348 122.568 262.573C123.659 257.303 126.509 249.869 129.904 243.466C130.589 242.175 131.045 241.376 131.368 240.918C131.499 240.733 131.591 240.628 131.651 240.572C131.842 240.627 132.113 240.679 132.391 240.725C132.763 240.786 133.207 240.845 133.637 240.887ZM131.519 240.529C131.519 240.529 131.52 240.529 131.521 240.53C131.52 240.529 131.519 240.529 131.519 240.529L131.519 240.529Z" stroke="#0E0E52"/>
<path d="M186.909 188.257C185.186 187.421 182.367 185.16 179.756 182.675C178.459 181.44 177.228 180.164 176.226 179.004C175.218 177.835 174.468 176.813 174.107 176.081C173.528 174.909 173.238 174.168 173.113 173.115C172.985 172.031 173.031 170.607 173.18 168.067C173.362 164.972 173.652 161.676 173.819 160.735C173.891 160.327 173.93 159.944 173.886 159.556C173.841 159.162 173.716 158.789 173.495 158.392C173.071 157.629 172.267 156.736 170.948 155.375C167.423 151.738 164.372 147.419 162.197 143.197C160.017 138.966 158.74 134.877 158.713 131.695C158.7 130.231 159.408 128.227 160.8 125.885C162.183 123.558 164.205 120.955 166.737 118.309C170.091 114.803 173.876 111.587 177.245 109.248C178.929 108.078 180.502 107.133 181.857 106.481C183.229 105.821 184.324 105.488 185.073 105.481C186.11 105.472 188.114 105.948 190.851 106.87C193.562 107.784 196.927 109.112 200.648 110.756C202.297 111.485 203.872 112.147 205.083 112.627C205.688 112.868 206.206 113.064 206.598 113.201C206.794 113.269 206.963 113.324 207.1 113.363C207.212 113.395 207.367 113.436 207.496 113.435C207.577 113.434 207.655 113.418 207.706 113.406C207.765 113.392 207.832 113.373 207.901 113.351C208.04 113.308 208.214 113.246 208.415 113.17C208.818 113.018 209.352 112.8 209.977 112.534C211.227 112.001 212.856 111.269 214.564 110.465C217.903 108.893 221.166 107.55 223.886 106.598C226.631 105.637 228.754 105.1 229.846 105.091C230.508 105.085 231.555 105.402 232.911 106.048C234.246 106.684 235.819 107.608 237.509 108.744C240.889 111.015 244.704 114.109 247.987 117.375C250.601 119.975 252.594 122.339 253.975 124.461C255.359 126.587 256.109 128.442 256.275 130.03C256.597 133.098 255.567 137.24 253.487 141.667C251.413 146.08 248.324 150.718 244.603 154.76C243.412 156.053 242.647 156.97 242.219 157.727C241.77 158.521 241.676 159.169 241.837 159.888C241.918 160.252 242.045 161.246 242.183 162.587C242.32 163.914 242.464 165.546 242.582 167.163C242.778 169.848 242.852 171.339 242.743 172.46C242.637 173.547 242.359 174.293 241.796 175.485C241.441 176.237 240.7 177.285 239.703 178.48C238.712 179.667 237.493 180.971 236.207 182.232C233.619 184.771 230.819 187.079 229.096 187.933C227.838 188.557 227.252 188.822 226.382 188.869C225.464 188.918 224.231 188.725 221.697 188.302C218.878 187.831 215.141 187.072 213.401 186.618C211.33 186.078 209.717 185.806 208.053 185.828C206.392 185.85 204.709 186.164 202.498 186.759C201.033 187.153 198.011 187.819 195.221 188.388C193.829 188.673 192.499 188.932 191.458 189.121C190.937 189.215 190.49 189.291 190.145 189.344C189.838 189.391 189.636 189.415 189.532 189.422C189.532 189.422 189.531 189.422 189.531 189.421C189.493 189.41 189.436 189.39 189.36 189.361C189.208 189.303 189 189.218 188.749 189.109C188.249 188.892 187.595 188.59 186.909 188.257ZM189.563 189.43C189.565 189.431 189.564 189.431 189.559 189.43C189.561 189.43 189.562 189.43 189.563 189.43ZM213.614 175.735C216.283 173.946 218.954 171.732 221.026 169.688C222.062 168.666 222.956 167.679 223.627 166.803C224.285 165.942 224.771 165.135 224.927 164.479C225.2 163.326 225.174 162.256 224.802 161.285C224.429 160.314 223.728 159.489 222.733 158.795C220.764 157.422 217.573 156.513 213.172 155.964C208.291 155.356 203.108 155.686 198.972 156.642C196.906 157.12 195.081 157.758 193.681 158.528C192.298 159.288 191.245 160.221 190.866 161.331C190.439 162.581 190.443 163.758 190.973 165.039C191.491 166.29 192.502 167.618 194.03 169.214C195.772 171.033 198.716 173.36 201.439 175.228C202.803 176.165 204.123 176.994 205.222 177.592C205.771 177.891 206.272 178.137 206.701 178.31C207.114 178.476 207.514 178.598 207.84 178.601C208.125 178.603 208.494 178.493 208.865 178.352C209.257 178.203 209.722 177.991 210.229 177.734C211.245 177.22 212.453 176.513 213.614 175.735ZM192.689 144.074C195.131 143.475 196.804 142.905 197.867 142.182C198.409 141.812 198.809 141.392 199.068 140.891C199.327 140.39 199.427 139.845 199.422 139.256C199.417 138.744 199.322 138.216 199.171 137.77C199.028 137.349 198.802 136.904 198.471 136.663C198.267 136.515 197.818 136.269 197.234 135.969C196.635 135.661 195.854 135.275 194.955 134.841C193.157 133.973 190.877 132.907 188.617 131.872C186.356 130.837 184.112 129.832 182.383 129.086C181.519 128.713 180.781 128.403 180.232 128.186C179.958 128.078 179.727 127.991 179.548 127.93C179.459 127.9 179.378 127.874 179.308 127.855C179.254 127.841 179.155 127.816 179.056 127.817C177.869 127.827 177.015 128.553 176.484 129.576C175.959 130.587 175.713 131.937 175.71 133.382C175.704 136.27 176.668 139.744 178.652 142.066C179.097 142.587 179.64 143.112 180.159 143.542C180.666 143.963 181.193 144.329 181.604 144.492C182.669 144.913 184.432 145.048 186.386 144.969C188.362 144.888 190.611 144.584 192.689 144.074ZM236.207 142.012C238.3 139.682 239.376 136.083 239.446 133.083C239.48 131.582 239.265 130.176 238.754 129.127C238.236 128.063 237.375 127.308 236.152 127.318C236.054 127.319 235.957 127.344 235.9 127.36C235.828 127.38 235.746 127.407 235.656 127.439C235.475 127.502 235.242 127.593 234.966 127.706C234.415 127.932 233.675 128.254 232.811 128.641C231.081 129.415 228.84 130.457 226.583 131.529C224.327 132.601 222.053 133.706 220.258 134.606C219.361 135.057 218.581 135.457 217.982 135.777C217.399 136.089 216.949 136.346 216.744 136.502C215.919 137.127 215.72 138.304 215.858 139.323C215.999 140.36 216.515 141.469 217.417 142.05C218.612 142.82 220.701 143.471 222.973 143.907C225.263 144.347 227.812 144.582 229.97 144.482C231.819 144.397 232.936 144.322 233.807 143.981C234.711 143.627 235.317 143.003 236.207 142.012Z" stroke="#0E0E52"/>
<path d="M203.61 204.465C198.25 203.94 194.964 203.083 191.375 201.3C189.807 200.52 187.845 199.122 186.269 197.764C185.483 197.087 184.806 196.431 184.33 195.879C184.091 195.603 183.912 195.363 183.794 195.168C183.736 195.071 183.698 194.992 183.675 194.932C183.653 194.874 183.652 194.849 183.652 194.849C183.652 194.849 183.652 194.849 183.652 194.849C183.652 194.839 183.651 194.828 183.651 194.818C183.651 194.76 183.65 194.709 183.65 194.664C183.754 194.693 183.897 194.74 184.093 194.813C184.448 194.945 184.921 195.139 185.563 195.401C185.592 195.413 185.621 195.425 185.65 195.437C187.172 196.06 189.386 196.23 192.19 196.008C195.009 195.785 198.484 195.161 202.567 194.146L208.1 192.77L213.656 194.049C217.767 194.995 221.253 195.559 224.074 195.731C226.883 195.902 229.091 195.691 230.611 195.037C231.216 194.777 231.79 194.575 232.223 194.458C232.334 194.428 232.432 194.405 232.516 194.388C232.499 194.502 232.469 194.642 232.425 194.808C232.292 195.313 232.052 195.98 231.745 196.701C231.127 198.152 230.277 199.739 229.577 200.608C229.349 200.892 229.16 201.117 229.005 201.29C228.994 201.149 228.973 201.009 228.932 200.889C228.893 200.773 228.818 200.623 228.666 200.511C228.506 200.395 228.329 200.369 228.181 200.38C227.93 200.398 227.657 200.531 227.401 200.672C227.121 200.826 226.762 201.049 226.313 201.333C224.285 202.613 220.815 203.619 216.71 204.191C212.622 204.76 207.967 204.891 203.61 204.465Z" stroke="#0E0E52"/>
<path d="M141.476 91.7364L141.476 91.7364C143.753 92.742 155.434 97.1664 159.868 98.7039L162.697 99.685L161.442 100.979C161.01 101.424 160.687 101.754 160.437 101.993C160.22 102.201 160.079 102.319 159.985 102.383C159.97 102.366 159.953 102.345 159.932 102.32C159.739 102.087 159.539 101.878 159.258 101.684C158.983 101.492 158.649 101.33 158.203 101.163C157.324 100.835 155.915 100.46 153.454 99.8339C151.09 99.2321 149.629 98.9038 148.623 98.86C148.108 98.8375 147.682 98.8874 147.298 99.0296C146.913 99.1722 146.608 99.3942 146.319 99.6587C146.038 99.9151 145.79 100.186 145.615 100.541C145.438 100.898 145.353 101.302 145.333 101.801C145.294 102.768 145.5 104.224 145.899 106.653C146.263 108.862 146.601 110.531 146.918 111.656C147.075 112.214 147.234 112.663 147.399 112.982C147.481 113.141 147.578 113.293 147.696 113.412C147.808 113.525 147.984 113.653 148.22 113.664C148.223 113.665 148.227 113.666 148.232 113.667C148.259 113.675 148.296 113.688 148.344 113.708C148.386 113.726 148.431 113.746 148.476 113.769C148.294 114.046 147.888 114.501 147.128 115.283C146.62 115.806 146.14 116.28 145.776 116.621C145.702 116.691 145.633 116.754 145.571 116.811C145.544 116.757 145.516 116.699 145.487 116.636C145.289 116.215 145.037 115.627 144.782 114.977C143.696 112.208 142.634 108.244 141.955 104.401C141.299 100.695 140.54 94.2175 140.519 92.2035C140.519 92.2034 140.519 92.2034 140.519 92.2033L140.51 91.3098L141.476 91.7364Z" stroke="#0E0E52"/>
<path d="M154.18 108.383C153.729 108.842 153.411 109.161 153.186 109.377C153.103 108.922 152.999 108.302 152.905 107.707C152.843 107.314 152.787 106.938 152.745 106.638C153.067 106.709 153.475 106.806 153.891 106.908C154.346 107.02 154.806 107.137 155.168 107.235C155.191 107.242 155.214 107.248 155.236 107.254C154.999 107.53 154.646 107.908 154.18 108.383ZM155.544 106.853C155.544 106.853 155.544 106.854 155.542 106.857C155.543 106.854 155.544 106.853 155.544 106.853ZM153.301 109.952C153.301 109.952 153.301 109.953 153.301 109.953C153.301 109.953 153.301 109.953 153.301 109.953C153.301 109.953 153.301 109.952 153.301 109.952Z" stroke="#0E0E52"/>
<path d="M260.481 107.4L260.481 107.4L259.43 106.362L261.099 105.9C261.409 105.814 261.7 105.744 261.933 105.697C261.931 105.721 261.929 105.745 261.927 105.77C261.893 106.141 261.835 106.631 261.768 107.127C261.706 107.594 261.636 108.061 261.572 108.431C261.274 108.166 260.891 107.806 260.481 107.4Z" stroke="#0E0E52"/>
<path d="M255.135 101.938L254.721 101.675C254.943 101.327 255.346 100.888 255.657 100.674L255.135 101.938ZM255.135 101.938L254.721 101.675L254.703 101.704L253.201 100.227L252.851 100.584M255.135 101.938L252.851 100.584M252.851 100.584L253.201 100.227L251.818 98.8673L255.527 97.4783C263.044 94.6631 269.817 91.9487 273.453 90.293C273.687 90.1867 273.908 90.0896 274.099 90.0086C274.099 90.0194 274.098 90.0303 274.098 90.0413C274.079 90.4995 274.045 91.1338 274.001 91.8488C273.912 93.2786 273.785 95.0198 273.667 96.3C273.073 102.768 271.991 108.493 270.573 112.731C270.312 113.513 269.948 114.473 269.635 115.234C269.522 115.509 269.417 115.756 269.327 115.956C269.266 115.899 269.198 115.836 269.126 115.769C268.721 115.391 268.168 114.871 267.565 114.299C266.89 113.658 266.399 113.174 266.086 112.841L252.851 100.584Z" stroke="#0E0E52"/>
<path d="M125.272 281.117L125.194 280.623L125.272 281.117C125.941 281.011 126.665 280.973 127.214 280.993C127.347 280.998 127.464 281.006 127.565 281.016C127.465 281.233 127.336 281.506 127.194 281.795L127.643 282.015L127.194 281.795C124.931 286.406 120.741 297.065 118.938 302.793C116.749 309.75 115.908 313.91 115.79 318.476C115.739 320.443 115.799 321.842 116.128 323.242C116.456 324.639 117.044 326.01 118.005 327.931C121.714 335.34 127.37 343.728 141.295 362.496C142.065 363.534 142.795 364.533 143.35 365.304C143.627 365.69 143.86 366.018 144.032 366.266C144.118 366.39 144.188 366.492 144.24 366.57C144.266 366.609 144.286 366.641 144.302 366.666C144.31 366.678 144.316 366.688 144.32 366.695L144.325 366.704C144.326 366.706 144.327 366.706 144.327 366.706C144.371 366.788 144.38 366.823 144.383 366.848C144.386 366.874 144.387 366.93 144.353 367.055C144.278 367.329 144.081 367.766 143.666 368.622C143.179 369.626 140.928 373.334 138.653 376.87C133.33 385.144 130.144 390.572 129.05 393.263L128.869 393.708L121.007 393.776C118.494 393.798 116.438 393.797 115.002 393.775C114.283 393.764 113.724 393.748 113.343 393.728C113.302 393.726 113.263 393.724 113.226 393.721C113.246 393.669 113.269 393.611 113.297 393.547C113.449 393.2 113.706 392.748 114.036 392.247C114.696 391.246 115.608 390.117 116.447 389.34C118.891 387.076 123.085 384.943 127.485 383.764C127.956 383.638 128.446 383.478 128.857 383.323C129.249 383.174 129.628 383.008 129.835 382.859C129.973 382.759 130.103 382.61 130.217 382.462C130.338 382.305 130.467 382.114 130.598 381.9C130.86 381.473 131.145 380.936 131.409 380.36C131.891 379.31 133.504 375.941 134.993 372.871L135.079 372.693C135.848 371.107 136.434 369.899 136.855 368.95C137.29 367.971 137.566 367.23 137.684 366.607C137.807 365.96 137.76 365.437 137.564 364.903C137.388 364.427 137.093 363.946 136.748 363.386L136.694 363.299C136.131 362.382 134.973 360.717 134.117 359.589C132.658 357.667 131.393 356.156 122.431 345.629C112.941 334.481 108.715 327.9 107.431 322.462C105.873 315.865 107.887 305.637 112.875 295.377C115.36 290.266 117.847 286.418 120.396 283.707L120.032 283.364L120.396 283.707C121.175 282.878 121.851 282.324 122.59 281.932C123.33 281.539 124.161 281.293 125.272 281.117ZM113.155 393.998C113.155 393.998 113.155 393.996 113.155 393.991C113.155 393.995 113.155 393.998 113.155 393.998Z" stroke="#0E0E52"/>
<path d="M289.651 389.954C287.829 386.445 285.642 382.912 281.14 376.193C278.959 372.938 277.482 370.68 276.513 369.103C275.532 367.506 275.105 366.658 274.978 366.199C274.95 366.101 274.916 366.004 274.894 365.941C274.887 365.921 274.881 365.905 274.877 365.892C274.857 365.831 274.857 365.817 274.857 365.812L274.857 365.812C274.857 365.797 274.86 365.695 275.092 365.308C275.465 364.684 276.268 363.563 277.908 361.272C278.257 360.785 278.643 360.246 279.071 359.647C289.86 344.555 295.098 336.616 298.898 329.581C300.532 326.558 301.91 323.553 302.343 322.034C302.461 321.621 302.531 320.955 302.569 320.191C302.609 319.412 302.618 318.486 302.599 317.53C302.561 315.623 302.413 313.553 302.166 312.244C300.686 304.423 296.885 293.814 291.343 281.996C290.977 281.216 290.645 280.501 290.404 279.978C290.351 279.863 290.303 279.758 290.26 279.663C290.412 279.65 290.588 279.64 290.781 279.634C291.438 279.611 292.217 279.629 292.728 279.697C293.799 279.84 294.513 280.033 295.198 280.419C295.895 280.812 296.595 281.422 297.603 282.461C301.372 286.345 304.996 292.648 307.601 299.235C310.208 305.828 311.761 312.619 311.455 317.464C311.148 322.327 309.167 326.936 304.241 334.018C301.974 337.277 298.844 341.255 292.743 348.625C288.401 353.87 285.576 357.418 283.837 359.884C282.968 361.116 282.359 362.092 281.968 362.885C281.58 363.672 281.383 364.32 281.388 364.884C281.39 365.067 281.458 365.302 281.53 365.516C281.61 365.753 281.724 366.044 281.863 366.372C282.142 367.03 282.533 367.861 282.988 368.753C283.832 370.41 285.484 373.748 286.658 376.17C287.276 377.445 287.874 378.61 288.36 379.497C288.603 379.94 288.82 380.317 288.999 380.606C289.164 380.873 289.331 381.121 289.471 381.251C289.963 381.707 290.842 382.038 292.062 382.333C296.963 383.52 301.616 385.983 304.154 388.684C304.667 389.23 305.311 390.106 305.829 390.923C306.088 391.329 306.308 391.71 306.463 392.019C306.473 392.039 306.483 392.059 306.492 392.079C306.076 392.098 305.472 392.117 304.723 392.135C303.221 392.171 301.147 392.204 298.865 392.224L290.866 392.294L289.651 389.954ZM289.811 380.885C290.198 381.243 290.957 381.551 292.18 381.847C297.144 383.05 301.895 385.55 304.519 388.342C305.406 389.287 306.615 391.106 307.028 392.045L289.811 380.885Z" stroke="#0E0E52"/>
<path d="M285.478 269.38L285.478 269.38C285.461 267.837 285.356 265.928 285.24 265.132L285.24 265.132L285.213 264.947L286.699 266.062C289.024 267.806 291.732 269.53 294.974 271.334C295.666 271.719 296.904 272.8 297.688 273.727C297.885 273.961 298.06 274.17 298.214 274.356C298.199 274.348 298.183 274.34 298.167 274.332C295.98 273.2 294.094 272.908 289.956 272.975C288.715 272.995 287.818 273.008 287.153 272.955C286.477 272.902 286.145 272.786 285.958 272.632C285.789 272.493 285.656 272.256 285.578 271.718C285.5 271.174 285.49 270.433 285.478 269.38Z" stroke="#0E0E52"/>
<path d="M276.494 270.403L276.494 270.403L276.278 270.234L276.911 268C277.31 266.592 277.873 264.56 278.162 263.483C278.174 263.438 278.186 263.394 278.198 263.35C278.299 263.878 278.403 264.466 278.491 265.024C278.639 265.957 278.684 266.791 278.699 269.063L278.699 269.063C278.704 269.852 278.698 270.616 278.685 271.211C278.679 271.502 278.67 271.751 278.661 271.941L278.133 271.577C277.482 271.128 276.744 270.599 276.494 270.403Z" stroke="#0E0E52"/>
<path d="M280.687 231.843L280.795 231.702C280.901 231.902 281.034 232.159 281.169 232.423C281.213 232.51 281.257 232.597 281.299 232.681C280.905 232.587 280.561 232.499 280.423 232.454C280.387 232.443 280.358 232.433 280.334 232.425C280.327 232.408 280.319 232.388 280.31 232.364L280.31 232.364L280.302 232.343L280.687 231.843L280.687 231.843Z" stroke="#0E0E52"/>
<path d="M289.569 220.85L289.569 220.85L289.566 220.849C289.521 220.845 289.414 220.833 289.283 220.819C289.175 220.808 289.049 220.794 288.926 220.782L288.926 220.782C288.71 220.759 288.382 220.711 288.087 220.662C288.141 220.562 288.2 220.453 288.262 220.34C288.432 220.031 288.611 219.701 288.743 219.457C288.965 219.715 289.224 220.025 289.421 220.273L289.813 219.963L289.421 220.273C289.554 220.441 289.714 220.655 289.864 220.863C289.733 220.86 289.625 220.856 289.569 220.85ZM289.227 221.316C289.119 221.305 288.994 221.291 288.874 221.279L289.516 221.347C289.469 221.342 289.36 221.33 289.227 221.316Z" stroke="#0E0E52"/>
<path d="M120.778 203.884C113.967 198.58 109.804 191.907 104.308 177.288C100.944 168.341 98.8109 161.479 92.2501 138.491C89.8858 130.206 88.043 124.278 87.0003 121.616C84.4583 115.126 81.2098 109.36 72.8452 96.4512C70.7989 93.2932 69.4283 91.1711 68.5278 89.7557C68.5359 89.7636 68.544 89.7715 68.5521 89.7794C69.7657 90.9608 71.1658 92.3808 72.0385 93.3436C78.4903 100.461 86.4741 112.184 91.1873 121.466C94.9668 128.908 97.3312 135.61 101.56 150.916C105.556 165.376 107.442 170.805 110.669 177.068C113.046 181.681 115.216 184.817 118.67 188.63L120.306 190.436L120.457 193.959C120.617 197.673 121.023 201.329 121.601 204.234C121.623 204.349 121.645 204.46 121.666 204.568C121.401 204.366 121.098 204.133 120.778 203.884Z" stroke="#0E0E52"/>
<path d="M66.3181 98.7942C66.3639 98.8666 66.4073 98.9356 66.4483 99.0007C66.3171 98.9964 66.1753 98.9902 66.027 98.982L66.0267 98.9819C64.6804 98.9078 63.5077 99.1768 62.5826 99.8097C61.7774 100.361 61.1966 101.162 60.8495 102.168C60.5068 101.794 59.9576 101.125 59.0582 100.011C46.3209 84.2402 38.6331 67.1235 36.1605 49.0697C35.0573 41.0149 35.1251 32.9056 36.1992 25.8141C37.2747 18.7125 39.3524 12.6768 42.2329 8.73338L43.2559 7.33295L44.9037 7.31675C45.0773 7.31504 45.2315 7.31248 45.3694 7.31019C45.6823 7.305 45.9117 7.30119 46.0946 7.3118C46.1857 7.31709 46.244 7.32563 46.2794 7.33271C46.283 7.37616 46.2852 7.45608 46.2742 7.59203C46.2576 7.79698 46.2208 8.05267 46.1716 8.39482C46.1502 8.54336 46.1264 8.70819 46.101 8.89225C45.538 12.9667 45.3203 16.9217 45.2764 23.7818C45.2044 35.0398 45.8043 41.6579 47.6274 49.6005C49.7933 59.0366 53.7016 69.7923 58.0841 78.3773L58.983 80.1382L58.5987 80.8783C58.2367 81.5754 58.0457 82.3121 58.0795 83.1838C58.1129 84.0435 58.3642 85.011 58.8469 86.1773C59.8081 88.5 61.7399 91.7316 64.9463 96.6604C65.4809 97.4822 65.9665 98.2383 66.3181 98.7942ZM61.1937 102.499C61.1937 102.499 61.1917 102.498 61.1876 102.495C61.1916 102.497 61.1937 102.498 61.1937 102.499Z" stroke="#0E0E52"/>
<path d="M56.0931 107.002C56.598 107.594 57.0564 108.142 57.4201 108.586C57.4102 108.583 57.4003 108.581 57.3903 108.578C55.3831 108.064 53.5616 108.108 52.0361 108.731C50.5029 109.357 49.3191 110.546 48.5641 112.222C48.2932 112.824 48.1257 113.235 48.0455 113.819C47.9692 114.375 47.9731 115.081 47.9932 116.274C48.0162 117.647 48.1109 118.823 48.2751 119.64C47.7662 119.142 47.135 118.517 46.4561 117.836C28.6291 99.9481 17.8222 79.7386 16.3415 61.6883C16.0584 58.2369 16.1886 51.8374 16.5957 49.0164C17.1653 45.0705 18.8033 40.1859 20.5064 37.3191L20.5064 37.3191C20.6115 37.1422 20.7142 36.9822 20.8087 36.8452C20.831 36.9021 20.8543 36.9622 20.8786 37.0252C21.0673 37.5153 21.3083 38.1709 21.5555 38.8727C23.3186 43.8774 25.8039 48.9714 29.1274 54.4018C29.8544 55.5897 30.2646 56.2981 30.5435 56.9171C30.8172 57.5245 30.9695 58.057 31.1616 58.9012C35.0085 75.8128 43.5791 92.339 56.0931 107.002ZM21.1659 36.3999C21.1691 36.3974 21.1685 36.3982 21.1644 36.4011C21.1649 36.4007 21.1654 36.4002 21.1659 36.3999Z" stroke="#0E0E52"/>
<path d="M14.6495 81.8545C14.4549 81.5002 12.6661 79.3887 10.6744 77.1624L7.44414 73.5515L7.27567 74.1131M14.6495 81.8545L14.2113 82.0952C14.2113 82.0952 14.2113 82.0952 14.2113 82.0953M14.6495 81.8545C14.8441 82.2088 15.485 83.6398 16.0737 85.0344C22.7798 100.921 35.2931 117.096 52.2011 131.735C52.3398 131.856 52.4602 131.961 52.5633 132.054L14.6495 81.8545ZM7.27567 74.1131L6.88475 73.6761L6.68376 74.346C5.83109 77.1885 5.52823 79.4357 5.44916 83.5082M7.27567 74.1131L10.3018 77.4957C11.2952 78.6062 12.2373 79.6872 12.9544 80.5336C13.3132 80.9571 13.6139 81.3199 13.8361 81.5974C13.9473 81.7364 14.0369 81.8515 14.1034 81.9409C14.1367 81.9857 14.1627 82.022 14.1821 82.0503C14.1917 82.0643 14.199 82.0754 14.2042 82.0837C14.2093 82.0918 14.2114 82.0954 14.2113 82.0953M7.27567 74.1131L7.16268 74.4897L14.2113 82.0953M5.44916 83.5082L5.94906 83.5179C5.88298 86.9195 5.93891 87.9211 6.32643 90.4254C8.01782 101.356 13.1956 112.042 22.3905 123.487C24.8398 126.536 31.2079 132.937 34.1686 135.328L35.7449 136.6L35.8126 136.465L36.2597 136.689L35.8126 136.465C36.7554 134.583 39.1641 132.952 41.9129 132.186L42.0471 132.668L41.9129 132.186C43.1221 131.85 45.1342 131.684 47.1818 131.673C48.7142 131.665 50.3047 131.744 51.6447 131.915C34.8112 117.292 22.326 101.132 15.6131 85.2288C15.0211 83.8265 14.3909 82.4223 14.2113 82.0953M5.44916 83.5082L5.94906 83.5179C6.02756 79.4752 6.32688 77.2759 7.16268 74.4897L5.44916 83.5082ZM52.6101 132.365C52.6472 132.298 52.6946 132.25 52.7405 132.217C52.7905 132.264 52.8341 132.306 52.8717 132.344C53.1401 132.617 53.0959 132.67 52.8163 132.612C52.7305 132.594 52.6424 132.577 52.5522 132.56C52.556 132.502 52.5715 132.434 52.6101 132.365Z" stroke="#0E0E52"/>
<path d="M7.42084 117.826L7.42084 117.826L11.4835 120.154L13.0874 122.416C19.1337 130.944 27.3112 139.105 35.4232 144.703C36.2607 145.281 37.3273 146.247 37.7761 146.819C40.4877 150.28 45.2939 153.818 51.4372 156.929L52.7175 157.577L52.5832 157.588C49.3152 157.864 46.3263 158.545 43.8561 159.543C41.3925 160.537 39.4099 161.862 38.1991 163.448C38.0018 163.706 37.8113 163.938 37.6652 164.101C37.6549 164.112 37.6449 164.123 37.6354 164.134C37.5286 164.083 37.3947 164.018 37.2385 163.941C36.8341 163.741 36.2913 163.464 35.7086 163.16C27.6734 158.958 18.3609 151.724 13.3246 145.783C8.27213 139.824 5.05362 132.462 3.99035 124.418L3.49466 124.483L3.99035 124.418C3.86767 123.49 3.78169 121.383 3.75512 119.414C3.74191 118.435 3.74353 117.501 3.76198 116.779C3.77122 116.418 3.78456 116.114 3.80182 115.886C3.80263 115.876 3.80344 115.865 3.80425 115.855C3.86175 115.879 3.92977 115.909 4.0098 115.947C4.59893 116.224 5.6231 116.795 7.42084 117.826Z" stroke="#0E0E52"/>
<path d="M1.77597 148.937L1.77597 148.937L1.78731 148.695L8.39013 152.921C12.43 155.507 16.5373 158.29 17.5314 159.107C22.9545 163.565 29.4973 167.738 36.0003 170.888C37.9329 171.824 38.6581 172.305 39.6009 173.235C42.6873 176.279 48.7937 179.249 54.7977 180.679C56.1034 180.99 58.035 181.34 59.809 181.61C61.148 181.814 62.4291 181.978 63.2912 182.042C63.2195 182.073 63.1443 182.104 63.0656 182.137C57.5474 184.426 51.6684 188.32 49.0931 191.441C48.8585 191.725 48.6324 191.979 48.4591 192.159C48.4145 192.205 48.3751 192.244 48.3412 192.277C48.3112 192.27 48.2781 192.263 48.242 192.255C48.0496 192.211 47.7791 192.147 47.4499 192.069C46.7918 191.912 45.9027 191.697 44.9419 191.46C32.7005 188.452 23.8528 184.705 17.0309 179.675C10.0367 174.518 5.15075 166.77 2.95424 157.301C2.61526 155.84 2.30304 154.093 2.08423 152.53C1.86354 150.955 1.74429 149.611 1.77597 148.937Z" stroke="#0E0E52"/>
<path d="M9.78993 192.32L9.39123 192.51L9.78993 192.32C9.31186 191.321 8.82631 190.13 8.48379 189.169C8.33891 188.762 8.22208 188.403 8.14252 188.121C8.31497 188.168 8.51164 188.228 8.71778 188.298C11.9622 189.392 24.0118 192.513 26.8816 193.001C27.0642 193.032 27.5975 193.186 28.348 193.429C29.0808 193.667 29.9812 193.976 30.8711 194.298C34.7694 195.713 38.3801 196.79 43.0164 197.923L46.1133 198.68L46.2959 199.599C46.4665 200.458 46.7755 201.215 47.2826 201.878C47.789 202.539 48.4741 203.081 49.3621 203.536C51.1194 204.437 53.7301 205.026 57.4938 205.52C59.0964 205.73 62.6339 205.825 66.0934 205.817C69.5493 205.81 73.0094 205.698 74.4506 205.48C74.6152 205.455 74.7751 205.431 74.9269 205.41C74.392 205.979 73.6509 206.751 72.8286 207.594C71.5476 208.907 70.7756 209.672 70.245 210.125C69.7208 210.573 69.4865 210.668 69.2828 210.707C67.0682 211.128 59.9261 211.998 56.975 212.205C53.0274 212.482 45.8874 212.53 42.9884 212.301C36.5067 211.79 30.9148 210.41 26.2959 208.198C18.9095 204.66 12.9427 198.907 9.78993 192.32Z" stroke="#0E0E52"/>
<path d="M69.9636 226.569L69.9636 226.569C72.513 226.549 75.3816 226.463 76.5764 226.371C74.8874 227.393 72.2698 228.778 70.2748 229.689C64.1027 232.507 57.2952 233.901 51.6908 233.515C42.3551 232.871 32.1658 229.325 24.8216 224.17C23.7872 223.444 22.543 222.502 21.5713 221.728C21.2163 221.445 20.9005 221.187 20.6458 220.972C21.118 220.887 21.7355 220.784 22.4036 220.679C23.8533 220.452 27.0914 219.879 29.6017 219.405C32.2045 218.914 33.9081 218.652 35.4818 218.571C37.0504 218.491 38.5061 218.591 40.6129 218.84C44.7001 219.324 55.8277 219.219 61.0773 218.652C62.135 218.537 63.1051 218.444 63.8155 218.385C63.9506 218.374 64.0758 218.364 64.1899 218.356C63.9839 218.747 63.6958 219.263 63.3687 219.821C62.3052 221.634 62.036 222.225 62.0445 223.195C62.0503 223.857 62.2017 224.445 62.5409 224.954C62.8778 225.46 63.3735 225.847 64.001 226.156C64.4432 226.374 64.8224 226.485 65.6525 226.537C66.4549 226.588 67.7254 226.586 69.9636 226.569Z" stroke="#0E0E52"/>
<path d="M38.7837 246.757L38.4635 247.092L38.7837 246.757L37.4334 245.466L39.3606 244.839C40.8712 244.347 44.1911 243.132 46.7425 242.139L51.2994 240.365L55.2195 240.173C59.9212 239.942 62.6689 239.491 66.715 238.28C70.9038 237.027 76.2225 234.588 80.4127 232.002C80.5046 231.945 80.5951 231.89 80.6838 231.836C80.4343 232.224 80.1515 232.66 79.8509 233.119C77.0296 237.422 74.5902 242.437 73.7868 245.635C73.5829 246.447 73.5269 247.161 73.6813 247.811C73.8384 248.472 74.2005 249.015 74.7377 249.501C74.9872 249.727 75.2492 249.918 75.565 250.054C75.8816 250.19 76.2264 250.26 76.6303 250.279C77.3366 250.31 78.2772 250.183 79.6518 249.93C78.5121 250.506 77.201 251.135 76.2481 251.547C70.954 253.835 67.1486 254.717 61.9897 254.859C59.9436 254.915 57.9498 254.922 57.5372 254.881C49.9456 254.12 43.6045 251.362 38.7837 246.757Z" stroke="#0E0E52"/>
<path d="M55.6306 270.054C59.441 271.984 64.6409 273.622 68.6869 274.169C71.0927 274.494 75.4911 274.351 77.6644 273.881C82.8102 272.768 88.787 269.643 95.242 264.645C96.3289 263.804 97.4314 262.935 98.0754 262.414C97.105 262.438 96.2488 262.194 95.6066 261.685C94.8871 261.115 94.4946 260.257 94.485 259.237C94.485 259.236 94.485 259.236 94.485 259.236L94.985 259.232L55.6306 270.054ZM55.6306 270.054C55.3236 269.898 55.0407 269.751 54.8049 269.624M55.6306 270.054L54.8049 269.624M54.8049 269.624C54.8651 269.588 54.929 269.549 54.9964 269.509C55.483 269.218 56.1467 268.83 56.9298 268.377C58.4957 267.473 60.5331 266.314 62.5742 265.165C64.6153 264.016 66.6586 262.877 68.2362 262.012C69.0252 261.579 69.6962 261.216 70.1915 260.954C70.4394 260.823 70.641 260.719 70.7903 260.644C70.9579 260.561 71.0207 260.535 71.0183 260.536C77.0251 258.684 80.5686 257.226 84.8194 254.851C89.3915 252.296 94.7828 248.502 98.8295 244.995L54.8049 269.624Z" stroke="#0E0E52"/>
<path d="M87.2819 286.236C86.4448 286.128 85.381 285.93 84.5264 285.738C84.2032 285.665 83.9149 285.595 83.6833 285.532C83.8996 285.249 84.2011 284.862 84.5691 284.394C85.356 283.393 86.4425 282.029 87.6382 280.544L91.9402 275.199L94.1859 273.723L93.9112 273.305L94.1859 273.723C99.4152 270.285 104.426 266.125 109.87 260.709C112.463 258.129 114.093 256.691 115.292 255.902C116.186 255.314 117.274 254.558 117.849 254.128C117.742 254.496 117.614 254.921 117.474 255.371C115.947 260.3 115.161 264.396 114.959 268.522C114.903 269.67 114.869 270.2 114.777 270.566C114.696 270.888 114.573 271.081 114.228 271.55C111.35 275.47 107.249 279.585 104.036 281.79C101.464 283.556 97.4653 285.231 94.3254 285.857C92.2515 286.27 88.906 286.446 87.2819 286.236L87.218 286.732L87.2819 286.236Z" stroke="#0E0E52"/>
<path d="M119.248 276.019C120.833 273.904 121.664 273.19 123.045 272.475C126.047 270.921 128.812 269.057 131.788 266.585C131.983 266.423 132.163 266.279 132.323 266.155C132.313 266.31 132.303 266.479 132.293 266.661C132.25 267.449 132.214 268.477 132.193 269.557C132.157 271.41 132.131 272.367 132.062 272.949C132.028 273.232 131.986 273.402 131.937 273.531C131.889 273.657 131.827 273.765 131.721 273.926L131.721 273.926L131.387 274.429L127.396 274.464C125.352 274.481 124.244 274.495 123.447 274.579C122.621 274.666 122.121 274.828 121.304 275.114L121.304 275.114C120.667 275.336 119.883 275.684 119.248 276.019Z" stroke="#0E0E52"/>
<path d="M140.672 269.38L140.672 269.38C140.832 269.912 140.978 270.424 141.083 270.819C141.136 271.017 141.177 271.183 141.206 271.306C141.215 271.348 141.223 271.383 141.229 271.412C141.216 271.427 141.197 271.447 141.171 271.472C141.024 271.613 140.752 271.826 140.248 272.199C139.648 272.643 139.236 272.946 138.954 273.148C138.922 272.882 138.885 272.545 138.85 272.195C138.704 270.715 138.751 268.407 138.966 266.61C139.026 266.101 139.144 265.332 139.265 264.604C139.31 264.755 139.355 264.912 139.402 265.072L139.827 264.949L139.402 265.072C139.777 266.368 140.349 268.305 140.672 269.38Z" stroke="#0E0E52"/>
<path d="M44.677 6.31236L44.1577 6.31942C45.0274 5.44535 45.9243 4.73064 46.9207 4.1174C46.7853 4.85121 46.6147 5.81776 46.5274 6.35436C46.414 6.33109 46.2914 6.32097 46.1573 6.31444C45.866 6.30026 45.4111 6.30238 44.677 6.31236Z" stroke="#0E0E52"/>
<path d="M128.492 221.813C128.541 221.899 128.588 221.982 128.632 222.059C128.466 222.088 128.275 222.117 128.074 222.144C127.653 222.203 127.207 222.254 126.857 222.281C127.006 222.071 127.184 221.83 127.369 221.587C127.578 221.314 127.781 221.058 127.949 220.858C128.094 221.117 128.305 221.488 128.492 221.812L128.492 221.813Z" stroke="#0E0E52"/>
<path d="M119.835 212.065C119.933 211.921 120.036 211.774 120.124 211.651C120.254 211.726 120.427 211.835 120.652 211.98C120.318 212.021 120.015 212.052 119.835 212.065Z" stroke="#0E0E52"/>
<path d="M135.6 233.963C135.762 233.921 135.944 233.872 136.115 233.823L135.6 233.963ZM135.6 233.963C135.711 233.728 135.845 233.459 135.977 233.204C136.022 233.118 136.066 233.035 136.108 232.957C136.14 232.997 136.173 233.038 136.206 233.081L135.6 233.963ZM136.489 233.442C136.421 233.352 136.33 233.237 136.206 233.081L136.489 233.442ZM136.489 233.442C136.538 233.507 136.57 233.552 136.59 233.583M136.489 233.442L136.59 233.583M136.59 233.583C136.582 233.627 136.576 233.658 136.572 233.681C136.559 233.686 136.543 233.692 136.522 233.7C136.433 233.731 136.308 233.767 136.115 233.823L136.59 233.583Z" stroke="#0E0E52"/>
</svg>
