<?xml version="1.0" standalone="no"?>
<!DOCTYPE svg PUBLIC "-//W3C//DTD SVG 20010904//EN"
 "http://www.w3.org/TR/2001/REC-SVG-20010904/DTD/svg10.dtd">
<svg version="1.0" xmlns="http://www.w3.org/2000/svg"
 width="412.000000pt" height="412.000000pt" viewBox="0 0 412.000000 412.000000"
 preserveAspectRatio="xMidYMid meet">
<metadata>
Created by potrace 1.14, written by Peter Selinger 2001-2017
</metadata>
<g transform="translate(0.000000,412.000000) scale(0.100000,-0.100000)"
fill="#000000" stroke="none">
<path d="M636 4099 c-58 -46 -105 -171 -107 -289 -1 -55 -1 -55 -14 -25 -8 17
-14 40 -15 51 0 12 -7 27 -15 34 -21 18 -57 -17 -92 -89 -24 -49 -28 -67 -28
-157 0 -101 0 -101 -21 -87 -27 17 -38 5 -62 -68 l-17 -53 -119 -30 -119 -30
6 -131 c12 -271 137 -783 272 -1116 142 -348 404 -784 667 -1106 l58 -71 6
-369 c3 -202 7 -369 8 -369 0 -1 173 -4 384 -5 l382 -4 121 -93 122 -92 26 16
c14 10 70 51 123 91 l98 74 87 3 c49 2 226 4 396 5 l307 1 0 81 c0 76 1 81 20
76 20 -5 20 0 20 200 0 196 -1 205 -20 210 -18 5 -20 14 -20 92 l0 87 71 90
c274 343 507 724 647 1054 137 325 281 937 282 1196 l0 82 -123 32 -124 32
-12 49 c-7 27 -20 56 -28 65 -14 13 -17 13 -33 -1 -17 -15 -18 -11 -22 92 -3
88 -8 116 -27 153 -29 56 -69 100 -86 93 -8 -2 -19 -27 -25 -54 -7 -28 -14
-48 -16 -46 -2 2 -9 39 -14 83 -14 114 -36 169 -84 220 -37 39 -48 44 -85 44
l-43 0 8 -47 c5 -27 9 -120 9 -208 0 -140 -3 -170 -24 -238 -19 -60 -28 -76
-40 -73 -83 24 -1243 316 -1257 316 -9 0 -300 -72 -647 -161 -346 -88 -633
-157 -637 -152 -5 4 -18 42 -29 83 -37 126 -39 335 -5 458 6 20 3 22 -38 22
-31 0 -54 -7 -72 -21z m2863 -119 c77 -179 30 -458 -112 -670 -51 -76 -67 -91
-83 -75 -8 7 -19 15 -25 17 -7 2 1 24 21 56 18 29 33 69 35 90 2 20 19 76 38
123 55 131 70 224 66 399 l-4 149 22 -21 c12 -11 31 -41 42 -68z m-2826 -67
c-4 -134 -2 -157 20 -244 14 -53 37 -125 52 -160 15 -35 30 -85 34 -110 4 -25
21 -69 39 -97 17 -29 27 -52 20 -52 -6 0 -19 -7 -29 -16 -16 -14 -20 -11 -62
48 -57 80 -109 183 -137 273 -28 89 -37 248 -20 337 11 62 61 168 79 168 4 0
6 -66 4 -147z m2387 -370 c124 -31 229 -59 234 -64 15 -13 -28 -74 -54 -77
-14 -1 -287 65 -607 147 l-583 149 -587 -150 c-415 -106 -592 -147 -603 -140
-8 5 -23 23 -33 39 l-17 30 442 112 c244 62 526 134 627 160 l184 48 386 -99
c212 -54 487 -124 611 -155z m-2590 224 c0 -7 17 -46 38 -87 22 -41 44 -97 51
-125 18 -73 103 -244 160 -319 44 -58 48 -66 29 -66 -34 0 -58 -29 -58 -69
l-1 -36 -50 55 c-91 99 -164 220 -205 340 -25 74 -26 238 -1 293 15 35 37 43
37 14z m3213 -24 c22 -61 22 -185 1 -266 -28 -111 -127 -277 -216 -364 l-43
-42 -1 36 c-1 41 -27 66 -62 60 -15 -3 -19 -1 -13 7 98 125 165 247 200 361
21 71 101 254 112 255 3 0 13 -21 22 -47z m-3312 -306 c14 -17 43 -66 63 -107
51 -100 114 -187 205 -282 l76 -78 -32 0 c-36 0 -84 -16 -94 -32 -10 -16 -41
5 -94 64 -97 107 -160 232 -171 337 -7 60 1 131 14 131 4 0 19 -15 33 -33z
m3419 -55 c-1 -135 -70 -280 -194 -401 -54 -54 -56 -54 -76 -36 -11 10 -41 20
-70 23 l-50 5 83 86 c94 97 147 172 202 281 38 78 82 133 97 124 4 -3 8 -40 8
-82z m-3516 -69 c4 -16 9 -36 12 -45 4 -13 -6 -20 -43 -30 l-48 -14 1 -114 c0
-123 29 -311 69 -461 13 -51 19 -92 14 -100 -12 -22 8 -96 41 -154 41 -73 56
-130 40 -150 -11 -13 -9 -21 17 -48 16 -18 40 -59 53 -92 102 -262 339 -670
539 -930 42 -54 61 -88 61 -108 0 -16 -4 -26 -10 -22 -19 11 -179 232 -274
376 -193 296 -347 602 -436 870 -103 307 -186 684 -197 891 l-6 116 39 11 c21
5 55 14 74 19 19 6 38 11 41 11 4 1 10 -11 13 -26z m2972 2 c-115 -175 -143
-239 -210 -470 -30 -104 -69 -229 -86 -277 -35 -97 -97 -200 -130 -218 -21
-11 -21 -10 -14 52 5 46 14 72 34 98 47 60 77 131 124 292 25 86 55 181 66
211 25 67 116 213 177 284 47 56 66 69 39 28z m644 16 c19 -6 55 -15 79 -21
l44 -12 -6 -111 c-16 -300 -162 -871 -302 -1177 -130 -285 -338 -622 -545
-884 l-70 -89 0 50 c0 46 5 57 66 137 191 253 394 598 489 831 28 67 47 98 76
123 42 36 50 67 20 77 -18 6 -19 9 -6 46 8 21 28 56 44 77 52 64 78 166 46
178 -21 9 -19 23 17 100 34 73 38 105 54 441 l7 132 -38 7 c-36 6 -37 7 -31
43 3 20 6 42 6 49 0 14 4 15 50 3z m-2899 -159 c79 -121 100 -172 154 -363 47
-167 82 -247 134 -313 25 -31 31 -48 31 -87 0 -26 3 -56 6 -66 4 -11 -10 -2
-34 21 -74 70 -113 163 -207 491 -66 230 -71 241 -203 455 -13 20 -8 18 22
-10 20 -19 64 -77 97 -128z m673 74 c17 -6 18 -9 5 -21 -12 -12 -21 -12 -61 2
-68 22 -82 14 -74 -44 3 -25 11 -51 16 -58 7 -8 4 -17 -9 -29 -19 -17 -20 -16
-35 35 -9 30 -19 84 -23 121 l-6 67 84 -33 c46 -18 93 -36 103 -40z m966 -8
c-13 -85 -30 -148 -40 -148 -18 0 -31 29 -22 47 9 17 16 61 13 91 -1 16 -29
15 -81 -3 -37 -13 -43 -13 -57 0 -12 12 -12 16 -1 20 7 2 54 20 103 39 50 18
92 32 93 31 2 -2 -1 -36 -8 -77z m-1718 -103 c30 -36 62 -95 55 -102 -7 -6
-83 90 -103 130 -15 28 -15 29 4 16 10 -8 30 -27 44 -44z m1064 21 l81 -33 79
33 c106 45 129 44 200 -10 101 -74 144 -132 144 -189 0 -47 -38 -129 -85 -184
-33 -39 -35 -45 -35 -117 0 -73 -1 -77 -36 -116 -20 -22 -51 -49 -70 -60 -33
-21 -35 -21 -116 -5 -77 16 -89 16 -161 1 -86 -18 -92 -16 -160 37 -56 44 -71
79 -64 154 6 62 6 63 -34 109 -50 58 -78 112 -85 166 -5 37 -1 50 26 90 49 73
162 158 210 158 14 0 61 -15 106 -34z m1255 -23 c-17 -26 -45 -64 -61 -83
l-31 -35 16 39 c17 44 26 57 69 103 41 45 45 33 7 -24z m-1621 32 c-12 -15
-30 -12 -30 6 0 5 10 9 21 9 18 0 19 -2 9 -15z m920 0 c0 -9 -6 -12 -15 -9 -8
4 -15 10 -15 15 0 5 7 9 15 9 8 0 15 -7 15 -15z m-2110 -150 c50 -62 166 -168
255 -231 45 -33 48 -44 10 -44 -12 0 -39 -11 -59 -25 l-37 -25 -42 25 c-157
93 -247 222 -247 356 l0 48 35 -20 c19 -12 57 -49 85 -84z m396 65 c33 -22 89
-68 126 -103 54 -50 68 -70 74 -101 l7 -40 -59 33 c-133 74 -224 167 -224 228
0 31 8 29 76 -17z m2548 -18 c-9 -24 -39 -63 -69 -90 -56 -51 -192 -138 -201
-129 -31 31 128 202 241 261 40 21 49 7 29 -42z m447 -11 c-7 -128 -74 -225
-224 -322 l-59 -39 -26 20 c-14 11 -42 23 -64 26 -51 9 -54 17 -15 36 43 21
237 196 282 255 37 49 83 85 100 80 5 -2 8 -27 6 -56z m-3034 -156 c42 -14
119 -49 172 -77 53 -28 97 -52 98 -52 1 -1 5 -14 9 -30 l7 -29 -49 7 c-67 10
-246 70 -298 101 -88 51 -111 105 -46 105 18 0 66 -11 107 -25z m2702 16 c31
-20 -34 -78 -143 -126 -64 -28 -227 -75 -263 -75 -18 0 -20 4 -14 28 6 22 27
38 128 90 154 79 254 107 292 83z m-3119 -127 c59 -41 101 -69 255 -170 55
-36 125 -64 161 -64 30 0 40 -17 14 -25 -11 -4 -41 -22 -65 -41 -25 -19 -49
-34 -54 -34 -5 0 -49 13 -97 30 -143 49 -218 109 -263 211 -22 50 -38 139 -25
139 5 0 38 -21 74 -46z m3467 -4 c-18 -151 -135 -262 -330 -315 l-68 -18 -27
25 c-15 14 -45 35 -66 46 -43 21 -42 22 34 37 61 12 105 39 388 232 35 24 66
43 69 43 3 0 3 -22 0 -50z m-2853 -111 c107 -20 110 -22 121 -58 l7 -23 -168
4 c-126 4 -181 9 -215 22 -55 20 -87 50 -67 62 44 27 158 25 322 -7z m2474 14
c38 -9 24 -33 -35 -61 -54 -24 -70 -27 -225 -30 -159 -4 -168 -3 -168 14 0 35
16 43 120 63 158 30 230 33 308 14z m-2318 -169 c6 -14 10 -27 10 -30 0 -9
-119 -63 -174 -79 -41 -12 -84 -16 -146 -13 -95 3 -110 9 -90 33 42 51 222
114 328 114 58 1 63 -1 72 -25z m2039 10 c87 -22 170 -59 204 -92 25 -24 26
-27 10 -34 -33 -12 -178 -8 -238 7 -32 9 -84 29 -116 46 -56 30 -57 32 -47 60
9 27 13 29 66 29 31 0 85 -7 121 -16z m-2582 -101 c57 -17 83 -30 86 -43 7
-25 66 -40 162 -40 l80 0 -28 -27 c-27 -27 -31 -28 -157 -31 -96 -3 -143 0
-183 12 -81 23 -146 72 -184 136 -18 30 -33 57 -33 60 0 7 104 -20 257 -67z
m3193 62 c0 -21 -45 -88 -81 -119 -78 -71 -113 -81 -291 -81 l-158 0 -27 28
-28 27 80 0 c95 0 151 14 168 41 12 19 87 46 247 90 71 19 90 22 90 14z
m-1641 -60 c53 -12 82 -13 103 -6 34 12 37 0 10 -43 -20 -33 -26 -34 -164 -43
-109 -6 -174 9 -221 52 -36 34 -34 45 6 35 20 -6 55 -4 97 4 87 18 85 18 169
1z m-948 -32 l20 -32 -53 -42 c-71 -57 -160 -97 -233 -105 l-59 -7 30 36 c16
20 49 53 72 73 49 42 171 113 190 111 7 -1 22 -16 33 -34z m1848 -5 c44 -23
102 -68 140 -107 66 -65 66 -65 38 -69 -50 -6 -159 34 -235 88 -40 28 -72 55
-72 59 0 17 35 71 45 71 6 0 44 -19 84 -42z m-1789 -87 c-16 -31 -12 -59 11
-72 21 -11 19 -14 -42 -76 -35 -35 -84 -75 -109 -88 -54 -27 -128 -51 -136
-42 -15 15 115 170 209 249 62 51 85 61 67 29z m1726 -73 c53 -51 115 -119
137 -152 l40 -59 -37 6 c-61 10 -138 51 -199 107 -77 70 -85 86 -55 109 20 17
21 22 10 45 -27 60 -6 48 104 -56z m-2166 -19 c-20 -37 -6 -49 62 -50 l63 -1
-51 -24 c-106 -50 -220 -50 -332 1 -61 28 -116 65 -108 73 13 13 91 20 229 21
147 1 148 1 137 -20z m2848 6 c22 -7 21 -9 -24 -41 -67 -48 -160 -76 -250 -76
-62 1 -85 6 -137 31 l-62 29 58 1 c63 1 81 17 58 53 -12 20 -10 20 161 15 95
-3 183 -8 196 -12z m-717 -222 c17 -34 29 -67 27 -73 -2 -6 -23 -1 -55 15 -54
27 -151 123 -178 176 l-16 29 40 0 c22 0 43 5 47 12 11 18 99 -85 135 -159z
m-1580 147 l40 0 -22 -32 c-42 -62 -134 -150 -182 -174 -27 -14 -51 -23 -54
-20 -3 3 8 35 26 70 37 76 117 170 138 162 8 -4 33 -6 54 -6z m-421 -67 c-16
-27 -32 -62 -36 -80 -6 -30 -5 -32 27 -35 31 -3 29 -5 -34 -25 -109 -37 -208
-25 -284 33 l-37 28 45 19 c24 10 84 25 132 32 54 8 112 25 150 44 34 16 63
30 64 30 1 1 -11 -20 -27 -46z m2415 -27 c50 -8 97 -17 105 -20 80 -29 75 -24
54 -47 -11 -12 -37 -31 -59 -42 -57 -31 -191 -31 -255 0 -41 19 -43 21 -17 22
22 1 27 5 27 27 0 15 -14 50 -30 80 l-31 53 58 -29 c35 -18 94 -35 148 -44z
m-1925 -73 c0 -52 -2 -56 -51 -104 -77 -75 -86 -65 -44 46 35 95 54 123 76
118 16 -4 19 -15 19 -60z m244 -95 c39 -27 118 -74 176 -103 116 -59 139 -84
171 -185 23 -76 44 -74 73 6 34 93 58 120 149 166 121 60 235 137 314 212 39
36 74 66 78 66 16 0 -7 -113 -56 -281 -45 -152 -52 -187 -54 -274 -1 -72 -9
-125 -28 -190 -14 -49 -28 -102 -31 -117 -6 -28 -8 -28 -81 -28 l-75 0 0 103
c0 93 -14 180 -41 265 l-11 33 -26 -18 c-136 -91 -209 -94 -326 -14 -28 19
-47 27 -51 21 -4 -6 -16 -41 -27 -78 -15 -50 -20 -97 -20 -189 l0 -123 -69 0
-69 0 0 -230 0 -230 -26 0 c-21 0 -25 3 -19 18 4 9 10 29 13 45 3 22 1 27 -15
27 -19 0 -36 -23 -48 -66 -5 -20 -9 -21 -40 -11 -51 15 -46 42 21 118 85 95
99 132 98 259 -1 85 -8 125 -33 213 -24 82 -31 127 -31 191 0 71 -8 110 -50
257 -28 96 -54 203 -57 239 l-6 65 63 -58 c34 -32 94 -81 134 -109z m1084 85
c35 -79 54 -143 42 -143 -5 0 -34 24 -65 53 l-55 52 6 53 c10 75 33 71 72 -15z
m-1659 -13 c-23 -61 -24 -86 -3 -98 13 -7 5 -16 -41 -47 -75 -49 -136 -68
-198 -60 -58 7 -129 34 -122 45 8 13 127 76 170 89 47 15 166 83 185 105 24
30 28 16 9 -34z m2101 -65 c92 -40 190 -92 190 -101 0 -2 -32 -13 -71 -25
-103 -31 -179 -15 -276 58 -28 22 -31 27 -18 39 14 15 13 22 -20 123 -7 23 -4
22 44 -14 29 -20 97 -57 151 -80z m-1928 4 c-5 -13 -13 -48 -17 -76 -6 -47
-13 -58 -61 -102 -30 -28 -72 -55 -92 -61 -46 -12 -122 -13 -122 -1 0 15 63
87 95 108 17 11 68 53 113 92 46 40 86 70 88 68 3 -2 0 -15 -4 -28z m1640 -26
c35 -32 86 -74 113 -95 45 -32 115 -107 115 -122 0 -3 -24 -6 -53 -6 -97 0
-227 92 -227 160 0 15 -6 48 -14 73 -8 26 -10 47 -6 47 4 0 37 -26 72 -57z
m-252 -75 c0 -31 -3 -39 -11 -31 -7 7 -8 24 -4 42 9 43 15 39 15 -11z m-1188
12 c0 -11 1 -25 2 -32 1 -6 -5 -13 -11 -15 -9 -3 -13 7 -13 31 0 37 19 51 22
16z m1364 -72 c5 -7 2 -8 -5 -3 -7 4 -36 10 -65 14 -50 6 -51 6 -54 43 l-3 37
60 -40 c34 -22 64 -45 67 -51z m-1436 47 c0 -33 -2 -35 -34 -35 -19 0 -47 -5
-63 -11 l-28 -10 20 20 c23 23 87 69 98 70 4 1 7 -15 7 -34z m-45 -102 c-98
-239 -113 -319 -72 -398 14 -28 35 -63 46 -80 28 -40 27 -45 -13 -45 -32 0
-39 6 -84 74 -28 41 -53 92 -56 113 -19 113 93 353 164 353 17 0 21 -4 15 -17z
m1463 -7 c58 -49 122 -204 122 -295 0 -52 -33 -124 -83 -184 -27 -32 -37 -38
-63 -35 l-32 3 47 80 c39 68 46 86 45 130 -2 58 -18 116 -67 238 -32 78 -34
87 -17 87 10 0 32 -11 48 -24z m-1594 -11 c-9 -14 -18 -25 -21 -25 -5 0 5 18
20 38 17 22 18 13 1 -13z m126 -935 l0 -290 70 0 70 0 0 66 c0 49 3 65 13 61
6 -2 45 -15 85 -28 l72 -23 0 -88 0 -88 -240 0 -240 0 0 340 0 340 85 0 85 0
0 -290z m640 0 l0 -290 70 0 70 0 0 290 0 290 85 0 85 0 0 -340 0 -340 -240 0
-240 0 0 340 0 340 85 0 85 0 0 -290z m958 183 l3 -103 -91 0 -90 0 0 55 0 55
-70 0 -70 0 0 -240 0 -240 75 0 75 0 0 85 c0 74 2 85 18 86 9 0 -2 7 -25 16
-43 15 -43 15 -43 64 0 27 3 49 8 49 4 0 62 -19 130 -42 l122 -42 0 -53 c0
-52 0 -52 -25 -43 l-25 10 0 -115 0 -115 -240 0 -240 0 0 340 0 340 243 -2
242 -3 3 -102z m-926 -734 c15 -8 26 -8 42 1 12 6 44 10 72 8 l49 -3 -65 -47
-64 -46 -41 29 c-22 16 -51 38 -65 49 l-25 20 38 0 c21 0 48 -5 59 -11z"/>
<path d="M1797 2983 c-12 -11 -8 -63 8 -93 18 -36 54 -44 120 -28 74 19 71 40
-12 81 -80 40 -107 50 -116 40z"/>
<path d="M2213 2950 c-46 -21 -83 -43 -83 -49 0 -32 108 -60 150 -38 31 16 55
80 40 108 -6 10 -14 19 -18 18 -4 0 -44 -18 -89 -39z"/>
<path d="M1966 2736 c-21 -8 -42 -20 -47 -27 -16 -27 13 -66 85 -115 47 -32
50 -32 79 -18 16 9 49 34 74 57 51 47 53 74 9 96 -43 20 -153 24 -200 7z"/>
</g>
</svg>
